<svg xmlns="http://www.w3.org/2000/svg" version="1.1" xmlns:xlink="http://www.w3.org/1999/xlink" xmlns:svgjs="http://svgjs.com/svgjs" width="1440" height="560" preserveAspectRatio="none" viewBox="0 0 1440 560"><g mask="url(&quot;#SvgjsMask1030&quot;)" fill="none"><path d="M1464 560L0 560 L0 364.8Q66.61 359.41, 72 426.03Q117.56 351.59, 192 397.15Q281.11 366.25, 312 455.36Q340.6 411.96, 384 440.55Q392.38 376.93, 456 385.3Q498.59 355.89, 528 398.49Q576.62 375.11, 600 423.72Q612.22 363.94, 672 376.16Q716.2 348.36, 744 392.55Q789.92 366.48, 816 412.4Q868.62 393.01, 888 445.63Q908.25 345.88, 1008 366.13Q1050.07 336.2, 1080 378.27Q1172.91 351.18, 1200 444.09Q1265.55 389.63, 1320 455.18Q1340.63 403.81, 1392 424.45Q1416.13 376.58, 1464 400.71z" fill="rgba(251, 249, 255, 1)"></path><path d="M1488 560L0 560 L0 479.29Q39.91 447.2, 72 487.11Q85.45 428.56, 144 442.02Q187.53 413.55, 216 457.08Q286.75 407.83, 336 478.58Q347.75 418.33, 408 430.08Q480.66 382.74, 528 455.4Q610.16 417.56, 648 499.72Q702.87 434.59, 768 489.45Q791.28 440.73, 840 464Q907.67 411.67, 960 479.34Q979.3 426.64, 1032 445.94Q1100.65 394.59, 1152 463.24Q1214.38 453.62, 1224 515.99Q1254.19 474.19, 1296 504.38Q1332.38 420.75, 1416 457.13Q1465.61 434.74, 1488 484.34z" fill="rgba(145, 140, 184, 1)"></path><path d="M1488 560L0 560 L0 521.96Q68.91 470.88, 120 539.79Q164.92 464.71, 240 509.63Q284.36 481.99, 312 526.34Q355.97 498.31, 384 542.28Q459.16 497.44, 504 572.61Q532.65 481.26, 624 509.92Q666.27 480.19, 696 522.46Q768.16 474.63, 816 546.79Q858.73 469.52, 936 512.25Q978.69 482.94, 1008 525.63Q1071.05 516.68, 1080 579.73Q1106.58 534.31, 1152 560.89Q1184.3 473.19, 1272 505.49Q1321.01 482.5, 1344 531.51Q1361.85 477.36, 1416 495.2Q1458.21 465.41, 1488 507.63z" fill="rgba(0, 37, 122, 1)"></path></g><defs><mask id="SvgjsMask1030"><rect width="1440" height="560" fill="#ffffff"></rect></mask></defs></svg>