<svg width="645" height="480" viewBox="0 0 645 480" fill="none" xmlns="http://www.w3.org/2000/svg">
<path d="M644.192 421.817H0V422.139H644.192V421.817Z" fill="#EBEBEB"/>
<path d="M212.055 441.685H169.384V442.007H212.055V441.685Z" fill="#EBEBEB"/>
<path d="M333.485 438.192H322.289V438.514H333.485V438.192Z" fill="#EBEBEB"/>
<path d="M92.3129 432.755H67.5889V433.077H92.3129V432.755Z" fill="#EBEBEB"/>
<path d="M535.684 430.59H502.083V430.912H535.684V430.59Z" fill="#EBEBEB"/>
<path d="M490.604 430.59H460.404V430.912H490.604V430.59Z" fill="#EBEBEB"/>
<path d="M579.657 446.051H458.961V446.373H579.657V446.051Z" fill="#EBEBEB"/>
<path d="M305.347 364.355H56.5733C54.6244 364.351 52.7565 363.575 51.3797 362.196C50.0028 360.816 49.2295 358.947 49.2295 356.998V7.29225C49.2465 5.35455 50.0273 3.5018 51.4023 2.13642C52.7773 0.771044 54.6355 0.00331937 56.5733 0H305.347C307.298 0 309.17 0.775076 310.549 2.15472C311.929 3.53436 312.704 5.40556 312.704 7.35667V356.998C312.704 358.949 311.929 360.82 310.549 362.2C309.17 363.58 307.298 364.355 305.347 364.355ZM56.5733 0.257678C54.7098 0.261091 52.9239 1.00373 51.6074 2.3226C50.291 3.64147 49.5516 5.42879 49.5516 7.29225V356.998C49.5516 358.862 50.291 360.649 51.6074 361.968C52.9239 363.287 54.7098 364.029 56.5733 364.033H305.347C307.212 364.029 308.999 363.287 310.318 361.969C311.636 360.65 312.378 358.863 312.382 356.998V7.29225C312.378 5.42761 311.636 3.64032 310.318 2.32182C308.999 1.00332 307.212 0.261083 305.347 0.257678H56.5733Z" fill="#EBEBEB"/>
<path d="M584.038 364.355H335.251C333.301 364.351 331.432 363.575 330.053 362.196C328.674 360.817 327.898 358.948 327.895 356.998V7.29225C327.915 5.35338 328.699 3.50064 330.076 2.13561C331.453 0.770593 333.312 0.00328317 335.251 0H584.038C585.974 0.00670539 587.828 0.775928 589.201 2.14094C590.573 3.50596 591.352 5.35678 591.369 7.29225V356.998C591.369 358.945 590.597 360.812 589.223 362.191C587.849 363.57 585.985 364.348 584.038 364.355ZM335.251 0.257678C333.387 0.261083 331.599 1.00332 330.281 2.32182C328.962 3.64032 328.22 5.42761 328.217 7.29225V356.998C328.22 358.863 328.962 360.65 330.281 361.969C331.599 363.287 333.387 364.029 335.251 364.033H584.038C585.903 364.029 587.69 363.287 589.008 361.969C590.327 360.65 591.069 358.863 591.073 356.998V7.29225C591.069 5.42761 590.327 3.64032 589.008 2.32182C587.69 1.00332 585.903 0.261083 584.038 0.257678H335.251Z" fill="#EBEBEB"/>
<path d="M410.479 417.978H440.82V285.223H410.479V417.978Z" fill="#F0F0F0"/>
<path d="M301.417 421.817H435.01V417.978H301.417V421.817Z" fill="#F0F0F0"/>
<path d="M410.479 285.223H295.581V417.978H410.479V285.223Z" fill="#F5F5F5"/>
<path d="M398.548 292.67H307.511V348.637H398.548V292.67Z" fill="#F0F0F0"/>
<path d="M398.548 354.563H307.511V410.531H398.548V354.563Z" fill="#F0F0F0"/>
<path d="M376.633 302.422H329.44C327.964 302.424 326.502 302.134 325.139 301.569C323.776 301.004 322.538 300.175 321.496 299.129C320.454 298.084 319.63 296.843 319.069 295.478C318.509 294.113 318.224 292.651 318.231 291.175H387.803C387.81 292.647 387.526 294.107 386.968 295.469C386.41 296.832 385.589 298.071 384.551 299.116C383.514 300.161 382.28 300.99 380.922 301.558C379.563 302.125 378.105 302.419 376.633 302.422Z" fill="#F5F5F5"/>
<path d="M376.634 364.316H329.44C326.471 364.316 323.623 363.137 321.523 361.037C319.424 358.937 318.244 356.089 318.244 353.12H387.817C387.817 356.087 386.639 358.933 384.542 361.032C382.445 363.132 379.601 364.313 376.634 364.316Z" fill="#F5F5F5"/>
<path d="M534.396 417.978H564.737V285.223H534.396V417.978Z" fill="#F0F0F0"/>
<path d="M425.321 421.817H558.913V417.978H425.321V421.817Z" fill="#F0F0F0"/>
<path d="M534.395 285.223H419.497V417.978H534.395V285.223Z" fill="#F5F5F5"/>
<path d="M522.465 292.67H431.428V348.637H522.465V292.67Z" fill="#F0F0F0"/>
<path d="M522.465 354.563H431.428V410.531H522.465V354.563Z" fill="#F0F0F0"/>
<path d="M500.537 302.423H453.344C450.374 302.423 447.526 301.243 445.427 299.143C443.327 297.044 442.147 294.196 442.147 291.227H511.72C511.72 294.194 510.542 297.039 508.445 299.139C506.349 301.238 503.504 302.419 500.537 302.423Z" fill="#F5F5F5"/>
<path d="M500.537 364.316H453.344C450.374 364.316 447.526 363.137 445.427 361.037C443.327 358.937 442.147 356.089 442.147 353.12H511.72C511.72 356.087 510.542 358.933 508.445 361.032C506.349 363.132 503.504 364.313 500.537 364.316Z" fill="#F5F5F5"/>
<path d="M143.552 106.858H195.525V46.7811L143.552 46.7811V106.858Z" fill="#E6E6E6"/>
<path d="M137.624 106.858H194.133V46.7811L137.624 46.7811V106.858Z" fill="#F5F5F5"/>
<path d="M189.393 102.13V51.5225H142.354V102.13H189.393Z" fill="white"/>
<path d="M178.002 89.8645V88.0221C177.999 81.5957 175.444 75.4336 170.9 70.8895C166.356 66.3454 160.194 63.791 153.768 63.7876V65.63C153.768 72.0574 156.321 78.2215 160.866 82.7664C165.411 87.3112 171.575 89.8645 178.002 89.8645Z" fill="#F5F5F5"/>
<path d="M369.302 220.249L564.75 220.249V37.4274L369.302 37.4274V220.249Z" fill="#E6E6E6"/>
<path d="M363.246 220.249L561.915 220.249V37.4274L363.246 37.4274V220.249Z" fill="#F0F0F0"/>
<path d="M369.302 226.769L564.75 226.769V220.249L369.302 220.249V226.769Z" fill="#E6E6E6"/>
<path d="M353.146 226.769L551.814 226.769V220.249L353.146 220.249V226.769Z" fill="#F0F0F0"/>
<path d="M553.425 210.431V47.2446L371.711 47.2446V210.431H553.425Z" fill="#FAFAFA"/>
<path d="M501.902 210.444L471.638 47.2446H421.777L452.041 210.444H501.902Z" fill="white"/>
<path d="M549.508 155.07C549.68 155.057 549.84 154.977 549.954 154.846C550.067 154.716 550.124 154.547 550.114 154.375V53.6358C550.114 53.4752 550.05 53.3212 549.936 53.2076C549.823 53.0941 549.669 53.0303 549.508 53.0303C549.348 53.0303 549.194 53.0941 549.08 53.2076C548.966 53.3212 548.903 53.4752 548.903 53.6358V154.375C548.892 154.547 548.95 154.716 549.063 154.846C549.176 154.977 549.336 155.057 549.508 155.07Z" fill="#F0F0F0"/>
<path d="M441.323 210.444L411.072 47.2446H391.63L421.881 210.444H441.323Z" fill="white"/>
<path d="M372.793 210.431V47.2446H371.711V210.431H372.793Z" fill="#E6E6E6"/>
<path opacity="0.4" d="M361.236 59.8065H556.671L557.457 51.0713H362.009L361.236 59.8065Z" fill="#E6E6E6"/>
<path opacity="0.4" d="M361.236 69.8692H556.671L557.457 61.1211H362.009L361.236 69.8692Z" fill="#E6E6E6"/>
<path opacity="0.4" d="M361.236 79.9183H556.671L557.457 71.1831H362.009L361.236 79.9183Z" fill="#E6E6E6"/>
<path opacity="0.4" d="M361.236 89.98H556.671L557.457 81.2319H362.009L361.236 89.98Z" fill="#E6E6E6"/>
<path opacity="0.4" d="M361.236 100.03H556.671L557.457 91.2949H362.009L361.236 100.03Z" fill="#E6E6E6"/>
<path opacity="0.4" d="M361.236 110.092H556.671L557.457 101.344H362.009L361.236 110.092Z" fill="#E6E6E6"/>
<path opacity="0.4" d="M361.236 120.142H556.671L557.457 111.407H362.009L361.236 120.142Z" fill="#E6E6E6"/>
<path opacity="0.4" d="M361.236 130.204H556.671L557.457 121.456H362.009L361.236 130.204Z" fill="#E6E6E6"/>
<path opacity="0.4" d="M361.236 140.254H556.671L557.457 131.519H362.009L361.236 140.254Z" fill="#E6E6E6"/>
<path d="M106.705 204.865H147.25V158.342H106.705V204.865Z" fill="#E6E6E6"/>
<path d="M102.118 204.865H145.885V158.342H102.118V204.865Z" fill="#F5F5F5"/>
<path d="M142.225 201.195V162.002H105.789V201.195H142.225Z" fill="white"/>
<path d="M133.386 182.319V180.889C133.386 179.656 133.143 178.436 132.671 177.297C132.199 176.158 131.507 175.124 130.635 174.252C129.762 173.381 128.727 172.691 127.587 172.22C126.448 171.749 125.227 171.508 123.994 171.51C121.515 171.523 119.143 172.518 117.395 174.275C115.647 176.033 114.666 178.411 114.666 180.889V182.319C114.666 184.807 115.654 187.193 117.413 188.952C119.172 190.711 121.558 191.699 124.045 191.699C126.526 191.689 128.902 190.696 130.653 188.938C132.403 187.18 133.386 184.8 133.386 182.319Z" fill="#F5F5F5"/>
<path d="M207.829 188.193H263.5V124.058H207.829V188.193Z" fill="#E6E6E6"/>
<path d="M201.517 188.193H261.839V124.058L201.517 124.058V188.193Z" fill="#F5F5F5"/>
<path d="M256.787 183.157V129.135H206.566V183.157H256.787Z" fill="white"/>
<path d="M233.777 146.116L243.311 162.633C243.524 163.001 243.636 163.419 243.636 163.844C243.636 164.27 243.524 164.688 243.311 165.056C243.098 165.424 242.792 165.73 242.423 165.942C242.055 166.155 241.637 166.266 241.211 166.266H222.143C221.718 166.266 221.3 166.155 220.931 165.942C220.563 165.73 220.257 165.424 220.044 165.056C219.831 164.688 219.719 164.27 219.719 163.844C219.719 163.419 219.831 163.001 220.043 162.633L229.577 146.116C229.792 145.75 230.099 145.446 230.467 145.235C230.836 145.024 231.253 144.913 231.677 144.913C232.102 144.913 232.519 145.024 232.887 145.235C233.256 145.446 233.563 145.75 233.777 146.116Z" fill="#F5F5F5"/>
<path d="M115.98 421.804H146.579V325.33H115.98L115.98 421.804Z" fill="#E6E6E6"/>
<path d="M121.79 421.817H115.979V405.287H127.884L121.79 421.817Z" fill="#F0F0F0"/>
<path d="M230.324 421.804H260.923V325.33H230.324V421.804Z" fill="#E6E6E6"/>
<path d="M115.993 411.663H235.4V325.328H115.993L115.993 411.663Z" fill="#F0F0F0"/>
<path d="M120.488 330.754V391.012H173.737V330.754H120.488Z" fill="#E6E6E6"/>
<path d="M177.643 330.754V391.012H230.891V330.754H177.643Z" fill="#E6E6E6"/>
<path d="M199.002 335.378H209.528C211.789 335.385 214.027 334.932 216.107 334.046C218.187 333.16 220.065 331.86 221.626 330.225H186.84C188.408 331.869 190.296 333.174 192.387 334.06C194.479 334.947 196.73 335.395 199.002 335.378Z" fill="#F0F0F0"/>
<path d="M141.31 335.378H151.849C154.109 335.384 156.347 334.93 158.427 334.045C160.507 333.159 162.385 331.859 163.947 330.225H129.16C130.727 331.866 132.614 333.17 134.703 334.056C136.792 334.942 139.04 335.392 141.31 335.378Z" fill="#F0F0F0"/>
<path d="M229.589 421.817H235.4V405.287H223.495L229.589 421.817Z" fill="#F0F0F0"/>
<path d="M198.089 312.406C198.086 313.719 198.473 315.003 199.201 316.096C199.928 317.189 200.964 318.042 202.176 318.546C203.388 319.05 204.723 319.183 206.011 318.929C207.299 318.674 208.482 318.043 209.411 317.116C210.34 316.188 210.974 315.006 211.231 313.719C211.488 312.431 211.357 311.096 210.855 309.883C210.354 308.67 209.503 307.633 208.412 306.903C207.32 306.174 206.037 305.784 204.724 305.784C202.968 305.788 201.284 306.486 200.041 307.727C198.797 308.968 198.096 310.65 198.089 312.406Z" fill="#E0E0E0"/>
<path d="M207.726 314.726C211.383 314.726 214.348 311.761 214.348 308.104C214.348 304.446 211.383 301.481 207.726 301.481C204.068 301.481 201.104 304.446 201.104 308.104C201.104 311.761 204.068 314.726 207.726 314.726Z" fill="#E0E0E0"/>
<path d="M164.913 313.477C164.913 314.787 165.301 316.067 166.029 317.156C166.757 318.245 167.791 319.094 169.001 319.595C170.211 320.096 171.543 320.227 172.827 319.972C174.112 319.716 175.292 319.086 176.218 318.159C177.144 317.233 177.775 316.053 178.03 314.769C178.286 313.484 178.155 312.153 177.654 310.943C177.152 309.732 176.304 308.698 175.215 307.971C174.126 307.243 172.845 306.854 171.535 306.854C169.779 306.854 168.095 307.552 166.853 308.794C165.611 310.036 164.913 311.72 164.913 313.477Z" fill="#E0E0E0"/>
<path d="M216.59 317.316C221.08 317.316 224.719 313.676 224.719 309.186C224.719 304.696 221.08 301.057 216.59 301.057C212.1 301.057 208.46 304.696 208.46 309.186C208.46 313.676 212.1 317.316 216.59 317.316Z" fill="#E0E0E0"/>
<path d="M192.355 301.701C192.353 303.309 192.828 304.882 193.719 306.221C194.611 307.56 195.88 308.604 197.365 309.221C198.85 309.838 200.485 310.001 202.063 309.689C203.641 309.377 205.091 308.603 206.229 307.467C207.367 306.33 208.143 304.882 208.458 303.304C208.772 301.727 208.612 300.092 207.997 298.606C207.382 297.119 206.34 295.849 205.003 294.955C203.666 294.061 202.094 293.584 200.485 293.584C198.332 293.587 196.268 294.443 194.745 295.964C193.221 297.485 192.362 299.548 192.355 301.701Z" fill="#E0E0E0"/>
<path d="M179.472 303.775C179.469 305.383 179.944 306.957 180.836 308.295C181.727 309.634 182.996 310.678 184.481 311.295C185.967 311.912 187.602 312.075 189.18 311.763C190.757 311.451 192.207 310.677 193.345 309.541C194.484 308.405 195.259 306.956 195.574 305.379C195.889 303.801 195.728 302.166 195.113 300.68C194.499 299.194 193.457 297.923 192.119 297.029C190.782 296.135 189.21 295.658 187.601 295.658C185.447 295.658 183.382 296.513 181.857 298.035C180.333 299.557 179.475 301.621 179.472 303.775Z" fill="#E0E0E0"/>
<path d="M184.922 310.333C184.922 311.862 185.375 313.356 186.225 314.628C187.074 315.899 188.281 316.89 189.694 317.475C191.106 318.06 192.661 318.213 194.16 317.915C195.66 317.616 197.037 316.88 198.118 315.799C199.199 314.718 199.936 313.34 200.234 311.841C200.532 310.341 200.379 308.787 199.794 307.375C199.209 305.962 198.218 304.755 196.947 303.905C195.676 303.056 194.181 302.603 192.652 302.603C190.602 302.603 188.636 303.417 187.186 304.867C185.736 306.316 184.922 308.283 184.922 310.333Z" fill="#E0E0E0"/>
<path d="M171.471 309.83C171.471 311.481 171.96 313.096 172.878 314.468C173.795 315.841 175.099 316.911 176.625 317.543C178.15 318.175 179.829 318.341 181.448 318.018C183.068 317.696 184.555 316.901 185.723 315.734C186.89 314.566 187.686 313.078 188.008 311.459C188.33 309.839 188.165 308.161 187.533 306.635C186.901 305.11 185.831 303.806 184.458 302.888C183.085 301.971 181.471 301.481 179.819 301.481C177.605 301.481 175.482 302.361 173.916 303.927C172.35 305.492 171.471 307.616 171.471 309.83Z" fill="#E0E0E0"/>
<path d="M229.551 312.408C229.551 312.408 228.649 325.292 193.773 325.292C158.896 325.292 157.981 312.408 157.981 312.408H229.551Z" fill="#F0F0F0"/>
<path d="M322.097 480C460.06 480 571.901 473.47 571.901 465.416C571.901 457.361 460.06 450.831 322.097 450.831C184.133 450.831 72.292 457.361 72.292 465.416C72.292 473.47 184.133 480 322.097 480Z" fill="#F5F5F5"/>
<path d="M396.526 83.6161C395.479 80.1541 394.089 76.805 392.378 73.6183L394.955 65.1794L378.296 48.5077L369.857 51.0845C366.67 49.3732 363.321 47.9835 359.859 46.9359L355.71 39.2056H332.133L327.997 46.9359C324.534 47.9811 321.185 49.3709 317.999 51.0845L309.56 48.5077L292.889 65.1794L295.466 73.6183C293.764 76.808 292.379 80.1566 291.33 83.6161L283.535 87.7647V111.342L291.33 115.478C292.376 118.938 293.762 122.287 295.466 125.476L292.889 133.915L309.56 150.586L317.999 148.01C321.188 149.714 324.537 151.099 327.997 152.145L332.133 159.876H355.71L359.859 152.145C363.319 151.096 366.667 149.711 369.857 148.01L378.296 150.586L394.967 133.915L392.391 125.476C394.104 122.29 395.494 118.941 396.539 115.478L404.334 111.342V87.7647L396.526 83.6161ZM343.922 133.039C337.296 133.039 330.82 131.074 325.311 127.393C319.802 123.712 315.509 118.481 312.974 112.36C310.438 106.239 309.775 99.5034 311.067 93.0054C312.36 86.5075 315.55 80.5387 320.235 75.8539C324.92 71.1691 330.889 67.9788 337.387 66.6862C343.885 65.3937 350.62 66.0571 356.741 68.5925C362.862 71.1279 368.093 75.4214 371.774 80.9301C375.455 86.4388 377.42 92.9153 377.42 99.5406C377.42 108.425 373.89 116.945 367.608 123.227C361.326 129.509 352.806 133.039 343.922 133.039Z" fill="#E83D4B"/>
<path opacity="0.2" d="M396.526 83.6161C395.479 80.1541 394.089 76.805 392.378 73.6183L394.955 65.1794L378.296 48.5077L369.857 51.0845C366.67 49.3732 363.321 47.9835 359.859 46.9359L355.71 39.2056H332.133L327.997 46.9359C324.534 47.9811 321.185 49.3709 317.999 51.0845L309.56 48.5077L292.889 65.1794L295.466 73.6183C293.764 76.808 292.379 80.1566 291.33 83.6161L283.535 87.7647V111.342L291.33 115.478C292.376 118.938 293.762 122.287 295.466 125.476L292.889 133.915L309.56 150.586L317.999 148.01C321.188 149.714 324.537 151.099 327.997 152.145L332.133 159.876H355.71L359.859 152.145C363.319 151.096 366.667 149.711 369.857 148.01L378.296 150.586L394.967 133.915L392.391 125.476C394.104 122.29 395.494 118.941 396.539 115.478L404.334 111.342V87.7647L396.526 83.6161ZM343.922 133.039C337.296 133.039 330.82 131.074 325.311 127.393C319.802 123.712 315.509 118.481 312.974 112.36C310.438 106.239 309.775 99.5034 311.067 93.0054C312.36 86.5075 315.55 80.5387 320.235 75.8539C324.92 71.1691 330.889 67.9788 337.387 66.6862C343.885 65.3937 350.62 66.0571 356.741 68.5925C362.862 71.1279 368.093 75.4214 371.774 80.9301C375.455 86.4388 377.42 92.9153 377.42 99.5406C377.42 108.425 373.89 116.945 367.608 123.227C361.326 129.509 352.806 133.039 343.922 133.039Z" fill="white"/>
<path d="M343.922 88.4478C341.726 88.4478 339.579 89.0991 337.752 90.3194C335.926 91.5398 334.502 93.2743 333.662 95.3036C332.821 97.3329 332.601 99.5659 333.03 101.72C333.458 103.875 334.516 105.853 336.069 107.407C337.622 108.96 339.601 110.018 341.756 110.446C343.91 110.875 346.143 110.655 348.172 109.814C350.202 108.974 351.936 107.55 353.156 105.724C354.377 103.897 355.028 101.75 355.028 99.5536C355.028 96.6082 353.858 93.7833 351.775 91.7006C349.693 89.6178 346.868 88.4478 343.922 88.4478Z" fill="#E83D4B"/>
<path d="M564.314 121.018C562.817 116.069 560.836 111.279 558.4 106.717L562.085 94.658L538.288 70.8615L526.216 74.5592C521.671 72.0956 516.883 70.1095 511.928 68.6326L506.014 57.501H472.323L466.397 68.6326C461.444 70.1142 456.656 72.1001 452.108 74.5592L440.049 70.8615L416.227 94.6837L419.912 106.743C417.465 111.299 415.484 116.091 413.998 121.044L402.854 126.958V160.649L413.985 166.576C415.469 171.526 417.45 176.313 419.899 180.864L416.214 192.91L440.036 216.732L452.096 213.048C456.648 215.499 461.44 217.476 466.397 218.948L472.323 230.093H506.014L511.928 218.961C516.879 217.473 521.666 215.487 526.216 213.035L538.288 216.719L562.111 192.897L558.426 180.838C560.855 176.281 562.827 171.495 564.314 166.55L575.445 160.623V126.932L564.314 121.018ZM489.162 204.853C477.081 204.853 465.272 201.271 455.227 194.559C445.182 187.847 437.353 178.308 432.73 167.146C428.107 155.985 426.897 143.703 429.254 131.855C431.611 120.006 437.428 109.122 445.971 100.579C454.513 92.0369 465.397 86.2194 477.246 83.8626C489.095 81.5057 501.376 82.7153 512.537 87.3385C523.699 91.9617 533.239 99.7907 539.95 109.836C546.662 119.881 550.245 131.69 550.245 143.771C550.245 151.793 548.665 159.735 545.595 167.146C542.525 174.557 538.026 181.291 532.354 186.963C526.682 192.635 519.948 197.134 512.537 200.204C505.127 203.273 497.184 204.853 489.162 204.853Z" fill="#E83D4B"/>
<path d="M489.161 91.2563C478.773 91.2589 468.618 94.3417 459.982 100.115C451.345 105.888 444.615 114.093 440.641 123.691C436.668 133.29 435.629 143.851 437.657 154.039C439.686 164.228 444.689 173.586 452.036 180.931C459.383 188.276 468.742 193.277 478.931 195.303C489.12 197.328 499.681 196.288 509.278 192.311C518.876 188.335 527.078 181.603 532.85 172.965C538.621 164.327 541.701 154.172 541.701 143.784C541.684 129.856 536.143 116.503 526.293 106.656C516.443 96.8081 503.089 91.27 489.161 91.2563ZM489.161 189.315C480.155 189.318 471.351 186.65 463.862 181.648C456.372 176.647 450.534 169.536 447.086 161.217C443.638 152.897 442.735 143.742 444.49 134.909C446.245 126.076 450.581 117.962 456.948 111.593C463.315 105.224 471.428 100.886 480.261 99.1281C489.093 97.3702 498.249 98.2711 506.569 101.717C514.89 105.163 522.002 110.999 527.005 118.486C532.009 125.974 534.68 134.778 534.68 143.784C534.666 155.853 529.866 167.424 521.333 175.96C512.8 184.495 501.23 189.298 489.161 189.315Z" fill="#E83D4B"/>
<path opacity="0.2" d="M489.161 91.2563C478.773 91.2589 468.618 94.3417 459.982 100.115C451.345 105.888 444.615 114.093 440.641 123.691C436.668 133.29 435.629 143.851 437.657 154.039C439.686 164.228 444.689 173.586 452.036 180.931C459.383 188.276 468.742 193.277 478.931 195.303C489.12 197.328 499.681 196.288 509.278 192.311C518.876 188.335 527.078 181.603 532.85 172.965C538.621 164.327 541.701 154.172 541.701 143.784C541.684 129.856 536.143 116.503 526.293 106.656C516.443 96.8081 503.089 91.27 489.161 91.2563ZM489.161 189.315C480.155 189.318 471.351 186.65 463.862 181.648C456.372 176.647 450.534 169.536 447.086 161.217C443.638 152.897 442.735 143.742 444.49 134.909C446.245 126.076 450.581 117.962 456.948 111.593C463.315 105.224 471.428 100.886 480.261 99.1281C489.093 97.3702 498.249 98.2711 506.569 101.717C514.89 105.163 522.002 110.999 527.005 118.486C532.009 125.974 534.68 134.778 534.68 143.784C534.666 155.853 529.866 167.424 521.333 175.96C512.8 184.495 501.23 189.298 489.161 189.315Z" fill="black"/>
<path d="M368.478 233.404C368.136 233.404 367.808 233.268 367.567 233.026C367.325 232.785 367.189 232.457 367.189 232.115V229.538C367.189 229.197 367.325 228.869 367.567 228.627C367.808 228.386 368.136 228.25 368.478 228.25C368.82 228.25 369.147 228.386 369.389 228.627C369.63 228.869 369.766 229.197 369.766 229.538V232.115C369.766 232.457 369.63 232.785 369.389 233.026C369.147 233.268 368.82 233.404 368.478 233.404Z" fill="#E83D4B"/>
<path d="M348.418 200.112C347.236 199.352 346.31 198.252 345.764 196.956C345.629 196.641 345.375 196.394 345.057 196.267C344.74 196.14 344.384 196.144 344.07 196.279C343.756 196.414 343.508 196.669 343.381 196.986C343.254 197.304 343.259 197.659 343.394 197.974C344.15 199.733 345.41 201.23 347.014 202.277C347.221 202.411 347.463 202.482 347.71 202.483C347.989 202.485 348.261 202.397 348.485 202.231C348.709 202.065 348.874 201.831 348.954 201.564C349.034 201.296 349.025 201.01 348.928 200.749C348.832 200.487 348.653 200.264 348.418 200.112Z" fill="#E83D4B"/>
<path d="M343.921 184.02C344.263 184.02 344.591 183.884 344.832 183.643C345.074 183.401 345.21 183.073 345.21 182.732V177.797C345.21 177.455 345.074 177.128 344.832 176.886C344.591 176.645 344.263 176.509 343.921 176.509C343.579 176.509 343.252 176.645 343.01 176.886C342.769 177.128 342.633 177.455 342.633 177.797V182.732C342.633 183.073 342.769 183.401 343.01 183.643C343.252 183.884 343.579 184.02 343.921 184.02Z" fill="#E83D4B"/>
<path d="M357.334 201.245H352.387C352.045 201.245 351.718 201.381 351.476 201.622C351.234 201.864 351.099 202.192 351.099 202.534C351.099 202.875 351.234 203.203 351.476 203.445C351.718 203.686 352.045 203.822 352.387 203.822H357.334C357.676 203.822 358.004 203.686 358.245 203.445C358.487 203.203 358.623 202.875 358.623 202.534C358.623 202.192 358.487 201.864 358.245 201.622C358.004 201.381 357.676 201.245 357.334 201.245Z" fill="#E83D4B"/>
<path d="M345.21 192.614V187.679C345.21 187.337 345.074 187.01 344.832 186.768C344.591 186.526 344.263 186.391 343.921 186.391C343.579 186.391 343.252 186.526 343.01 186.768C342.769 187.01 342.633 187.337 342.633 187.679V192.614C342.633 192.955 342.769 193.283 343.01 193.525C343.252 193.766 343.579 193.902 343.921 193.902C344.263 193.902 344.591 193.766 344.832 193.525C345.074 193.283 345.21 192.955 345.21 192.614Z" fill="#E83D4B"/>
<path d="M369.69 209.621C369.645 209.283 369.468 208.976 369.197 208.768C368.927 208.561 368.585 208.469 368.247 208.513C368.079 208.541 367.918 208.602 367.774 208.692C367.63 208.783 367.505 208.901 367.407 209.04C367.309 209.179 367.239 209.336 367.202 209.502C367.165 209.668 367.161 209.84 367.19 210.007C367.232 210.306 367.253 210.607 367.255 210.909V214.774C367.255 215.116 367.391 215.444 367.632 215.685C367.874 215.927 368.202 216.063 368.543 216.063C368.885 216.063 369.213 215.927 369.454 215.685C369.696 215.444 369.832 215.116 369.832 214.774V210.909C369.812 210.477 369.765 210.047 369.69 209.621Z" fill="#E83D4B"/>
<path d="M368.478 218.368C368.136 218.368 367.808 218.504 367.567 218.746C367.325 218.987 367.189 219.315 367.189 219.657V224.604C367.189 224.946 367.325 225.273 367.567 225.515C367.808 225.757 368.136 225.892 368.478 225.892C368.82 225.892 369.147 225.757 369.389 225.515C369.63 225.273 369.766 224.946 369.766 224.604V219.657C369.766 219.315 369.63 218.987 369.389 218.746C369.147 218.504 368.82 218.368 368.478 218.368Z" fill="#E83D4B"/>
<path d="M367.357 204.506C366.096 203.065 364.431 202.037 362.578 201.555C362.413 201.513 362.243 201.504 362.075 201.527C361.907 201.551 361.745 201.608 361.599 201.694C361.454 201.78 361.326 201.894 361.224 202.029C361.122 202.165 361.048 202.319 361.006 202.483C360.963 202.647 360.954 202.818 360.978 202.986C361.001 203.154 361.058 203.315 361.144 203.461C361.23 203.607 361.344 203.735 361.48 203.837C361.615 203.938 361.769 204.013 361.933 204.055C363.287 204.404 364.504 205.154 365.425 206.207C365.546 206.344 365.694 206.454 365.861 206.53C366.027 206.605 366.208 206.644 366.391 206.645C366.639 206.644 366.881 206.573 367.089 206.438C367.297 206.304 367.462 206.112 367.564 205.887C367.666 205.661 367.7 205.411 367.664 205.166C367.627 204.921 367.521 204.692 367.357 204.506Z" fill="#E83D4B"/>
<path d="M343.921 174.086C343.579 174.086 343.252 173.95 343.01 173.709C342.769 173.467 342.633 173.139 342.633 172.798V170.221C342.633 169.879 342.769 169.552 343.01 169.31C343.252 169.068 343.579 168.933 343.921 168.933C344.263 168.933 344.591 169.068 344.832 169.31C345.074 169.552 345.21 169.879 345.21 170.221V172.798C345.21 173.139 345.074 173.467 344.832 173.709C344.591 173.95 344.263 174.086 343.921 174.086Z" fill="#E83D4B"/>
<path d="M429.509 298.273H131.196V303.053H429.509V298.273Z" fill="#E83D4B"/>
<path d="M429.509 303.054H494.237V298.274H429.509V303.054Z" fill="#E83D4B"/>
<path opacity="0.2" d="M429.509 303.054H494.237V298.274H429.509V303.054Z" fill="black"/>
<path d="M472.619 308.169H152.817L142.123 303.054H483.313L472.619 308.169Z" fill="#E83D4B"/>
<path opacity="0.6" d="M472.619 308.169H152.817L142.123 303.054H483.313L472.619 308.169Z" fill="white"/>
<path d="M162.479 308.168V460.635H166.576L171.729 308.168H162.479Z" fill="#E83D4B"/>
<path d="M210.845 308.168V460.635H214.942L220.095 308.168H210.845Z" fill="#E83D4B"/>
<path d="M472.619 308.168V460.635H468.535L463.368 308.168H472.619Z" fill="#E83D4B"/>
<path d="M424.264 308.168V460.635H420.167L415.014 308.168H424.264Z" fill="#E83D4B"/>
<path d="M326.914 240.399L313.451 295.246L313.077 298.274H405.944L406.33 295.246L419.781 240.399H326.914Z" fill="#E83D4B"/>
<path opacity="0.3" d="M326.914 240.399L313.451 295.246L313.077 298.274H405.944L406.33 295.246L419.781 240.399H326.914Z" fill="black"/>
<path d="M416.934 240.399H324.054L310.604 295.246H403.47L416.934 240.399Z" fill="#E83D4B"/>
<path d="M401.499 292.734L413.739 242.912H326.026L313.799 292.734H401.499Z" fill="white"/>
<path d="M379.273 295.245L378.887 298.273H276.628L277.002 295.245H379.273Z" fill="#E83D4B"/>
<path opacity="0.6" d="M379.273 295.245L378.887 298.273H276.628L277.002 295.245H379.273Z" fill="white"/>
<path d="M186.094 288.301C186.029 286.338 185.261 284.465 183.929 283.022C182.598 281.579 180.792 280.663 178.841 280.442V278.96C178.839 278.874 178.82 278.79 178.785 278.711C178.751 278.633 178.701 278.562 178.638 278.503C178.576 278.445 178.502 278.399 178.422 278.369C178.342 278.339 178.256 278.325 178.171 278.329H164.256C164.17 278.325 164.084 278.339 164.003 278.369C163.922 278.399 163.847 278.444 163.784 278.503C163.72 278.561 163.669 278.632 163.633 278.71C163.597 278.789 163.577 278.874 163.573 278.96V298.286H178.841V296.173C180.795 295.953 182.604 295.037 183.937 293.59C185.269 292.144 186.035 290.266 186.094 288.301ZM178.841 293.673V282.941C180.128 283.131 181.305 283.777 182.155 284.762C183.006 285.748 183.474 287.006 183.474 288.307C183.474 289.609 183.006 290.867 182.155 291.852C181.305 292.837 180.128 293.484 178.841 293.673Z" fill="#E83D4B"/>
<path d="M446.503 298.274H459.438L455.612 269.942H446.503V298.274Z" fill="#263238"/>
<path d="M427.536 298.273H452.041L456.589 265.11H432.097L427.536 298.273Z" fill="#E83D4B"/>
<path opacity="0.3" d="M427.536 298.273H452.041L456.589 265.11H432.097L427.536 298.273Z" fill="black"/>
<path d="M424.265 298.273H449.762L454.323 265.11H428.826L424.265 298.273Z" fill="#E83D4B"/>
<path opacity="0.4" d="M447.507 295.659L451.347 267.727H431.081L427.241 295.659H447.507Z" fill="white"/>
<path d="M254.507 249.315L253.451 250.449L252.317 251.737C251.557 252.614 250.797 253.502 250.075 254.417C248.632 256.247 247.241 258.115 245.94 260.035C243.351 263.747 241.19 267.741 239.498 271.939C238.71 273.935 238.098 275.996 237.668 278.098C237.462 279.283 237.333 279.798 237.269 280.301C237.198 280.701 237.198 281.111 237.269 281.512C237.485 282.142 237.824 282.722 238.266 283.22C238.709 283.718 239.246 284.122 239.846 284.411C240.715 284.947 241.629 285.408 242.577 285.789C243.075 285.996 243.591 286.189 244.123 286.369C244.613 286.55 245.231 286.73 245.618 286.885V293.983C244.716 294.112 244.059 294.215 243.299 294.267C242.538 294.318 241.804 294.331 241.044 294.267C239.481 294.235 237.926 294.037 236.406 293.674C234.693 293.272 233.05 292.612 231.536 291.716C229.754 290.674 228.224 289.253 227.052 287.554C225.846 285.746 225.046 283.698 224.707 281.551C224.621 281.048 224.565 280.54 224.54 280.03C224.514 279.541 224.514 279.051 224.54 278.562V277.84C224.525 277.647 224.525 277.453 224.54 277.26L224.643 276.127C224.972 273.182 225.594 270.277 226.498 267.456C228.243 262.036 230.699 256.872 233.803 252.098C235.294 249.754 236.916 247.496 238.66 245.334C239.524 244.252 240.413 243.195 241.34 242.152C241.791 241.624 242.268 241.108 242.757 240.593C243.247 240.078 243.698 239.627 244.368 238.982L254.507 249.315Z" fill="#B55B52"/>
<path d="M243.054 286.73L249.058 282.324L252.472 294.667C252.472 294.667 247.151 296.638 243.092 293.984L243.054 286.73Z" fill="#B55B52"/>
<path d="M257.393 279.36L259.738 289.693L252.472 294.666L249.058 282.324L257.393 279.36Z" fill="#B55B52"/>
<path d="M295.362 201.954C295.091 202.714 295.284 203.474 295.787 203.642C296.289 203.809 296.908 203.346 297.166 202.585C297.423 201.825 297.243 201.052 296.753 200.885C296.264 200.717 295.632 201.181 295.362 201.954Z" fill="#263238"/>
<path d="M295.221 203.449C295.321 206.103 295.785 208.73 296.6 211.257C295.951 211.443 295.269 211.486 294.602 211.384C293.935 211.282 293.298 211.036 292.734 210.664L295.221 203.449Z" fill="#A02724"/>
<path d="M294.125 196.775C294.222 196.807 294.326 196.807 294.422 196.775C294.987 196.586 295.589 196.535 296.178 196.624C296.767 196.714 297.327 196.942 297.81 197.29C297.907 197.361 298.027 197.392 298.146 197.378C298.265 197.364 298.374 197.306 298.452 197.215C298.53 197.124 298.571 197.007 298.566 196.887C298.562 196.768 298.513 196.654 298.429 196.569C297.824 196.118 297.12 195.819 296.376 195.695C295.632 195.572 294.869 195.629 294.151 195.86C294.057 195.892 293.976 195.953 293.918 196.034C293.86 196.115 293.829 196.212 293.829 196.311C293.829 196.411 293.86 196.507 293.918 196.588C293.976 196.669 294.057 196.73 294.151 196.762L294.125 196.775Z" fill="#263238"/>
<path d="M267.107 204.763C268.55 212.094 269.98 225.531 264.853 230.427C264.853 230.427 266.862 237.861 280.494 237.861C295.477 237.861 287.657 230.427 287.657 230.427C279.476 228.469 279.682 222.401 281.112 216.706L267.107 204.763Z" fill="#B55B52"/>
<path d="M262.894 232.978C261.812 230.62 260.64 227.928 263.075 227.09C265.768 226.162 280.507 225.209 285.583 226.948C286.254 227.131 286.882 227.446 287.43 227.874C287.978 228.302 288.435 228.835 288.775 229.442C289.114 230.049 289.329 230.718 289.407 231.409C289.485 232.1 289.425 232.8 289.229 233.468L262.894 232.978Z" fill="#263238"/>
<path d="M314.366 245.553C317.523 251.235 320.911 257.084 324.338 262.701C327.766 268.318 331.36 273.91 335.2 279.012C336.153 280.3 337.145 281.524 338.124 282.748C338.614 283.38 339.129 283.895 339.632 284.475L340.379 285.325L340.572 285.544L340.662 285.647L340.752 285.763C341.353 286.344 342.074 286.784 342.865 287.052C344.083 287.475 345.339 287.782 346.615 287.966C352.877 288.599 359.191 288.525 365.438 287.747L367.396 294.576C365.657 295.349 364.034 295.864 362.307 296.508C360.581 297.153 358.88 297.578 357.154 298.016C353.494 298.934 349.743 299.435 345.97 299.51C343.853 299.544 341.739 299.333 339.67 298.879C337.131 298.375 334.736 297.309 332.661 295.761L331.798 295.052L331.592 294.872L331.463 294.743L331.218 294.498L330.213 293.506C329.556 292.849 328.835 292.218 328.242 291.522C326.954 290.169 325.743 288.817 324.622 287.425C320.121 281.986 315.968 276.267 312.189 270.303C310.308 267.365 308.496 264.398 306.752 261.4C305 258.372 303.312 255.409 301.676 252.214L314.366 245.553Z" fill="#B55B52"/>
<path d="M246.906 232.695C237.5 234.847 226.729 260.473 226.729 260.473L245.604 273.357C250.299 266.625 254.464 259.539 258.063 252.163C263.642 240.49 256.517 230.492 246.906 232.695Z" fill="#E83D4B"/>
<path opacity="0.2" d="M253.631 249.032L244.716 272.79L245.592 273.408C245.592 273.408 249.457 267.984 253.631 260.666V249.032Z" fill="black"/>
<path d="M303.079 233.198C303.079 233.198 313.747 245.257 303.671 319.854H250.036C249.675 311.621 254.842 271.475 246.905 232.682C252.833 231.541 258.828 230.783 264.852 230.415C272.447 229.97 280.062 229.97 287.657 230.415C292.862 230.939 298.019 231.869 303.079 233.198Z" fill="#E83D4B"/>
<path opacity="0.2" d="M297.114 254.777C298.514 263.244 302.172 271.176 307.705 277.736C307.924 272.931 308.014 268.615 308.001 264.762L297.114 254.777Z" fill="black"/>
<path d="M292.464 241.341C291.176 250.836 309.857 275.083 309.857 275.083L328.655 262.2C328.655 262.2 323.437 248.839 314.663 240.078C304.665 230.029 293.933 231.008 292.464 241.341Z" fill="#E83D4B"/>
<path d="M363.323 287.812L370.976 284.668L378.848 290.62C378.848 290.62 371.337 297.268 364.509 294.679L363.323 287.812Z" fill="#B55B52"/>
<path d="M376.028 284.358L381.8 288.481L378.81 290.62L370.938 284.668L376.028 284.358Z" fill="#B55B52"/>
<path d="M270.445 191.466C267.765 201.052 265.704 206.528 268.77 212.982C273.369 222.71 286.447 222.439 291.961 213.859C296.908 206.128 300.464 191.75 292.579 184.831C290.848 183.294 288.753 182.224 286.492 181.724C284.231 181.225 281.88 181.311 279.662 181.976C277.444 182.641 275.433 183.862 273.819 185.523C272.206 187.184 271.045 189.23 270.445 191.466Z" fill="#B55B52"/>
<path d="M290.852 191.57C286.987 202.573 282.439 214.658 271.333 212.364C264.17 210.883 263.603 199.352 261.026 194.108C258.746 189.508 258.887 180.258 263.603 180.142C261.49 177.076 272.171 165.854 279.463 171.78C281.331 169.204 294.795 161.615 304.767 173.661C314.159 185.051 309.559 194.546 290.852 191.57Z" fill="#263238"/>
<path d="M282.156 198.604C281.898 201.062 282.45 203.536 283.728 205.651C285.441 208.408 287.953 207.352 288.881 204.53C289.706 201.954 289.796 197.509 287.412 195.718C285.029 193.927 282.517 195.641 282.156 198.604Z" fill="#B55B52"/>
<path d="M364.458 453.357C365.746 453.357 367.035 453.176 367.408 452.596C367.515 452.443 367.572 452.261 367.572 452.075C367.572 451.888 367.515 451.706 367.408 451.553C367.237 451.282 366.971 451.084 366.661 450.999C364.986 450.548 361.508 452.545 361.34 452.635C361.296 452.657 361.261 452.693 361.24 452.737C361.219 452.782 361.213 452.832 361.224 452.88C361.233 452.926 361.254 452.969 361.286 453.003C361.318 453.037 361.359 453.062 361.405 453.073C362.412 453.257 363.434 453.352 364.458 453.357ZM366.056 451.411C366.205 451.39 366.357 451.39 366.507 451.411C366.604 451.429 366.696 451.469 366.776 451.527C366.856 451.585 366.923 451.659 366.97 451.746C367.138 452.042 367.086 452.184 366.97 452.261C366.507 452.919 363.968 452.931 362.1 452.661C363.325 451.992 364.669 451.567 366.056 451.411Z" fill="#E83D4B"/>
<path d="M361.429 453.073H361.532C362.744 452.532 365.14 450.367 364.947 449.208C364.947 448.937 364.715 448.615 364.071 448.538C363.839 448.518 363.606 448.544 363.385 448.615C363.164 448.685 362.959 448.799 362.782 448.95C361.494 449.994 361.236 452.699 361.223 452.815C361.219 452.856 361.224 452.898 361.24 452.936C361.256 452.975 361.281 453.008 361.313 453.034C361.349 453.055 361.389 453.068 361.429 453.073ZM363.877 449.015H364.019C364.444 449.015 364.47 449.234 364.483 449.285C364.599 449.968 362.963 451.669 361.726 452.403C361.828 451.269 362.278 450.193 363.014 449.324C363.254 449.118 363.561 449.008 363.877 449.015Z" fill="#E83D4B"/>
<path d="M349.771 452.841H359.794L362.075 429.611H352.051L349.771 452.841Z" fill="#B55B52"/>
<path d="M360.361 451.682H349.423C349.221 451.683 349.026 451.752 348.869 451.878C348.712 452.005 348.603 452.181 348.559 452.377L346.575 461.241C346.524 461.457 346.523 461.682 346.572 461.899C346.621 462.115 346.719 462.317 346.858 462.49C346.998 462.663 347.174 462.802 347.375 462.896C347.577 462.99 347.796 463.036 348.018 463.032C351.961 462.968 357.668 462.736 362.628 462.736C368.439 462.736 373.451 463.045 380.254 463.045C384.376 463.045 385.523 458.884 383.797 458.51C375.95 456.797 369.547 456.616 362.77 452.429C362.051 451.963 361.218 451.704 360.361 451.682Z" fill="#263238"/>
<path opacity="0.2" d="M362.061 429.624L360.902 441.593H350.865L352.038 429.624H362.061Z" fill="black"/>
<path d="M324.274 453.344C324.699 453.4 325.131 453.371 325.545 453.258C325.958 453.145 326.345 452.951 326.683 452.687C326.802 452.524 326.866 452.328 326.866 452.127C326.866 451.925 326.802 451.729 326.683 451.566C326.607 451.425 326.501 451.302 326.372 451.206C326.242 451.11 326.094 451.044 325.936 451.012C324.467 450.664 321.697 452.558 321.581 452.636C321.545 452.664 321.516 452.702 321.498 452.745C321.48 452.787 321.473 452.834 321.478 452.881C321.487 452.925 321.509 452.966 321.541 452.998C321.574 453.03 321.614 453.052 321.659 453.061C322.518 453.248 323.395 453.343 324.274 453.344ZM325.563 451.438C325.657 451.424 325.752 451.424 325.846 451.438C325.938 451.451 326.026 451.486 326.102 451.54C326.178 451.593 326.24 451.664 326.284 451.747C326.503 452.146 326.374 452.301 326.284 452.365C325.859 452.919 323.81 452.932 322.303 452.687C323.272 452.031 324.378 451.604 325.537 451.438H325.563Z" fill="#E83D4B"/>
<path d="M321.722 453.073H321.825C322.869 452.506 324.879 450.316 324.66 449.208C324.627 449.031 324.533 448.871 324.394 448.755C324.255 448.64 324.08 448.577 323.9 448.577C323.72 448.555 323.537 448.571 323.364 448.624C323.191 448.678 323.031 448.767 322.895 448.886C321.735 449.84 321.49 452.751 321.478 452.854C321.477 452.898 321.487 452.94 321.507 452.979C321.528 453.017 321.557 453.05 321.594 453.073C321.635 453.086 321.68 453.086 321.722 453.073ZM323.745 449.015H323.848C324.157 449.015 324.183 449.195 324.196 449.26C324.325 449.917 323.036 451.579 322.006 452.365C322.075 451.221 322.488 450.126 323.191 449.221C323.345 449.088 323.542 449.015 323.745 449.015Z" fill="#E83D4B"/>
<path d="M310.229 452.841H320.253L325.291 429.611H315.267L310.229 452.841Z" fill="#B55B52"/>
<path d="M320.963 451.682H309.702C309.502 451.684 309.309 451.754 309.154 451.88C309 452.007 308.893 452.182 308.852 452.378L306.868 461.242C306.821 461.46 306.824 461.685 306.877 461.901C306.929 462.117 307.03 462.319 307.171 462.491C307.312 462.663 307.49 462.801 307.692 462.895C307.894 462.989 308.114 463.036 308.336 463.033C312.266 462.969 314.186 462.737 319.133 462.737C322.186 462.737 326.09 463.046 330.303 463.046C334.516 463.046 335.057 458.884 333.331 458.511C325.601 456.823 325.072 454.491 322.599 452.262C322.143 451.875 321.56 451.669 320.963 451.682Z" fill="#263238"/>
<g opacity="0.2">
<path opacity="0.2" d="M315.268 429.624H325.291L322.689 441.593H312.665L315.268 429.624Z" fill="black"/>
</g>
<path d="M303.672 319.867C303.672 319.867 378.785 327.817 377.96 366.133C377.428 390.197 372.801 413.994 364.277 436.505H349.384C349.384 436.505 350.144 412.193 349.641 372.961C349.487 361.199 325.742 357.321 302.538 355.955C292.712 355.337 283.254 351.985 275.232 346.278C267.209 340.571 260.941 332.735 257.135 323.655L255.551 319.867H303.672Z" fill="#263238"/>
<path d="M367.924 432.511C368.001 432.511 366.957 439.558 366.957 439.558H346.343L345.776 433.271L367.924 432.511Z" fill="#E83D4B"/>
<path d="M287.593 319.867C287.593 319.867 342.04 337.905 343.418 360.271C345.995 401.422 325.755 436.505 325.755 436.505H310.719C310.719 436.505 316.427 419.111 318.449 381.826C321.026 334.993 233.635 381.748 250.011 319.867H287.593Z" fill="#263238"/>
<path d="M330.303 432.511C330.38 432.511 328.409 439.558 328.409 439.558H307.795L308.169 433.271L330.303 432.511Z" fill="#E83D4B"/>
<path d="M326.863 359.318H243.118C243.118 356.782 244.125 354.351 245.918 352.558C247.711 350.765 250.143 349.758 252.678 349.758H317.303C319.839 349.758 322.27 350.765 324.063 352.558C325.856 354.351 326.863 356.782 326.863 359.318Z" fill="#E83D4B"/>
<path d="M246.996 359.305L234.37 465.158H237.076L253.09 359.305H246.996Z" fill="#E83D4B"/>
<path opacity="0.4" d="M246.996 359.305L234.37 465.158H237.076L253.09 359.305H246.996Z" fill="black"/>
<path d="M263.887 359.305L263.643 465.158H266.335L269.981 359.305H263.887Z" fill="#E83D4B"/>
<path opacity="0.4" d="M263.887 359.305L263.643 465.158H266.335L269.981 359.305H263.887Z" fill="black"/>
<path d="M322.985 359.305L335.612 465.158H332.906L316.904 359.305H322.985Z" fill="#E83D4B"/>
<path opacity="0.4" d="M322.985 359.305L335.612 465.158H332.906L316.904 359.305H322.985Z" fill="black"/>
<path d="M306.095 359.305L306.34 465.158H303.647L300.001 359.305H306.095Z" fill="#E83D4B"/>
<path opacity="0.4" d="M306.095 359.305L306.34 465.158H303.647L300.001 359.305H306.095Z" fill="black"/>
</svg>
