<?xml version="1.0" encoding="utf-8"?>
<!-- Generator: Adobe Illustrator 22.0.0, SVG Export Plug-In . SVG Version: 6.00 Build 0)  -->
<svg version="1.1" xmlns="http://www.w3.org/2000/svg" xmlns:xlink="http://www.w3.org/1999/xlink" x="0px" y="0px"
	 viewBox="0 0 500 500" style="enable-background:new 0 0 500 500;" xml:space="preserve">
<style type="text/css">
	.st0{opacity:0.74;}
	.st1{opacity:0.23;clip-path:url(#XMLID_3_);fill-rule:evenodd;clip-rule:evenodd;fill:#FF597D;}
	.st2{fill:#E83D4B;}
	.st3{clip-path:url(#SVGID_2_);}
	.st4{fill:#878787;}
	.st5{clip-path:url(#SVGID_2_);fill:#878787;stroke:#FFFFFF;stroke-width:0.5;stroke-miterlimit:10;}
	.st6{fill:#85878E;}
	.st7{clip-path:url(#SVGID_4_);}
	.st8{clip-path:url(#SVGID_4_);fill:#85878E;stroke:#FFFFFF;stroke-width:0.5;stroke-miterlimit:10;}
	.st9{opacity:0.23;fill:#FF597D;}
	.st10{fill:#292929;}
	.st11{fill:#EDF1FF;}
	.st12{opacity:0.2;fill:#292929;}
	.st13{fill:#E85B5B;}
	.st14{fill:#AA1D2F;}
	.st15{fill:#FF597D;}
	.st16{fill:#FFFFFF;}
	.st17{fill-rule:evenodd;clip-rule:evenodd;fill:#FFFFFF;}
	.st18{fill-rule:evenodd;clip-rule:evenodd;fill:#85878E;}
	.st19{fill:#282828;}
	.st20{fill:url(#SVGID_5_);}
	.st21{fill:#18283B;}
	.st22{fill:#AFAFAF;}
</style>
<g id="BACKGROUND">
	<g id="XMLID_90_" class="st0">
		<defs>
			<rect id="XMLID_88_" class="st0" width="500" height="500"/>
		</defs>
		<clipPath id="XMLID_3_">
			<use xlink:href="#XMLID_88_"  style="overflow:visible;"/>
		</clipPath>
		<path id="XMLID_76_" class="st1" d="M403.5,176.3c0,0-7.9-72.7-67.2-102.9c-71.8-36.6-90,70.4-166.3,56.5
			c-76.3-13.8-155.3,150.9-26.6,246.2C272,471.5,433.5,388.6,403.5,176.3z"/>
	</g>
</g>
<g id="OBJECTS">
	<g>
		<g>
			<path class="st2" d="M355.7,220.3c0.2-1,1-1.7,1.9-1.9c-0.7-0.6-1.1-1.6-0.9-2.5c0.3-1.4,1.7-2.2,3.1-1.9c0.1,0,0.4,0.1,0.4,0.1
				l6,1.5c0,0-0.1-5.7,1-8.5c1.1-2.8,5.3-3.2,4.7,0.1c-0.7,3.3-0.5,4.4,1.4,7.8c1.2,2.2,1.8,3.9,2,4.7c0.1,0.4,0.1,0.9,0,1.3
				l-2.7,12.3c-0.1,0.7-0.8,1.1-1.5,0.9l-14.7-3.3c0,0-0.3-0.1-0.4-0.1c-1.4-0.3-2.4-1.6-2-2.9c0.3-1.1,1.8-1.2,1.8-1.2
				s-1.6-0.6-1.3-2.2c0.3-1.5,1.4-1.7,2-1.6C355.8,222.2,355.5,221.3,355.7,220.3z"/>
			<path class="st2" d="M378.9,220.8l5.3,1.2c0.9,0.2,1.4,1.1,1.2,1.9l-3.1,13.9c-0.2,0.9-1.1,1.4-1.9,1.2l-5.3-1.2
				c-0.9-0.2-1.4-1.1-1.2-1.9L377,222C377.2,221.1,378,220.6,378.9,220.8z"/>
		</g>
	</g>
	<g>
		<defs>
			<path id="SVGID_1_" d="M325.6,373.8c4.9-14.7,18.1-24.9,31.6-32.6c13.5-7.6,28.1-13.8,39.3-24.4c9.2-8.7,15.7-20.1,18.5-32.4
				c2.4-10.5,1.2-23.4-7.8-29.4c-5.5-3.7-12.7-3.9-19-1.8c-6.3,2.1-11.7,6.1-16.6,10.5c-29.5,26.3-44.4,64.9-58.3,101.9
				c-1.1,3-2.2,6.1-1.8,9.2c0.4,3.1,2.9,6.3,6.1,6.2c3.2,0,5.5-4.6,3.1-6.7"/>
		</defs>
		<use xlink:href="#SVGID_1_"  style="overflow:visible;fill:#878787;"/>
		<clipPath id="SVGID_2_">
			<use xlink:href="#SVGID_1_"  style="overflow:visible;"/>
		</clipPath>
		<g class="st3">
			<path class="st4" d="M325.6,373.8c4.9-14.7,18.1-24.9,31.6-32.6c13.5-7.6,28.1-13.8,39.3-24.4c9.2-8.7,15.7-20.1,18.5-32.4
				c2.4-10.5,1.2-23.4-7.8-29.4c-5.5-3.7-12.7-3.9-19-1.8c-6.3,2.1-11.7,6.1-16.6,10.5c-29.5,26.3-44.4,64.9-58.3,101.9
				c-1.1,3-2.2,6.1-1.8,9.2c0.4,3.1,2.9,6.3,6.1,6.2c3.2,0,5.5-4.6,3.1-6.7"/>
		</g>
		<path class="st5" d="M419.2,249.2c0,0-56.1,35.5-109.5,143.1"/>
		<path class="st5" d="M388.1,276.2c0,0-1.7-24.6,1.9-36.9"/>
		<path class="st5" d="M381.2,284.6c0,0,33.1,10.5,50.5,3.2"/>
		<path class="st5" d="M394.1,271c0,0,33.1,3.7,43.7-5.3"/>
		<path class="st5" d="M374.4,291c0,0-10.7-21.6-11-36.5"/>
		<path class="st5" d="M366,301.8c0,0,44,16.8,59.4,2.1"/>
		<path class="st5" d="M359.9,309.8c0,0-19.2-26.5-17.8-42.5"/>
		<path class="st5" d="M355.5,316.8c0,0,30,15.5,40.2,13.4"/>
		<path class="st5" d="M349.4,323.7c0,0-23.4-17.1-26.7-29.4"/>
		<path class="st5" d="M344,333.4c0,0,27.5,16.6,48.2,13.9"/>
		<path class="st5" d="M337,342.6c0,0-27.8-19-31.1-30.1"/>
	</g>
	<g>
		<path class="st6" d="M345.3,379.6c2.5-9.7,11-17,20.2-20.9c9.2-4,19.3-5.3,29.2-7.3s19.9-5,27.5-11.5c3.3-2.9,6.2-6.5,7-10.9
			c0.8-4.3-1.1-9.3-5.1-11.1c-6.3-2.9-13,2.9-17.8,8c-11.8,12.3-25.3,23-40,31.5"/>
	</g>
	<g>
		<defs>
			<path id="SVGID_3_" d="M218.8,417c-8.4-16.1-25.7-25.6-42.8-32c-17.1-6.4-35.2-10.8-50.2-21.1c-12.3-8.4-22-20.5-27.5-34.3
				c-4.7-11.8-5.7-27,3.6-35.7c5.7-5.3,14.1-6.9,21.8-5.6c7.7,1.2,14.7,4.9,21.2,9.1c39.2,25.1,63.7,67.1,86.7,107.6
				c1.8,3.2,3.7,6.6,3.9,10.4c0.1,3.7-2.2,7.8-5.9,8.4c-3.7,0.5-7.2-4.4-4.8-7.2"/>
		</defs>
		<use xlink:href="#SVGID_3_"  style="overflow:visible;fill:#85878E;"/>
		<clipPath id="SVGID_4_">
			<use xlink:href="#SVGID_3_"  style="overflow:visible;"/>
		</clipPath>
		<g class="st7">
			<path class="st6" d="M218.8,417c-8.4-16.1-25.7-25.6-42.8-32c-17.1-6.4-35.2-10.8-50.2-21.1c-12.3-8.4-22-20.5-27.5-34.3
				c-4.7-11.8-5.7-27,3.6-35.7c5.7-5.3,14.1-6.9,21.8-5.6c7.7,1.2,14.7,4.9,21.2,9.1c39.2,25.1,63.7,67.1,86.7,107.6
				c1.8,3.2,3.7,6.6,3.9,10.4c0.1,3.7-2.2,7.8-5.9,8.4c-3.7,0.5-7.2-4.4-4.8-7.2"/>
		</g>
		<path class="st8" d="M87,289.6c0,0,71.8,30.8,153.7,146"/>
		<path class="st8" d="M128.1,315.2c0,0-2.6-28.9-9.1-42.5"/>
		<path class="st8" d="M137.7,323.7c0,0-36.5,18.4-58,13"/>
		<path class="st8" d="M120.2,310.2c0,0-37.8,10.4-51.8,2"/>
		<path class="st8" d="M146.8,329.8c0,0,8.4-27.1,6-44.4"/>
		<path class="st8" d="M158.5,340.8c0,0-48,27.7-68.6,13.5"/>
		<path class="st8" d="M167.1,349c0,0,17.4-34.4,12.8-52.7"/>
		<path class="st8" d="M173.6,356.3c0,0-32,23.6-44.2,23"/>
		<path class="st8" d="M181.9,363.1c0,0,24.1-24.3,25.6-39.1"/>
		<path class="st8" d="M190,373.4c0,0-28.9,24.4-53.4,25"/>
		<path class="st8" d="M199.8,382.8c0,0,28.7-27.3,30.5-40.7"/>
	</g>
	<g>
		<path class="st2" d="M278.9,389.2c5.5-6.6,15.6-6.1,24.1-5.1c-3.2,0.2-6.1-3.1-5.9-6.3c0.3-3.2,3.3-5.9,6.5-6.2
			c3.2-0.3,6.5,1.6,8.2,4.3c-2.9-3.6-5.9-7.3-7-11.8c-1-4.5,0.5-10,4.6-11.9c3.5-1.6,7.7-0.4,10.7,2c3,2.4,4.9,5.8,6.8,9.2
			c0-5.8-3.1-11.1-6-16c-3-5-6-10.3-6-16c0-5.8,4.4-12,10.1-11.7c5.7,0.2,9.4,6.1,11.4,11.5c3.8,10.1,5.4,21,4.9,31.8
			c1.4-11.4,5.1-22.4,10.9-32.4c0.7-1.2,1.5-2.4,2.7-3.1c2.1-1.1,4.8-0.1,6.3,1.7c1.5,1.8,2,4.2,2.3,6.6c1.2,9.4-0.9,19.1-5.8,27.2
			c3.4-2.5,5-6.7,6.2-10.7c1.3-4,2.6-8.3,5.6-11.2c3.1-2.9,8.6-3.7,11.3-0.5c1.9,2.2,1.8,5.5,1.2,8.3c-1.3,6.6-4.9,12.7-10,17.1
			c4.6-5.1,10.3-9.3,16.6-12.1c2.4-1.1,5.2-2,7.6-1c4.6,1.9,4.2,8.9,1.3,12.8c-3,4-7.6,6.7-9.9,11.1c5.9-6.4,16.1-8.4,24-4.7
			c7.9,3.7,12.9,12.8,11.8,21.5c-35,0.4-70,0.8-105,1.1c-14.1,0.2-28.2,0.3-42.3-0.5"/>
	</g>
	<g>
		<path class="st2" d="M181.9,422c-2.7-10.5-11.9-18.4-21.9-22.7c-10-4.3-20.9-5.7-31.6-7.9c-10.7-2.2-21.5-5.4-29.8-12.5
			c-3.6-3.1-6.7-7.1-7.6-11.8c-0.8-4.7,1.2-10.1,5.6-12.1c6.9-3.1,14,3.2,19.2,8.6c12.7,13.3,27.4,24.9,43.3,34.1"/>
	</g>
	<ellipse transform="matrix(0.9876 -0.1571 0.1571 0.9876 -64.2936 50.4463)" class="st9" cx="287" cy="432" rx="97" ry="13.8"/>
	<g>
		<path class="st10" d="M314.1,131.2l45.8,267.9c0.3,1.5,0.4,3.1,0.3,4.6c0,0.7-0.1,1.5-0.2,2.2c-0.1,0.4-0.1,0.7-0.2,1.1
			c-0.4,2.2-1.1,4.2-2.1,6.2c-0.5,1-1.1,1.9-1.7,2.8c-0.6,0.9-1.3,1.7-2.1,2.5c-0.5,0.5-1,1-1.6,1.5l0,0c-0.5,0.5-1.1,0.9-1.7,1.3
			l0,0c-0.9,0.6-1.8,1.2-2.8,1.7l0,0c-0.7,0.3-1.3,0.6-2,0.9c-1.4,0.5-2.9,1-4.4,1.2l-109.9,18.8c-1.6,0.3-3.2,0.4-4.8,0.3
			c-0.3,0-0.5,0-0.8,0c-0.3,0-0.6-0.1-0.9-0.1c-1.2-0.1-2.4-0.4-3.5-0.7c-0.6-0.2-1.1-0.4-1.7-0.6c-0.3-0.1-0.5-0.2-0.8-0.3
			c-0.5-0.2-1.1-0.5-1.6-0.7c-1.6-0.8-3.1-1.8-4.5-3c-0.5-0.5-1.1-1-1.6-1.5c-0.7-0.8-1.4-1.6-2.1-2.5c-0.9-1.2-1.6-2.5-2.2-3.8l0,0
			c-0.8-1.7-1.3-3.5-1.7-5.4l-45.8-267.9c-2.1-12.3,6.2-24,18.5-26.1L288,112.7C300.3,110.6,312,118.9,314.1,131.2z"/>
		<path class="st11" d="M309.2,132L355,399.9c0.2,1.2,0.3,2.4,0.2,3.6c0,0.5-0.1,1.1-0.1,1.7l-0.2,1c-0.3,1.6-0.8,3.2-1.6,4.7
			c-0.4,0.8-0.8,1.5-1.3,2.2c-0.5,0.7-1,1.3-1.6,2c-0.3,0.3-0.6,0.6-1.1,1l-0.2,0.1c-0.3,0.3-0.7,0.6-1.1,0.9l-0.3,0.2
			c-0.6,0.4-1.3,0.9-2,1.2l-0.2,0.1c-0.5,0.3-1.1,0.5-1.6,0.7c-1.1,0.4-2.3,0.7-3.5,0.9L230.7,439c-1.2,0.2-2.5,0.3-3.8,0.2
			c-0.4,0-0.9,0-1.3-0.1c-0.9-0.1-1.9-0.3-2.8-0.6c-0.4-0.1-0.9-0.3-1.3-0.4c-0.2-0.1-0.4-0.1-0.5-0.2l-0.1-0.1
			c-0.3-0.1-0.7-0.3-1.2-0.6c-1.2-0.6-2.4-1.4-3.5-2.4c-0.4-0.4-0.8-0.8-1.2-1.1c-0.6-0.6-1.1-1.3-1.6-2c-0.6-0.9-1.2-1.8-1.6-2.7
			l-0.1-0.3c-0.6-1.4-1-2.8-1.3-4.3l-45.8-267.9c-1.6-9.6,4.8-18.7,14.4-20.3l109.9-18.8c7.3-1.2,14.4,2.2,18,8.2
			C308,127.6,308.8,129.7,309.2,132z"/>
		<path class="st12" d="M346.7,324.9c-0.1-1-0.1-2.2-0.1-3.6l3.6,21.1c-1.7-3.1-2.9-5.5-3.2-6.3
			C346.3,333.9,346.4,329.1,346.7,324.9z"/>
		<path class="st10" d="M325.7,199L325.7,199l-5.4-31.6l0,0c2.5-0.4,4.8,1.2,5.2,3.7l3.9,22.7C329.8,196.2,328.2,198.6,325.7,199z"
			/>
		<path class="st10" d="M168.6,209.5l2.1-0.4l-2.7-15.8l-2.1,0.4c-1.3,0.2-2.1,1.4-1.9,2.7l1.9,11.2
			C166.1,208.9,167.4,209.8,168.6,209.5z"/>
		<path class="st10" d="M171.9,228.6l2.1-0.4l-2.7-15.8l-2.1,0.4c-1.3,0.2-2.1,1.4-1.9,2.7l1.9,11.2
			C169.4,228,170.6,228.8,171.9,228.6z"/>
		<path class="st10" d="M251.4,130.9l-32.7,5.6c-5.5,0.9-10.7-2.8-11.7-8.3l0,0l52.6-9l0,0C260.6,124.7,256.9,129.9,251.4,130.9z"/>
	</g>
	<g>
		<g>
			<g>
				<path class="st13" d="M389.1,420.2c0.1,0.5,0.3,1,0.4,1.5l2.8,0l1.4,2.4l-1.4,2.4c0.7,0.8,1.5,1.5,2.4,2.1l2.2-1.7l2.5,1.1
					l0.2,2.8c1,0.2,2,0.3,3.1,0.3l0.8-2.7l2.7-0.5l1.8,2.1c1-0.4,1.9-1,2.8-1.6l-0.9-2.6l1.9-2l2.7,0.6c0.5-0.9,1-1.9,1.3-2.9
					l-2.3-1.6l0.3-2.7l2.6-1.1c0-0.5-0.1-1.1-0.2-1.7c-0.1-0.5-0.2-1-0.4-1.5l-2.8,0l-1.4-2.4l1.4-2.4c-0.7-0.8-1.5-1.5-2.4-2.2
					l-2.2,1.7l-2.5-1.1l-0.2-2.8c-1-0.2-2.1-0.4-3.2-0.3l-0.8,2.7l-2.7,0.6l-1.8-2.1c-1,0.4-1.9,1-2.8,1.6l0.9,2.6l-1.8,2l-2.7-0.6
					c-0.5,0.9-1,1.9-1.3,2.9l2.3,1.6l-0.3,2.7l-2.6,1.1C388.9,419.2,389,419.7,389.1,420.2z M397.8,413.5c2.1-2.7,6-3.1,8.7-1
					c2.7,2.1,3.1,6,1,8.7c-2.1,2.7-6,3.1-8.7,1C396.1,420.1,395.6,416.2,397.8,413.5z"/>
			</g>
		</g>
	</g>
	<g>
		<g>
			<path class="st2" d="M295.9,86.5c0,0.6,0,1.2,0.1,1.8l3,0.6l0.9,2.9l-2.1,2.2c0.6,1,1.3,2,2.1,2.9l2.8-1.3l2.5,1.8l-0.4,3.1
				c1,0.5,2.1,0.9,3.3,1.1l1.5-2.7l3.1,0.1l1.5,2.7c1.2-0.2,2.3-0.6,3.4-1.1l-0.3-3.1l2.5-1.8l2.8,1.3c0.8-0.9,1.5-1.8,2.1-2.9
				l-2.1-2.3l1-2.9l3-0.6c0.1-0.6,0.1-1.2,0.1-1.9c0-0.6,0-1.1-0.1-1.7l-3-0.6l-0.9-2.9l2.1-2.2c-0.6-1.1-1.3-2-2.1-2.9l-2.8,1.3
				l-2.5-1.8l0.4-3.1c-1.1-0.5-2.2-0.9-3.4-1.1l-1.5,2.7l-3.1,0l-1.5-2.7c-1.2,0.2-2.3,0.6-3.4,1.1l0.3,3.1l-2.5,1.8l-2.8-1.3
				c-0.8,0.9-1.5,1.8-2.1,2.9l2.1,2.3l-1,2.9l-3,0.6C296,85.3,296,85.9,295.9,86.5z M307,81.2c3-2.4,7.3-2,9.7,1
				c2.4,3,1.9,7.3-1,9.7c-3,2.4-7.3,2-9.7-1C303.6,88,304,83.6,307,81.2z"/>
		</g>
	</g>
	<g>
		<g>
			<path class="st2" d="M120.6,122c0,0.4,0,0.9,0.1,1.3l2.2,0.5l0.7,2.2l-1.6,1.7c0.4,0.8,0.9,1.5,1.5,2.1l2.1-0.9l1.8,1.3l-0.3,2.3
				c0.8,0.4,1.6,0.6,2.4,0.8l1.1-2l2.3,0l1.1,2c0.9-0.2,1.7-0.4,2.5-0.8l-0.2-2.3l1.9-1.3l2.1,1c0.6-0.6,1.1-1.3,1.6-2.1l-1.5-1.7
				l0.7-2.1l2.2-0.4c0.1-0.4,0.1-0.9,0.1-1.4c0-0.4,0-0.8-0.1-1.3l-2.2-0.5l-0.7-2.2l1.6-1.7c-0.4-0.8-0.9-1.5-1.5-2.2l-2.1,0.9
				l-1.8-1.4l0.3-2.3c-0.8-0.4-1.6-0.7-2.5-0.8l-1.1,2l-2.3,0l-1.1-2c-0.9,0.2-1.7,0.4-2.5,0.8l0.2,2.3l-1.8,1.3l-2.1-1
				c-0.6,0.6-1.1,1.3-1.6,2.1l1.5,1.7l-0.7,2.1l-2.2,0.4C120.7,121.1,120.6,121.6,120.6,122z M128.8,118.2c2.2-1.8,5.4-1.4,7.2,0.8
				c1.8,2.2,1.4,5.4-0.8,7.2c-2.2,1.8-5.4,1.4-7.2-0.7C126.3,123.1,126.6,119.9,128.8,118.2z"/>
		</g>
	</g>
	<g>
		<g>
			<g>
				<g>
					<g>
						<path class="st14" d="M326.9,95.4c0,0.3,0,0.6,0,0.9l1.5,0.3l0.5,1.5l-1.1,1.1c0.3,0.5,0.6,1,1,1.5l1.4-0.6l1.2,0.9l-0.2,1.5
							c0.5,0.2,1.1,0.4,1.7,0.6l0.8-1.4l1.5,0l0.7,1.4c0.6-0.1,1.2-0.3,1.7-0.5l-0.2-1.6l1.3-0.9l1.4,0.7c0.4-0.4,0.8-0.9,1.1-1.4
							l-1-1.2l0.5-1.5l1.5-0.3c0-0.3,0.1-0.6,0.1-0.9c0-0.3,0-0.6,0-0.9l-1.5-0.3l-0.5-1.5l1.1-1.1c-0.3-0.5-0.6-1-1-1.5l-1.4,0.6
							l-1.2-0.9l0.2-1.5c-0.5-0.3-1.1-0.5-1.7-0.6l-0.8,1.4l-1.5,0l-0.7-1.4c-0.6,0.1-1.2,0.3-1.7,0.5l0.2,1.6l-1.3,0.9l-1.4-0.7
							c-0.4,0.4-0.8,0.9-1.1,1.4l1.1,1.2l-0.5,1.5l-1.5,0.3C326.9,94.8,326.9,95.1,326.9,95.4z M332.5,92.8c1.5-1.2,3.7-1,4.9,0.5
							c1.2,1.5,1,3.7-0.5,4.9c-1.5,1.2-3.7,1-4.9-0.5C330.7,96.2,331,94,332.5,92.8z"/>
					</g>
				</g>
			</g>
		</g>
	</g>
	<g>
		<g>
			<path class="st15" d="M167.5,439.4c0,0.3,0,0.6,0,0.9l1.5,0.3l0.5,1.5l-1.1,1.1c0.3,0.5,0.6,1,1,1.5l1.4-0.6l1.2,0.9l-0.2,1.5
				c0.5,0.2,1.1,0.4,1.7,0.6l0.8-1.4l1.5,0l0.7,1.4c0.6-0.1,1.2-0.3,1.7-0.5l-0.2-1.6l1.3-0.9l1.4,0.7c0.4-0.4,0.8-0.9,1.1-1.4
				l-1-1.2l0.5-1.5l1.5-0.3c0-0.3,0.1-0.6,0.1-0.9c0-0.3,0-0.6,0-0.9l-1.5-0.3l-0.5-1.5l1.1-1.1c-0.3-0.5-0.6-1-1-1.5l-1.4,0.6
				l-1.2-0.9l0.2-1.5c-0.5-0.3-1.1-0.5-1.7-0.6l-0.8,1.4l-1.5,0l-0.7-1.4c-0.6,0.1-1.2,0.3-1.7,0.5l0.2,1.6l-1.3,0.9l-1.4-0.7
				c-0.4,0.4-0.8,0.9-1.1,1.4l1.1,1.2l-0.5,1.5l-1.5,0.3C167.5,438.8,167.5,439.1,167.5,439.4z M173.1,436.7c1.5-1.2,3.7-1,4.9,0.5
				c1.2,1.5,1,3.7-0.5,4.9c-1.5,1.2-3.7,1-4.9-0.5C171.3,440.1,171.6,437.9,173.1,436.7z"/>
		</g>
	</g>
	<g>
		<g>
			<g>
				<path class="st2" d="M85.9,158.5c0,1,0.1,2,0.2,3l5.3,1l1.7,5l-3.6,4c1,1.8,2.3,3.5,3.7,5l4.8-2.3l4.3,3.1l-0.6,5.3
					c1.8,0.8,3.7,1.4,5.7,1.8l2.6-4.7l5.3,0l2.6,4.7c2.1-0.4,4-1.1,5.9-2l-0.7-5.3l4.3-3.2l4.9,2.2c1.4-1.5,2.6-3.2,3.6-5l-3.7-3.9
					l1.6-5.1l5.3-1.1c0.1-1.1,0.2-2.1,0.2-3.2c0-1-0.1-2-0.2-3l-5.3-1l-1.7-5l3.6-4c-1-1.8-2.3-3.5-3.7-5l-4.9,2.3l-4.3-3.1l0.6-5.3
					c-1.9-0.8-3.8-1.5-5.9-1.9l-2.6,4.7l-5.3,0l-2.7-4.7c-2.1,0.4-4,1.1-5.9,2l0.7,5.3l-4.3,3.2l-4.9-2.2c-1.4,1.5-2.6,3.2-3.6,5
					l3.7,3.9l-1.6,5.1l-5.3,1.1C86,156.4,85.9,157.4,85.9,158.5z M104.9,149c5-4.3,12.6-3.7,16.9,1.4c4.3,5.1,3.6,12.6-1.4,16.9
					c-5,4.3-12.6,3.7-16.9-1.4C99.2,160.8,99.9,153.2,104.9,149z"/>
			</g>
		</g>
	</g>
	<g>
		<path class="st2" d="M297.4,152.8v16.8c0,5.7,4.6,10.3,10.3,10.3h8.2v13.9l15.2-13.9h26.3c10.4,0,18.8-8.4,18.8-18.8v0
			c0-10.4-8.4-18.8-18.8-18.8h-49.6C302,142.4,297.4,147.1,297.4,152.8z"/>
		<path class="st16" d="M323.9,160.7c0,1.8-1.4,3.2-3.2,3.2c-1.8,0-3.2-1.4-3.2-3.2c0-1.8,1.4-3.2,3.2-3.2
			C322.5,157.5,323.9,158.9,323.9,160.7z"/>
		<path class="st16" d="M339.7,160.7c0,1.8-1.4,3.2-3.2,3.2c-1.8,0-3.2-1.4-3.2-3.2c0-1.8,1.4-3.2,3.2-3.2
			C338.3,157.5,339.7,158.9,339.7,160.7z"/>
		<path class="st16" d="M355.6,160.7c0,1.8-1.4,3.2-3.2,3.2c-1.8,0-3.2-1.4-3.2-3.2c0-1.8,1.4-3.2,3.2-3.2
			C354.2,157.5,355.6,158.9,355.6,160.7z"/>
	</g>
	<g>
		
			<rect x="194.4" y="158.7" transform="matrix(0.9877 -0.1564 0.1564 0.9877 -27.5221 40.845)" class="st17" width="102.9" height="73.3"/>
		<polygon class="st18" points="254.2,199.3 239.4,193.2 242,209.7 		"/>
	</g>
	<g>
		<g>
			<g>
				<g>
					
						<rect x="211.3" y="249.1" transform="matrix(0.986 -0.1667 0.1667 0.986 -43.7709 47.6019)" class="st16" width="100.7" height="71"/>
					
						<rect x="206.7" y="249.5" transform="matrix(0.986 -0.1667 0.1667 0.986 -39.281 46.4497)" class="st19" width="100.7" height="15.5"/>
					
						<rect x="250.9" y="275.9" transform="matrix(0.986 -0.1667 0.1667 0.986 -42.3955 49.7642)" class="st6" width="48.8" height="3.2"/>
					
						<rect x="252" y="282.3" transform="matrix(0.986 -0.1667 0.1667 0.986 -43.4475 50.0342)" class="st6" width="48.8" height="3.2"/>
					
						<rect x="253.1" y="289.5" transform="matrix(0.986 -0.1667 0.1667 0.986 -44.7143 49.4598)" class="st6" width="38.4" height="3.1"/>
					
						<rect x="254.3" y="297" transform="matrix(0.986 -0.1667 0.1667 0.986 -46.0244 48.7341)" class="st6" width="26.1" height="3.2"/>
				</g>
			</g>
			
				<rect x="220.6" y="282.9" transform="matrix(0.986 -0.1667 0.1667 0.986 -45.81 43.1311)" class="st6" width="26.9" height="23.2"/>
		</g>
		<g>
			<path class="st16" d="M217.8,264.2c0.1,0.8-0.4,1.6-1.2,1.7c-0.8,0.1-1.6-0.4-1.7-1.2c-0.1-0.8,0.4-1.6,1.2-1.7
				S217.6,263.4,217.8,264.2z"/>
			<path class="st16" d="M223.4,263.2c0.1,0.8-0.4,1.6-1.2,1.7c-0.8,0.1-1.6-0.4-1.7-1.2c-0.1-0.8,0.4-1.6,1.2-1.7
				C222.5,261.9,223.3,262.4,223.4,263.2z"/>
			<path class="st16" d="M229.1,262.3c0.1,0.8-0.4,1.6-1.2,1.7c-0.8,0.1-1.6-0.4-1.7-1.2c-0.1-0.8,0.4-1.6,1.2-1.7
				C228.2,260.9,229,261.4,229.1,262.3z"/>
		</g>
	</g>
	<g>
		<g>
			<g>
				
					<linearGradient id="SVGID_5_" gradientUnits="userSpaceOnUse" x1="258.2963" y1="384.6802" x2="130.7898" y2="530.1176" gradientTransform="matrix(0.9859 -0.1673 0.1673 0.9859 -51.1776 48.5938)">
					<stop  offset="0" style="stop-color:#FFFFFF"/>
					<stop  offset="1" style="stop-color:#D9B7B3"/>
				</linearGradient>
				<path class="st20" d="M318.9,329.2l11.8,69.7c0,0,0,0,0,0l-99,16.8L219.9,346c0,0,0,0,0,0L318.9,329.2
					C318.9,329.2,318.9,329.2,318.9,329.2z"/>
				
					<rect x="220.5" y="337.5" transform="matrix(0.9859 -0.1673 0.1673 0.9859 -53.9508 50.1672)" class="st21" width="100.4" height="15.5"/>
				
					<ellipse transform="matrix(0.9919 -0.1267 0.1267 0.9919 -46.5513 34.3499)" class="st6" cx="246.7" cy="383.1" rx="13.3" ry="13.3"/>
				
					<rect x="264.5" y="363.8" transform="matrix(0.9859 -0.1673 0.1673 0.9859 -57.064 53.4868)" class="st6" width="48.6" height="3.2"/>
				
					<rect x="265.6" y="370.2" transform="matrix(0.9859 -0.1673 0.1673 0.9859 -58.1162 53.7579)" class="st6" width="48.6" height="3.2"/>
				
					<rect x="266.7" y="376.5" transform="matrix(0.9859 -0.1673 0.1673 0.9859 -59.1685 54.0291)" class="st6" width="48.6" height="3.2"/>
				
					<rect x="267.8" y="382.9" transform="matrix(0.9859 -0.1673 0.1673 0.9859 -60.2207 54.3002)" class="st6" width="48.6" height="3.2"/>
			</g>
			<path class="st16" d="M247.4,380.2c0.4-0.5,0.7-1.2,0.6-1.9c-0.2-1.3-1.4-2.1-2.7-1.9c-1.3,0.2-2.1,1.4-1.9,2.7
				c0.1,0.8,0.6,1.3,1.3,1.7c-1.2,0.8-1.9,2.2-1.6,3.7l0.5,3.1l7.4-1.2l-0.5-3.1C250.1,381.7,248.9,380.5,247.4,380.2z"/>
		</g>
		<g>
			<path class="st16" d="M231.3,352.2c0.1,0.7-0.4,1.4-1.1,1.5c-0.7,0.1-1.4-0.4-1.5-1.1s0.4-1.4,1.1-1.5
				C230.5,351,231.2,351.5,231.3,352.2z"/>
			<path class="st16" d="M236.3,351.3c0.1,0.7-0.4,1.4-1.1,1.5c-0.7,0.1-1.4-0.4-1.5-1.1c-0.1-0.7,0.4-1.4,1.1-1.5
				C235.5,350.1,236.2,350.6,236.3,351.3z"/>
			<path class="st16" d="M241.3,350.5c0.1,0.7-0.4,1.4-1.1,1.5c-0.7,0.1-1.4-0.4-1.5-1.1c-0.1-0.7,0.4-1.4,1.1-1.5
				C240.5,349.3,241.2,349.8,241.3,350.5z"/>
		</g>
		
			<rect x="189.4" y="159" transform="matrix(0.9874 -0.1582 0.1582 0.9874 -23.3399 40.2384)" class="st21" width="103.3" height="15.5"/>
		<g>
			<path class="st16" d="M200.2,173.9c0.1,0.7-0.4,1.4-1.1,1.5c-0.7,0.1-1.4-0.4-1.5-1.1c-0.1-0.7,0.4-1.4,1.1-1.5
				C199.4,172.7,200.1,173.2,200.2,173.9z"/>
			<path class="st16" d="M205.2,173.1c0.1,0.7-0.4,1.4-1.1,1.5c-0.7,0.1-1.4-0.4-1.5-1.1c-0.1-0.7,0.4-1.4,1.1-1.5
				C204.4,171.9,205.1,172.3,205.2,173.1z"/>
			<path class="st16" d="M210.2,172.2c0.1,0.7-0.4,1.4-1.1,1.5c-0.7,0.1-1.4-0.4-1.5-1.1c-0.1-0.7,0.4-1.4,1.1-1.5
				C209.4,171,210.1,171.5,210.2,172.2z"/>
		</g>
	</g>
	<g>
		<g>
			<g id="hands__x26__mobile">
				<g>
					<g>
						<g>
							<path class="st15" d="M163.7,237.6c1.8,6.5-2,13.2-8.5,15c-6.5,1.8-13.2-2-15-8.5c-1.8-6.5,2-13.2,8.5-15
								C155.2,227.2,161.9,231.1,163.7,237.6z"/>
						</g>
					</g>
					<g>
						<g>
							<path class="st10" d="M170.7,269.5c0.8,1.4,0.4,3.1-1,4l-1.3,0.8c-1.4,0.8-3.1,0.4-4-1l-37.2-61.8c-0.8-1.4-0.4-3.1,1-4
								l1.3-0.8c1.4-0.8,3.1-0.4,4,1L170.7,269.5z"/>
							<path class="st10" d="M110,284.9l-20.8,12.5c-1.6,1-3.8,0.4-4.8-1.2L69.9,272c-1-1.6-0.5-3.8,1.2-4.8l17.8-10.7
								c1.6-1,3.8-0.4,4.8,1.2L110,284.9z"/>
						</g>
					</g>
					<g>
						<g>
							<g>
								<path class="st2" d="M70.3,272.7c-3.9,3.9-4.9,10.2-1.9,15.2l1.7,2.8c3,5,9,7.1,14.3,5.4L70.3,272.7z"/>
							</g>
							<g>
								<path class="st2" d="M93.7,257.8l14.7,24.5c24.7-12.4,47.5-11.2,55.3-10.3l-35.5-59C125.4,220.5,115.9,241.8,93.7,257.8z"/>
							</g>
						</g>
					</g>
					<g>
						<g>
							<path class="st2" d="M88.3,297.9c0.1,0.1,0.1,0.2,0.2,0.3l4.4,3.8c0.7,0.6,1.8,0.5,2.4-0.2l13,22.3l0.5,0.8l0.9,1.4
								c0.5,0.8,1.6,1.1,2.4,0.6l10.2-6.2c0.8-0.5,1.1-1.6,0.6-2.4l-1.3-2.2c-0.5-0.8-1.6-1.1-2.4-0.6c0,0-4.3-5.8-5.9-8.5
								c-2-3.4-7.5-12.4-9.3-15.4l2.4-2.9c0.5-0.6,0.5-1.3,0.2-1.9L88.3,297.9z"/>
						</g>
					</g>
					<g>
						<polygon class="st22" points="103.9,291.7 109.4,296.4 107.9,298.4 						"/>
					</g>
				</g>
			</g>
			<g>
				<path class="st15" d="M164.1,201.9l-6.5,16.2c-0.3,0.8-1.2,1.1-1.9,0.8l0,0c-0.8-0.3-1.1-1.2-0.8-1.9l6.5-16.2
					c0.3-0.8,1.2-1.1,1.9-0.8l0,0C164.1,200.3,164.4,201.1,164.1,201.9z"/>
				<path class="st15" d="M179,214.4l-12.3,12.4c-0.6,0.6-1.5,0.6-2.1,0l0,0c-0.6-0.6-0.6-1.5,0-2.1l12.3-12.4
					c0.6-0.6,1.5-0.6,2.1,0l0,0C179.6,212.9,179.6,213.8,179,214.4z"/>
				<path class="st15" d="M188.2,230.9l-16.5,5.6c-0.8,0.3-1.6-0.2-1.9-0.9l0,0c-0.3-0.8,0.2-1.6,0.9-1.9l16.5-5.6
					c0.8-0.3,1.6,0.2,1.9,0.9l0,0C189.3,229.8,188.9,230.7,188.2,230.9z"/>
				<path class="st15" d="M192,246.7l-17.4,1.6c-0.8,0.1-1.5-0.5-1.6-1.3l0,0c-0.1-0.8,0.5-1.5,1.3-1.6l17.4-1.6
					c0.8-0.1,1.5,0.5,1.6,1.3l0,0C193.4,245.9,192.8,246.6,192,246.7z"/>
			</g>
		</g>
	</g>
	<g>
		<g>
			<path class="st2" d="M232,89.2l-25.9,5.6c-1.6,0.3-3.2-0.7-3.5-2.3L197,66.6c-0.3-1.6,0.7-3.2,2.3-3.5l25.9-5.6
				c1.6-0.3,3.2,0.7,3.5,2.3l5.6,25.9C234.6,87.3,233.6,88.8,232,89.2z"/>
			<path class="st16" d="M222.3,68.2c-2.7-1.6-6.1-0.6-7.8,2l-0.1,0.2l-0.2-0.1c-2.6-1.7-6.2-1.1-7.9,1.4c-1.8,2.6-1.1,6.3,1.6,8
				l8.4,5.1c0.8,0.5,1.9,0.3,2.4-0.5l5.5-8.1C225.9,73.5,225,69.9,222.3,68.2z"/>
		</g>
		<polyline class="st2" points="226,89.3 220.1,97.8 211.6,91.8 		"/>
	</g>
</g>
</svg>
