<?xml version="1.0" encoding="utf-8"?>
<!-- Generator: Adobe Illustrator 22.0.0, SVG Export Plug-In . SVG Version: 6.00 Build 0)  -->
<svg version="1.1" xmlns="http://www.w3.org/2000/svg" xmlns:xlink="http://www.w3.org/1999/xlink" x="0px" y="0px"
	 viewBox="0 0 549 438" style="enable-background:new 0 0 549 438;" xml:space="preserve">
<style type="text/css">
	.st0{opacity:0.5;fill:#FFFFFF;}
	.st1{opacity:0.38;}
	.st2{fill:#E83D4B;stroke:#FFFFFF;stroke-width:0.9056;stroke-miterlimit:10;}
	.st3{fill:#E83D4B;}
	.st4{fill:#AD1423;}
	.st5{fill:#D7D7D7;}
	.st6{fill:#FFFFFF;}
	.st7{opacity:0.1;fill:#F5FDFF;}
	.st8{opacity:0.5;fill:url(#SVGID_1_);}
	.st9{opacity:0.5;fill:none;stroke:#CE8492;stroke-width:0.5;stroke-miterlimit:10;}
	.st10{opacity:0.5;fill:none;stroke:#CE8492;stroke-width:0.4624;stroke-miterlimit:10;}
	.st11{opacity:0.5;fill:none;stroke:#CE8492;stroke-width:0.3504;stroke-miterlimit:10;}
	.st12{opacity:0.5;}
	
		.st13{fill:none;stroke:#CE8492;stroke-width:1.4061;stroke-linecap:round;stroke-linejoin:round;stroke-miterlimit:10;stroke-dasharray:2.8122;}
	
		.st14{opacity:0.5;fill:none;stroke:#CE8492;stroke-width:1.4061;stroke-linecap:round;stroke-linejoin:round;stroke-miterlimit:10;stroke-dasharray:2.8122;}
	.st15{fill:#0D2E3F;}
	.st16{fill:#FFE1BD;}
	.st17{fill:#0A1828;}
	.st18{fill:#183F5B;}
	.st19{fill:#E5E5E5;}
	.st20{fill:#E8C5A0;}
	.st21{fill:#B3C5CE;}
	.st22{fill:#E8F1F8;}
	.st23{opacity:0.24;fill:#474747;}
	.st24{fill:#D4DEDF;}
	.st25{fill:#632F00;}
	.st26{fill:#4C2E1E;}
	.st27{fill:#8C4200;}
	.st28{fill:#282C3B;}
	.st29{fill:#B4BCC5;}
	.st30{fill:#153851;}
	.st31{fill:#FFCC99;}
	.st32{fill:#10354C;}
	.st33{fill:#CCD6E7;}
	.st34{fill:#12374F;}
	.st35{fill:#A3B4D8;}
	.st36{fill:#F4D5B5;}
	.st37{fill:#E5BB98;}
	.st38{fill:#F2F2F2;}
	.st39{opacity:0.1;fill:#7F1E00;}
	.st40{fill:none;stroke:#D12828;stroke-width:0.8295;stroke-linecap:round;stroke-linejoin:round;stroke-miterlimit:10;}
	.st41{fill:#CE1717;}
	.st42{fill:none;stroke:#D12828;stroke-width:0.7605;stroke-linecap:round;stroke-linejoin:round;stroke-miterlimit:10;}
	.st43{fill:none;stroke:#A5A5A5;stroke-width:0.856;stroke-linecap:round;stroke-linejoin:round;stroke-miterlimit:10;}
	.st44{fill:none;stroke:#A5A5A5;stroke-width:0.8438;stroke-linecap:round;stroke-linejoin:round;stroke-miterlimit:10;}
	.st45{fill:none;stroke:#E1F0FF;stroke-width:0.7605;stroke-linecap:round;stroke-linejoin:round;stroke-miterlimit:10;}
	.st46{fill:none;stroke:#E1F0FF;stroke-width:0.8438;stroke-linecap:round;stroke-linejoin:round;stroke-miterlimit:10;}
	.st47{fill:none;stroke:#1D1363;stroke-width:0.7605;stroke-linecap:round;stroke-linejoin:round;stroke-miterlimit:10;}
	.st48{fill:none;stroke:#1D1363;stroke-width:0.9928;stroke-linecap:round;stroke-linejoin:round;stroke-miterlimit:10;}
	.st49{fill:none;stroke:#6D6760;stroke-width:0.856;stroke-linecap:round;stroke-linejoin:round;stroke-miterlimit:10;}
	.st50{fill:#1C4D66;}
</style>
<g id="BACKGROUND">
</g>
<g id="OBJECTS">
	<g>
		<path class="st0" d="M368.7,132.2c-0.2-3.8-2-7.4-5-9.7c-0.3-0.3-0.7-0.6-1.1-0.8c-1.1-0.7-2.2-1.2-3.4-1.5c-1-0.3-2-0.5-3.1-0.5
			c-0.1,0-0.1-0.1-0.2-0.1c-0.1,0-0.1,0-0.2,0c-0.7,0-1.4,0-2.1,0.1l0,0c-1.4,0.2-2.8,0.6-4.1,1.3c-0.4,0.2-0.8,0.4-1.2,0.7
			c-3.6,2.3-5.9,6.2-6.1,10.5c0,0.2,0,0.5,0,0.7c0,0.2,0,0.5,0,0.7c0.2,3.2,1.5,6.3,3.8,8.6c0.3,0.4,0.7,0.7,1,0.9
			c1.7,1.4,3.6,2.3,5.7,2.8l0.1,0c0.5,0.1,1,0.2,1.5,0.2c0.6,0.2,1.1,0.3,1.7,0.3c0.8,0,1.5-0.2,2.2-0.5c0.7-0.1,1.3-0.3,2-0.5
			l0.1-0.1l0,0c1.4-0.5,2.7-1.3,3.8-2.2c0.4-0.3,0.7-0.6,1-0.9c2.2-2.3,3.6-5.3,3.7-8.5c0-0.2,0-0.5,0-0.7
			C368.7,132.7,368.7,132.5,368.7,132.2z M367.5,132.3C367.5,132.3,367.5,132.3,367.5,132.3l-3.6,0.1c-0.1-3-0.8-5.7-2-7.8
			c0,0,0,0,0,0c0.4-0.3,0.7-0.7,1-1.1c0,0,0,0,0,0C365.7,125.6,367.4,128.8,367.5,132.3z M350.6,140.7
			C350.6,140.7,350.6,140.7,350.6,140.7c1.4-0.5,3-0.8,4.7-0.8v5.1c-0.1,0-0.2,0-0.3,0C353.2,144.6,351.7,143.1,350.6,140.7z
			 M361.2,123.4C361.2,123.4,361.2,123.4,361.2,123.4c-0.5-0.7-1-1.3-1.6-1.8c0.8,0.3,1.5,0.7,2.2,1.1
			C361.7,122.9,361.5,123.2,361.2,123.4z M356.4,121.3c1.5,0.2,2.8,1.3,3.9,2.9c-1.1,0.8-2.4,1.3-3.9,1.3V121.3z M355.3,121.3v4.2
			c-1.4-0.1-2.7-0.7-3.7-1.5c0,0,0,0,0,0C352.6,122.5,353.9,121.5,355.3,121.3z M350.9,125.1c1.3,0.9,2.8,1.5,4.4,1.7v5.5h-6.2
			C349.2,129.6,349.9,127.1,350.9,125.1z M355.3,133.7v4.9c-1.9,0-3.6,0.3-5.2,0.9c-0.6-1.7-1-3.7-1-5.9H355.3z M356.4,145v-5
			c1.6,0.1,3.2,0.5,4.5,1.1c-1,2-2.3,3.4-3.8,3.9C356.9,145,356.7,145,356.4,145z M362.1,141.7c0.3,0.2,0.7,0.4,1,0.7
			c-0.8,0.6-1.6,1.1-2.4,1.5C361.1,143.2,361.6,142.5,362.1,141.7z M361.5,139.9C361.5,139.9,361.5,139.9,361.5,139.9
			c-1.5-0.7-3.2-1.1-5-1.2v-5h6.2C362.6,136,362.2,138.1,361.5,139.9z M356.4,132.4v-5.5c1.7-0.1,3.2-0.6,4.5-1.5
			c1,1.9,1.6,4.3,1.7,7H356.4z M352.6,121.1c-0.7,0.5-1.4,1.2-2,2c0,0,0,0,0,0c-0.3-0.3-0.5-0.7-0.8-1c0,0,0.1,0,0.1-0.1
			C350.8,121.6,351.7,121.3,352.6,121.1z M348.7,122.8c0.3,0.5,0.7,1,1.2,1.5c0,0,0,0,0,0c-1.2,2.2-2,5-2.1,8.1h-4.5
			c0,0,0-0.1,0-0.1C343.5,128.5,345.5,124.9,348.7,122.8z M343.3,133.7h4.5c0,2.3,0.5,4.5,1.2,6.4c0,0,0,0,0,0
			c-0.8,0.4-1.5,0.9-2.2,1.4c0,0,0,0,0,0C344.7,139.3,343.5,136.6,343.3,133.7z M347.7,142.3c0.5-0.4,1.1-0.8,1.7-1.1c0,0,0,0,0,0
			c0.6,1.3,1.3,2.4,2.1,3.2C350.2,144,348.9,143.2,347.7,142.3z M364.1,141.4c0,0-0.1,0.1-0.1,0.1c-0.4-0.4-0.9-0.7-1.4-1
			c0.8-2,1.3-4.3,1.3-6.8h3.6C367.3,136.6,366.2,139.3,364.1,141.4z"/>
		<g class="st1">
			<circle class="st2" cx="492.2" cy="204.2" r="3.8"/>
			<path class="st2" d="M310.2,155.4c0,2.1-1.7,3.8-3.8,3.8s-3.8-1.7-3.8-3.8c0-2.1,1.7-3.8,3.8-3.8S310.2,153.3,310.2,155.4z"/>
			<circle class="st2" cx="175.7" cy="164.2" r="3.8"/>
			<circle class="st2" cx="146.5" cy="123.4" r="3.8"/>
			<circle class="st2" cx="306" cy="295.6" r="3.8"/>
			<path class="st2" d="M105.2,265c0,2.1-1.7,3.8-3.8,3.8c-2.1,0-3.8-1.7-3.8-3.8c0-2.1,1.7-3.8,3.8-3.8
				C103.5,261.1,105.2,262.9,105.2,265z"/>
			<path class="st2" d="M232.3,240.5c0,2.1-1.7,3.8-3.8,3.8c-2.1,0-3.8-1.7-3.8-3.8c0-2.1,1.7-3.8,3.8-3.8
				C230.6,236.7,232.3,238.4,232.3,240.5z"/>
			<circle class="st2" cx="180.8" cy="86.7" r="3.8"/>
			<path class="st2" d="M478,106.3c0,2.1-1.7,3.8-3.8,3.8c-2.1,0-3.8-1.7-3.8-3.8s1.7-3.8,3.8-3.8C476.2,102.5,478,104.2,478,106.3z
				"/>
			<path class="st3" d="M365.3,81.4h-2.8v-2.8c0-0.5-0.4-0.8-0.8-0.8c-0.5,0-0.8,0.4-0.8,0.8v2.8H358c-0.5,0-0.8,0.4-0.8,0.8
				c0,0.5,0.4,0.8,0.8,0.8h2.8v2.8c0,0.5,0.4,0.8,0.8,0.8c0.5,0,0.8-0.4,0.8-0.8V83h2.8c0.5,0,0.8-0.4,0.8-0.8
				C366.1,81.8,365.8,81.4,365.3,81.4z"/>
			<path class="st3" d="M270.7,87h-2.8v-2.8c0-0.5-0.4-0.8-0.8-0.8c-0.5,0-0.8,0.4-0.8,0.8V87h-2.8c-0.5,0-0.8,0.4-0.8,0.8
				c0,0.5,0.4,0.8,0.8,0.8h2.8v2.8c0,0.5,0.4,0.8,0.8,0.8c0.5,0,0.8-0.4,0.8-0.8v-2.8h2.8c0.5,0,0.8-0.4,0.8-0.8
				C271.5,87.3,271.2,87,270.7,87z"/>
			<path class="st3" d="M205.9,113.1h-2.8v-2.8c0-0.5-0.4-0.8-0.8-0.8c-0.5,0-0.8,0.4-0.8,0.8v2.8h-2.8c-0.5,0-0.8,0.4-0.8,0.8
				c0,0.5,0.4,0.8,0.8,0.8h2.8v2.8c0,0.5,0.4,0.8,0.8,0.8c0.5,0,0.8-0.4,0.8-0.8v-2.8h2.8c0.5,0,0.8-0.4,0.8-0.8
				C206.7,113.5,206.4,113.1,205.9,113.1z"/>
			<path class="st3" d="M64,294.7h-2.8v-2.8c0-0.5-0.4-0.8-0.8-0.8c-0.5,0-0.8,0.4-0.8,0.8v2.8h-2.8c-0.5,0-0.8,0.4-0.8,0.8
				c0,0.5,0.4,0.8,0.8,0.8h2.8v2.8c0,0.5,0.4,0.8,0.8,0.8c0.5,0,0.8-0.4,0.8-0.8v-2.8H64c0.5,0,0.8-0.4,0.8-0.8
				C64.8,295.1,64.4,294.7,64,294.7z"/>
			<path class="st3" d="M161,274.9h-2.8V272c0-0.5-0.4-0.8-0.8-0.8s-0.8,0.4-0.8,0.8v2.8h-2.8c-0.5,0-0.8,0.4-0.8,0.8
				c0,0.5,0.4,0.8,0.8,0.8h2.8v2.8c0,0.5,0.4,0.8,0.8,0.8s0.8-0.4,0.8-0.8v-2.8h2.8c0.5,0,0.8-0.4,0.8-0.8
				C161.8,275.2,161.5,274.9,161,274.9z"/>
			<path class="st3" d="M477.8,173.5H475v-2.8c0-0.5-0.4-0.8-0.8-0.8c-0.5,0-0.8,0.4-0.8,0.8v2.8h-2.8c-0.5,0-0.8,0.4-0.8,0.8
				c0,0.5,0.4,0.8,0.8,0.8h2.8v2.8c0,0.5,0.4,0.8,0.8,0.8c0.5,0,0.8-0.4,0.8-0.8v-2.8h2.8c0.5,0,0.8-0.4,0.8-0.8
				C478.6,173.8,478.2,173.5,477.8,173.5z"/>
			<path class="st3" d="M383.8,59.7H381v-2.8c0-0.5-0.4-0.8-0.8-0.8s-0.8,0.4-0.8,0.8v2.8h-2.8c-0.5,0-0.8,0.4-0.8,0.8
				c0,0.5,0.4,0.8,0.8,0.8h2.8v2.8c0,0.5,0.4,0.8,0.8,0.8s0.8-0.4,0.8-0.8v-2.8h2.8c0.5,0,0.8-0.4,0.8-0.8
				C384.7,60.1,384.3,59.7,383.8,59.7z"/>
			<path class="st3" d="M163.4,198.4h-2.8v-2.8c0-0.5-0.4-0.8-0.8-0.8c-0.5,0-0.8,0.4-0.8,0.8v2.8h-2.8c-0.5,0-0.8,0.4-0.8,0.8
				c0,0.5,0.4,0.8,0.8,0.8h2.8v2.8c0,0.5,0.4,0.8,0.8,0.8c0.5,0,0.8-0.4,0.8-0.8V200h2.8c0.5,0,0.8-0.4,0.8-0.8
				C164.2,198.7,163.8,198.4,163.4,198.4z"/>
			<path class="st3" d="M248.9,264.1h-2.8v-2.8c0-0.5-0.4-0.8-0.8-0.8c-0.5,0-0.8,0.4-0.8,0.8v2.8h-2.8c-0.5,0-0.8,0.4-0.8,0.8
				c0,0.5,0.4,0.8,0.8,0.8h2.8v2.8c0,0.5,0.4,0.8,0.8,0.8c0.5,0,0.8-0.4,0.8-0.8v-2.8h2.8c0.5,0,0.8-0.4,0.8-0.8
				C249.7,264.5,249.3,264.1,248.9,264.1z"/>
		</g>
		<g>
			<g>
				<g>
					<g>
						<path class="st4" d="M449.6,350.6H332.7c-6.3,0-11.3-5.1-11.3-11.3V84.4c0-6.3,5.1-11.3,11.3-11.3h116.9
							c6.3,0,11.3,5.1,11.3,11.3v254.8C461,345.5,455.9,350.6,449.6,350.6z"/>
					</g>
					<rect x="325.4" y="94.8" class="st5" width="131.9" height="227.7"/>
					<g>
						<path class="st5" d="M404.5,86.5h-27.8c-0.5,0-1-0.4-1-1l0,0c0-0.5,0.4-1,1-1h27.8c0.5,0,1,0.4,1,1l0,0
							C405.5,86.1,405.1,86.5,404.5,86.5z"/>
					</g>
				</g>
			</g>
			<g>
				<path class="st3" d="M448.7,348.8H333.6c-6.3,0-11.3-5.1-11.3-11.3V85.3c0-6.3,5.1-11.3,11.3-11.3h115.1
					c6.3,0,11.3,5.1,11.3,11.3v252.1C460.1,343.7,455,348.8,448.7,348.8z"/>
				<rect x="326.2" y="95.5" class="st6" width="130.2" height="225.5"/>
				<path class="st5" d="M404.3,87.3h-27.5c-0.5,0-1-0.4-1-1l0,0c0-0.5,0.4-1,1-1h27.5c0.5,0,1,0.4,1,1l0,0
					C405.3,86.9,404.9,87.3,404.3,87.3z"/>
			</g>
			<path class="st7" d="M405.3,73.3l-81.5,255.6l-1.8-235.8c-0.1-10.6,8.4-19.3,19.1-19.5C365.7,73.3,405.3,72.8,405.3,73.3z"/>
			<linearGradient id="SVGID_1_" gradientUnits="userSpaceOnUse" x1="391.3306" y1="344.0369" x2="391.3306" y2="324.819">
				<stop  offset="0" style="stop-color:#FFFFFF"/>
				<stop  offset="1" style="stop-color:#A7A9AC"/>
			</linearGradient>
			<circle class="st8" cx="391.3" cy="334.4" r="9.6"/>
			<g>
				<g>
					<g>
						<path class="st9" d="M444.6,152.2H338.1c-2.3,0-4.1-1.8-4.1-4.1v-37c0-2.3,1.8-4.1,4.1-4.1h106.5c2.3,0,4.1,1.8,4.1,4.1v37
							C448.7,150.3,446.9,152.2,444.6,152.2z"/>
					</g>
				</g>
			</g>
			<g>
				<g>
					<g>
						<path class="st10" d="M444.9,262.9H386c-2.1,0-3.8-1.7-3.8-3.8v-34.2c0-2.1,1.7-3.8,3.8-3.8h58.9c2.1,0,3.8,1.7,3.8,3.8v34.2
							C448.7,261.2,447,262.9,444.9,262.9z"/>
					</g>
				</g>
			</g>
			<g>
				<g>
					<g>
						<path class="st11" d="M444.1,313.8h-105c-1.6,0-2.9-1.3-2.9-2.9V285c0-1.6,1.3-2.9,2.9-2.9h105c1.6,0,2.9,1.3,2.9,2.9v25.9
							C447,312.5,445.7,313.8,444.1,313.8z"/>
					</g>
				</g>
			</g>
			<g class="st12">
				<line class="st13" x1="336.3" y1="160.5" x2="389.6" y2="160.5"/>
				<line class="st13" x1="398.9" y1="160.5" x2="424.2" y2="160.5"/>
			</g>
			<line class="st14" x1="369.5" y1="167.8" x2="428.3" y2="167.8"/>
			<line class="st14" x1="336.3" y1="167.8" x2="366.1" y2="167.8"/>
			<line class="st14" x1="429.8" y1="160.5" x2="445.5" y2="160.5"/>
			<line class="st14" x1="432.5" y1="167.9" x2="445.5" y2="167.9"/>
			<g class="st12">
				<line class="st13" x1="336.3" y1="174.3" x2="389.6" y2="174.3"/>
				<line class="st13" x1="398.9" y1="174.3" x2="424.2" y2="174.3"/>
			</g>
			<line class="st14" x1="369.5" y1="181.6" x2="428.3" y2="181.6"/>
			<line class="st14" x1="336.3" y1="181.6" x2="366.1" y2="181.6"/>
			<line class="st14" x1="429.8" y1="174.3" x2="445.5" y2="174.3"/>
			<line class="st14" x1="432.5" y1="181.7" x2="445.5" y2="181.7"/>
			<g class="st12">
				<line class="st13" x1="336.3" y1="188.2" x2="394.4" y2="188.2"/>
				<line class="st13" x1="398.9" y1="188.2" x2="424.2" y2="188.2"/>
			</g>
			<line class="st14" x1="369.5" y1="195.5" x2="428.3" y2="195.5"/>
			<line class="st14" x1="336.3" y1="195.5" x2="366.1" y2="195.5"/>
			<line class="st14" x1="429.8" y1="188.2" x2="445.5" y2="188.2"/>
			<line class="st14" x1="432.5" y1="195.5" x2="445.5" y2="195.5"/>
			<g class="st12">
				<line class="st13" x1="336.3" y1="202" x2="356.9" y2="202"/>
				<line class="st13" x1="362.5" y1="202" x2="424.2" y2="202"/>
			</g>
			<line class="st14" x1="369.5" y1="209.3" x2="428.3" y2="209.3"/>
			<line class="st14" x1="336.3" y1="209.3" x2="366.1" y2="209.3"/>
			<line class="st14" x1="429.8" y1="202" x2="445.5" y2="202"/>
			<line class="st14" x1="432.5" y1="209.3" x2="445.5" y2="209.3"/>
			<g class="st12">
				<line class="st13" x1="336.3" y1="215.8" x2="389.6" y2="215.8"/>
				<line class="st13" x1="398.9" y1="215.8" x2="424.2" y2="215.8"/>
			</g>
			<line class="st14" x1="336.3" y1="229.6" x2="353.5" y2="229.6"/>
			<line class="st14" x1="429.8" y1="215.8" x2="445.5" y2="215.8"/>
			<line class="st14" x1="336.3" y1="236.2" x2="377.5" y2="236.2"/>
			<line class="st14" x1="356.2" y1="229.6" x2="378.8" y2="229.6"/>
			<line class="st14" x1="336.3" y1="243.5" x2="375.4" y2="243.5"/>
			<g class="st12">
				<line class="st13" x1="336.3" y1="250" x2="347.5" y2="250"/>
				<line class="st13" x1="355.8" y1="250" x2="377.5" y2="250"/>
			</g>
			<line class="st14" x1="336.3" y1="257.3" x2="377.3" y2="257.3"/>
			<g class="st12">
				<line class="st13" x1="336.3" y1="268.5" x2="389.6" y2="268.5"/>
				<line class="st13" x1="398.9" y1="268.5" x2="424.2" y2="268.5"/>
			</g>
			<line class="st14" x1="369.5" y1="275.8" x2="428.3" y2="275.8"/>
			<line class="st14" x1="336.3" y1="275.8" x2="366.1" y2="275.8"/>
			<line class="st14" x1="429.8" y1="268.5" x2="445.5" y2="268.5"/>
			<g>
				<line class="st14" x1="432.5" y1="275.8" x2="445.5" y2="275.8"/>
			</g>
		</g>
		<g>
			<g>
				<g>
					<path class="st15" d="M191.9,364.8c0,0,13.8,0.6,24.2-8.7c8.3-7.5,14.5-19.9,16.3-25.4c1.8-5.5,2.5-16.4-0.1-18.2
						c-2.6-1.8-50.3,43.6-50.3,43.6L191.9,364.8z"/>
					<path class="st15" d="M130.1,335.3c0,0,5.7-6.5,21.3-6.5c12.1,0,51.7,10.9,51.7,10.9l-17.2,18.4L130.1,335.3z"/>
					<g>
						<polygon class="st16" points="202.3,361.6 194.2,358.1 191.5,363.3 195.1,366.3 201.3,366.3 						"/>
						<path class="st17" d="M195.1,366.3c0,0,2.7,0.3,4.7-2.1c2-2.4,0.9-3.4,2.2-3.5c1.3-0.1,6.9,2.4,12.5,1.9s7.3-1.4,7.6,0.7
							c0.3,2.1-0.4,9.8-7.2,9.5C208.2,372.4,195.1,366.3,195.1,366.3z"/>
					</g>
					<path class="st18" d="M151.4,337.9c8.8,5.4,45.1,17.5,45.1,17.5s1.4,9.3-6.5,12.1c0,0-43.7-12.3-54.1-17.1
						c-10.3-4.7-7.2-13-5.7-15.2C131.6,333.1,140.5,331.3,151.4,337.9z"/>
				</g>
				<path class="st19" d="M184.5,273.5c0.9,0.4,1.5,1.2,1.9,2c0.5,0.9,0.6,2,0.5,3c-0.5,2.7-1.1,7-1.7,11.5
					c-1.1,7.2-2.3,15.1-3.4,18.3c-0.2,0.7,3,4.5,1.6,6.2c0,0.1-0.4,14.6-0.5,14.7c0,0-1.5,1.4-1.5,1.4c-0.6,0.4-2.6,1.2-3.7,0.7
					c-1.2-0.5-27.9,8.2-27.6,7.9c11.2-12.9,20.5-20.1,21.2-21.3c1.4-2.4,0.5-27.5,1-32.4c0.3-2.4,1.2-5.5,2.4-7.5
					c1.3-2,3.1-3.3,4.4-4.3C181.1,272,182.2,272.3,184.5,273.5z"/>
				<path class="st6" d="M212.3,312.5c-1.4,3.7-1.8,7.7-0.9,11.6c1.7,7.7-0.2,8.2-0.2,8.2s-9.2,6.4-18.2,7.4
					c-8.1,0.9-14.9,1.4-14.7-5.5l2.6,2.1c0-0.4,0-0.8,0-1.2c0.3-15.4-2.9-16.1-3.7-33.3c-0.8-17.6-5.1-20-1.2-25
					c5.7-7.4,20.9-11.2,32.9-8.3c9,2.1,12,4.5,11.9,11.2c0,2.2-0.4,4.9-1,8.2C218.2,296.1,214.7,306.2,212.3,312.5z"/>
				<g>
					<path class="st16" d="M203,258.3c-3.4,2.3-5.6,4.1-10.1,4.1c-1.7,0-1-0.7-2.6-1c0.8,0.4-0.8,1.1-0.2,1.2c1.2,0.2,2,1.2,2.1,2.4
						l0.3,5.1l2,4.1l3.5-2.2l5-3.3l-0.5-7.9C202.5,260.9,201.6,259.6,203,258.3z"/>
					<path class="st20" d="M194.8,266.9l0.3,4.7l-0.6,2.6l-2-4.1l-0.3-5.1c-0.1-1.2-0.9-2.2-2.1-2.4c-1.3-0.3-0.7-1.2-2.5-3.2
						c-0.1-0.1-0.2-0.2-0.3-0.4c0.2,0.1,0.5,1.9,4.6,2.4C195,261.8,194.6,263.8,194.8,266.9z"/>
				</g>
				<path class="st19" d="M202.9,265.1c0,0,1.2,0.7,2.4,2.5c0,0-1.7,0.7-3.1,1.6c-1.3,0.8-7.7,5.3-7.7,5.3l-1.9-3.8
					C192.7,270.6,199.3,266.1,202.9,265.1z"/>
				<path class="st19" d="M192.7,270.6c0,0-2.2,0.8-2.9,2.4c0,0-1.1-2.2,0.3-6.1c0,0,1.2-1.2,2.2-1.6L192.7,270.6z"/>
				<g>
					<polygon class="st21" points="202.3,333.7 159.3,333.3 184.9,342.8 					"/>
					<polygon class="st22" points="184.8,343.8 203.2,342.1 203.4,340.6 184.6,342.4 					"/>
				</g>
				<path class="st16" d="M188.3,330.1l-3.5,1.9c0,0-3.4-2.4-6.9,0.2c-3.4,2.6,0.7,9.9,3.2,9.2c2.5-0.7,9.9-6.2,9.9-6.2L188.3,330.1
					z"/>
				<polygon class="st23" points="140.3,343.4 136,344.7 183,345.1 203.5,339.5 159.8,339.9 				"/>
				<path class="st19" d="M205.1,328.1c-6.5,2.1-13.3,12.4-13.3,12.4l-0.6-1c0,0-3.4-1.5-4.3-4.6c-0.4-1.2-0.3-4.8-0.3-4.8
					s16.3-8.2,21.3-13.7c2.4-2.7,2.7-4.9,5-6.1c-0.1-0.2-0.1-0.4-0.2-0.5c-2.5-7.3-2.4-17.7-3.5-22.9c-0.5-2.5-0.4-5.2,0.2-7.6
					c0.4-1.6,1.2-3.2,2.2-4.6c1.6-2.2,3.7-3.9,6.5-3.3c1,0.2,2,0.8,2.6,1.5c0.8,0.8,1.3,1.9,1.5,3c1,7.6,4.3,28.5,4.2,33.2
					c0,0.8-0.2,1.6-0.4,2.3c-0.1,0.2-0.1,0.5-0.2,0.7C223.4,318.9,211.7,326.1,205.1,328.1z"/>
				<g>
					<path class="st24" d="M184.8,343.8l-44.6-4.1c-1.5-0.1-2.7-1.3-2.8-2.8l-3.5-31c-0.2-1.7,1.2-3.1,2.9-2.9l41.7,3.8
						c1.2,0.1,2.2,1.1,2.4,2.3L184.8,343.8z"/>
				</g>
				<g>
					<path class="st25" d="M182.3,245.3c-0.1,0-0.1,0.7-1,1.8c-1,1.1-1.1,3.5-1,3.4c0-0.1-1.9-5.4-1.4-6.7c0.6-1.3,1.7-1.6,2-1.2
						C181.2,243.1,182.3,245.3,182.3,245.3z"/>
					<path class="st16" d="M204.6,254.2c0.1,1.5,0.2,2.8,0.1,3.8c0,0.1,0,0.3-0.1,0.4c0,0.1,0,0.3-0.1,0.4
						c-1.1,4.3-6.5,10.3-10.3,10.8c-0.5,0-1,0.1-1.5,0c-5.3-0.2-8.4-4.6-10.2-9.2c-0.1-0.2-0.1-0.3-0.2-0.5
						c-1.6-4.3-2.1-8.7-2.2-10.2c0-0.4,0-0.6,0-0.6c-0.3-1.7,0-3,0.1-3.5c0.1-0.2,0.1-0.3,0.1-0.3s0.1,0,0.2-0.1
						c1.5-0.5,11.5-3.5,11.7-3.5c0.2,0,10.3,0.7,10.3,0.7S204.1,249.1,204.6,254.2z"/>
					<path class="st26" d="M195.6,246.9"/>
					<path class="st27" d="M206.1,253.9c0.1,1.5,0.2,2.8,0.1,3.8c0,0.1,0,0.3-0.1,0.4c-0.7,4.3-5.9,10.9-11.8,11.5
						c-0.5,0.1-0.9,0.1-1.3,0.1c-6.4,0.3-8.6-4.5-10.3-9.3c-0.1-0.2-0.1-0.3-0.2-0.5c0,0,2.2,3.5,3.3,3.6c1.1,0.1-0.3-1.3,2.7-2.4
						c1.9-0.7,4.8-0.7,6.2-0.5c1.2,0.2,3.5,0.8,4.3,0.9c0.2,0,0.3,0,0.5,0c1.1-0.5,3.2-4.1,3.6-6.4
						C203.1,254.2,205.2,253.8,206.1,253.9z"/>
					<path class="st27" d="M175.9,240.1c0,0,0.3,7.7,12.9,4.6c12.6-3.1,11.6,9.5,11.6,9.5s1.8-4.2,2.3-2.6c0.5,1.6,0,5.8,0,5.8
						s3.5,0.4,3.6-1.3c0.1-1,0.2-15.5-2.3-19c-2.5-3.5-5.5-3.3-5.5-3.3s-3.2-2.7-10.6-0.5c-7.4,2.2-11.4-0.6-11.3-0.4
						C176.5,233.1,175.3,235.2,175.9,240.1z"/>
				</g>
				<path class="st28" d="M200.3,251.4c-0.1-0.5-2.4-0.4-4-0.2c-1.6,0.2-6,0.7-6.9,1.3c-0.9,0.5-0.9,0.9-1.4,0.9
					c-0.5,0.1-0.5-0.3-1.5-0.6c-1-0.3-3.5,0-5.1,0.2c-1.6,0.2-3.2,0.5-3.2,1.1c0,0.5,0.2,1.5,0.6,1.6c0.3,0.1,0.3,0.1,1.5,2.2
					c0.7,1.2,1.7,1.8,3.8,1.4c2.7-0.5,3-2.7,3.2-3.7c0.2-0.9,0.4-1.1,0.9-1.1c0.4-0.1,0.7,0,1.2,0.9c0.5,0.8,0.7,2.8,3.5,2.8
					c3.6,0,5.2-0.9,5.7-2.6c0.8-2.3,0.6-2.3,0.9-2.5c0.1-0.1,0.9-0.4,0.9-0.7C200.4,252.1,200.4,251.7,200.3,251.4z M186.4,256.6
					c-0.1,1.2-1,2.2-2.7,2.5c-1.6,0.2-2.4-0.4-3.2-1.9c-0.7-1.3-0.7-2.4-0.4-2.7c0.3-0.4,1.2-0.4,3.2-0.6c2-0.2,2.7-0.2,3,0.4
					C186.5,254.5,186.6,255.4,186.4,256.6z M198.1,254.9c-0.4,1.7-1.3,2.5-3.5,2.7c-3.2,0.4-3.8-0.5-4.2-1.6c-0.4-1.1-0.5-2-0.5-2.3
					c0.1-0.7,0.8-0.8,2.8-1.2c2-0.3,4.7-0.8,5.1-0.5C198.2,252.5,198.5,253.5,198.1,254.9z"/>
				<g>
					<polygon class="st16" points="170.9,356.4 179,353.2 181.6,358.4 177.9,361.3 171.7,361.1 					"/>
					<path class="st17" d="M177.9,361.3c0,0-2.7,0.2-4.6-2.2c-1.9-2.5-0.8-3.4-2-3.6c-1.3-0.2-7,2.2-12.6,1.5
						c-5.6-0.8-7.3-1.7-7.6,0.4c-0.4,2.1,0.1,9.8,6.9,9.7C164.6,367.1,177.9,361.3,177.9,361.3z"/>
				</g>
				<path class="st18" d="M176.2,350.4c0,0,20.6-16.8,29.2-25.7c8.6-8.9,14.1-17.6,24.1-14.1c10.1,3.5-2.6,22.2-11.8,29.5
					c-9.2,7.3-31.9,23.5-31.9,23.5S173.7,359.3,176.2,350.4z"/>
			</g>
			<circle class="st29" cx="157.3" cy="323.4" r="3.6"/>
		</g>
		<g>
			<path class="st30" d="M259.1,142.4c0,0-0.6-5.6-7-4.4c-6.4,1.2-12.5,6.8-11.2,14.4c1.3,7.6-2.9,7.7-3.9,7.3c0,0,5,5.3,11.7,2.2
				c6.7-3.1,6.3-14.7,6.3-14.7L259.1,142.4z"/>
			<path class="st30" d="M274.6,139.4c0,0,6.8,3.8,1.7,17.2c-1.6,4.3-12-3.4-12-3.4L274.6,139.4z"/>
			<path class="st31" d="M278.9,353.7c0,0,0.9,4,0.8,7.1c-0.4,2.2,0,2.8,0,2.8l8.3-0.7c0,0-3.7-1.8-3.4-10.4
				C284.9,344,278.9,353.7,278.9,353.7z"/>
			<path class="st6" d="M279.6,361.5c0,0,3.6,1.3,7.2,0.3c4.2,1.9,7.1,2.7,11,3.2c3.8,0.5,3.1,3.6-3.4,3.2c-6.5-0.4-11.1-0.1-12.5,0
				c-1.4,0.1-3.8,0.3-3.9-0.7C277.9,366.5,278.4,361.2,279.6,361.5z"/>
			<path class="st31" d="M253.4,353.7c0,0,0.9,4,0.8,7.1c-0.4,2.2,0,2.8,0,2.8l8.3-0.7c0,0-3.7-1.8-3.4-10.4
				C259.4,344,253.4,353.7,253.4,353.7z"/>
			<path class="st6" d="M254.1,361.5c0,0,3.6,1.3,7.2,0.3c4.2,1.9,7.1,2.7,11,3.2c3.8,0.5,3.1,3.6-3.4,3.2c-6.5-0.4-11.1-0.1-12.5,0
				c-1.4,0.1-3.8,0.3-3.9-0.7C252.4,366.5,253,361.2,254.1,361.5z"/>
			<path class="st32" d="M283.5,237.3c0,0,3.8,49,4.1,56.3c0.3,7.3,0.5,15.8,0.2,20.3c-0.3,4.4-1.1,41.9-1.1,41.9s-6.8,3.1-10,0.2
				c0,0-1.8-46.7-3.4-53.7c-1.6-7-7.6-36.3-7.6-36.3l7.1-36.1L283.5,237.3z"/>
			<path class="st18" d="M255,297.7c1.3-10.5-0.9-46.8-0.8-55.8c0.1-9,25.4-4.4,25.4-4.4s-8.1,46.6-9.1,54.2c-1,7.6-2,15.8-2.5,23.1
				c-0.5,7.3-6.4,42-6.4,42s-8,2.1-9.1-0.5C250.3,342.9,255,297.7,255,297.7z"/>
			<path class="st17" d="M435,358.1c-0.2,1,1.7,3.5-0.8,5.7c-2.5,2.2-8.1,4.4-4.4,4.5c3.7,0.1,7.3-0.8,9.2-1.7
				c1.9-0.9,0.4-2.4,2.7-3.1c3.1-1,3.1-1.2,1.6-4.5C441.3,354.3,435.6,355,435,358.1z"/>
			<path class="st33" d="M410.7,202.2c-1.3,3.3-1.6,7-0.8,10.5c1.5,7-0.2,7.4-0.2,7.4s-9.4,6-17.3,8.4c-5.6,1.7-10.4,1.5-10.3-4.8
				l0-0.1c0-0.4,0-0.7,0-1.1c0.3-13.9-2.6-14.6-3.4-30.3c-0.7-16,3.5-24.9,7.8-28.8c4.2-3.9,10-4,20.9-1.4
				c8.2,1.9,10.9,4.1,10.8,10.2c0,2-0.3,4.5-0.9,7.5C416.2,187.4,412.9,196.5,410.7,202.2z"/>
			<path class="st34" d="M391,167.9c0,0-8.5,27.8-6.8,41.2l3.1,5.7l3.4-6.2c0,0-2.8-26.7,2.5-40.2L391,167.9z"/>
			<path class="st35" d="M410.7,202.2c-1.3,3.3-1.6,7-0.8,10.5c1.5,7-0.2,7.4-0.2,7.4s-9.4,6-17.3,8.4l-7.3-0.7l-2.9-2.3l0-1.8
				c0-0.4,0-0.7,0-1.1c1.7,0.2,5.5,0.4,11.1-0.3c4.3-0.5,8.2-1.7,10.8-2.7c1.9-0.7,3-2.7,2.7-4.7c-0.5-2.7-1-6.7-1-9.7
				c0-3.1,1.4-8.3,2.6-12c0.9-2.9,1.2-5.9,1-8.9c-0.4-5.2,0-10.1,0-10.1l5.8-3.1l3.2,1.2c0,2-0.3,4.5-0.9,7.5
				C416.2,187.4,412.9,196.5,410.7,202.2z"/>
			<path class="st36" d="M410.8,231.8c0.7,0.1,2.4-2.9,2.4-2.9l-0.7-1c-0.4-0.5-1-0.9-1.6-1.1l-0.1,0c-0.6-0.2-1.2,0-1.6,0.5
				c-0.5,0.7-1.3,1.6-2.1,1.5h0c0,0-0.1,0-0.1,0C406.2,228.9,410.2,231.7,410.8,231.8z"/>
			<g>
				<path class="st30" d="M384.4,134.9c0,0-0.7,2,0.4,3.6l4.5-6.1l-3.1,0L384.4,134.9z"/>
				<path class="st16" d="M408.8,142.9c-0.2,7.8-7,12.4-7,12.4l0.5,7.1l-4.6,3l-3.1,2l-1.8-3.8l-0.2-4.6c-0.1-1.1-0.8-2-1.9-2.2
					c-1.2-0.3-2.8-0.9-4.5-2.7c-0.1-0.1-0.2-0.2-0.3-0.4c0,0,0,0,0,0c-3-4-4.1-19.5,6.1-23.9C402.5,125.4,409,135.1,408.8,142.9z"/>
				<path class="st20" d="M397.4,161.2l0.3,4.3l-3.1,2l-1.8-3.8l-0.2-4.6c-0.1-1.1-0.8-2-1.9-2.2c-1.2-0.3-2.8-0.9-4.5-2.7
					c-0.1-0.1-0.2-0.2-0.3-0.4c0.2,0.1,2.7,1.6,6.4,2C395.1,156.2,397.2,158.4,397.4,161.2z"/>
				<path class="st30" d="M397.8,145.4c0.4,0.2,0.8-0.5,0.8-0.5s2.2-4.9,3-5.7c1.4-1.4,4.5-1.2,4.8,3c0.2,3.3-3.7,10.3-4.9,12.3
					c-0.2,0.3-0.1,0.8,0.2,1c0.1,0.1,0.3,0.1,0.4,0.2h0.1c0.2,0,0.4-0.1,0.5-0.2c2.5-2.2,13.6-12.8,4.8-22.8c0,0-7,0.5-8,3.8
					c-1.1,3.4-1.8,7.9-1.8,7.9S397.4,145.2,397.8,145.4z"/>
				<path class="st30" d="M384.4,134.9c0,0,6.1-4.8,15.4,1l7.6-1.9c0,0,0.3-0.1,0.2-1.2c-0.2-1.1-1-12.3-14.3-9.8
					C385.6,124.4,380.9,129.7,384.4,134.9z"/>
			</g>
			<path class="st34" d="M390.4,165.5l0,0.4c0.1,0.7,0.3,1.4,0.5,2l0,0l2.3,0.5l2-1.5l-2.3-2.7l-0.4,0.1
				C391.8,164.5,391,164.9,390.4,165.5L390.4,165.5z"/>
			<path class="st35" d="M402.2,159.1c0,0,1.1,0.6,2.2,2.3c0,0-1.5,0.7-2.8,1.5c-1.2,0.7-7,4.8-7,4.8l-1.7-3.5
				C393,164.2,399,160.1,402.2,159.1z"/>
			<path class="st35" d="M393,164.2c0,0-2,0.7-2.6,2.2c0,0-1-2,0.3-5.5c0,0,1.1-1,2-1.4L393,164.2z"/>
			<path class="st37" d="M409,226.9c0,0-1.1,1.3-1.4,1.5c-0.3,0.2-0.4-0.2-0.3-0.5C407.5,227.7,408.9,226.5,409,226.9z"/>
			<path class="st30" d="M402.1,155.7L402.1,155.7c0.2,0,0.4-0.1,0.6-0.2c2.5-2.2,13.6-12.8,4.8-22.8c0,0,0.4,1.7,0.3,3.2
				C407.7,135.9,413.3,145,402.1,155.7z"/>
			<path class="st18" d="M421.8,259.7c0,0,6.6-21.7-12.1-39.6c0,0-10,4.5-18,5c-6.3,0.4-9.5-0.2-9.5-0.2s-0.5,19.3-0.6,29.7
				L421.8,259.7z"/>
			<path class="st18" d="M379.9,295.8c-0.4-9.7,6.8-8.7,11-1.6c13.5,22.6-0.1,51-1.5,67.4c-1.6-2.6-4.6-3.5-5.3-3.5
				c-1.1,0.1-1.8,1-1.8,1C382.6,339.1,380.4,306.2,379.9,295.8z"/>
			<path class="st18" d="M390.6,296.9c-1.2,4-11.6,8.6-10.6-5.9c0.5-6.4,1.8-41.8,2-45.2c0.2-3.4,0.8-8.4,2.5-9
				c8.2-3.1,19.8,7.2,17.6,20C400.7,265.4,393.1,288.7,390.6,296.9z"/>
			<path class="st17" d="M382.4,359.5c-0.4,0.8-2.5,2.8-5.4,4.1c-2.9,1.3-8.9,1.9-5.6,3c3.4,1.1,7.3,0.4,9.3,0.1
				c2-0.3,3.9-0.4,6.3-0.4c3.1,0,3.1-0.2,2.7-3.7C389.2,357.8,383.8,356.7,382.4,359.5z"/>
			<path class="st18" d="M414.5,298.1c-3.3-9.2,3.9-10.3,10-4.8c19.6,17.7,15,48.8,18.4,64.9c-2,1.3-5.1,1.8-6.1,1.8
				c-1.2-0.1-1.7-0.9-1.7-0.9C429.5,339.8,418,307.9,414.5,298.1z"/>
			<path class="st18" d="M425.1,295.4c0.4,4.1-7.6,12.3-12-1.5c-2-6.1-14-39.4-15.1-42.6c-1-3.3-2.4-8.1-1.1-9.3
				c6.5-6,21.1-0.7,23.9,12C422.7,262.5,424.4,286.9,425.1,295.4z"/>
			<path class="st6" d="M276.3,180l12.1,3.3c0,0-1.3,10.2,0,13.2H280c0,0-1.5,4.4-2.2,6.4c-0.8,2,5.7,29,6.7,35.4
				c0,0-3.5,6-31.2,2.9c0,0-1-6.5,2.5-16.4c3.1-8.7-10.8-30.8-10.8-30.8s2.3-16,15.9-18.8C268.8,173.7,268.8,178,276.3,180z"/>
			<path class="st16" d="M274.1,141.5c0,0,6.1,17.9,2.9,23.7c-2.5,4.6-8.1,4-8.1,4V180c0,0-0.6,0.6-1.6,0.6c-1.8,0.1-6.5-3-6.5-3
				v-24.9L274.1,141.5z"/>
			<path class="st16" d="M244.3,199.9c0,0-5.8,26.5-3.6,28.2c2.1,1.7,25,1.7,27.2,2.2c2.3,0.5,13.5,2,18.5-2
				c0.6-0.5-6.4,0.8-7.2-1.1c-0.8-1.9-3.2-2.6-3.2-2.6l-7.7,2.3c0,0-17.5-3.3-18.6-4.4c-1.2-1.1,5.1-22.5,5.1-22.5L244.3,199.9z"/>
			<path class="st38" d="M243.4,199.3c0,0,4-18.1,10-20.5c6-2.4,8.7,6.6,6.1,15.1c-2.5,8.6-3.2,11.7-3.2,11.7S248,205.7,243.4,199.3
				z"/>
			<path class="st16" d="M426.7,192c0,0,5,33.8,2.3,35.9c-2.8,2.1-31.5,3.6-34.4,4.1c-2.9,0.5-14.6,3.6-20.7-1.8
				c-0.8-0.7,6.3-1,7.4-3.4c1.1-2.3,4.1-3.1,4.1-3.1l8.9,3.9c0,0,19-7.5,24.2-8.4c-2.3-3.2-5.5-25.3-5.5-25.3L426.7,192z"/>
			<path class="st33" d="M428.3,193.4c0,0-3.9-24.8-11.4-28.1c-7.5-3.3-12.8,7.4-10,18.3c2.7,11,3.5,15,3.5,15
				S421.6,199.8,428.3,193.4z"/>
			<g>
				<g>
					<g>
						<g>
							<path class="st39" d="M385.5,231.1H275.9c-2.8,0-5-2.2-5-5v-44.7c0-2.8,2.2-5,5-5h109.6c2.8,0,5,2.2,5,5v44.7
								C390.5,228.9,388.2,231.1,385.5,231.1z"/>
						</g>
					</g>
				</g>
				<g>
					<g>
						<g>
							<path class="st6" d="M387.6,229H278c-2.8,0-5-2.2-5-5v-44.7c0-2.8,2.2-5,5-5h109.6c2.8,0,5,2.2,5,5V224
								C392.6,226.7,390.4,229,387.6,229z"/>
						</g>
					</g>
				</g>
				<g>
					<polyline class="st40" points="286.4,179.9 283.4,183.1 286.4,186.4 					"/>
					<polyline class="st40" points="294,179.9 297,183.1 294,186.4 					"/>
					<line class="st40" x1="288.9" y1="186.9" x2="291.3" y2="179.9"/>
					<path class="st41" d="M301.1,187c0,0.5-0.4,0.9-0.8,0.9c-0.5,0-0.8-0.4-0.8-0.9c0-0.5,0.4-0.9,0.8-0.9
						C300.7,186.1,301.1,186.5,301.1,187z"/>
					<path class="st41" d="M304.6,187c0,0.5-0.4,0.9-0.8,0.9s-0.8-0.4-0.8-0.9c0-0.5,0.4-0.9,0.8-0.9S304.6,186.5,304.6,187z"/>
					<ellipse class="st41" cx="307.2" cy="187" rx="0.8" ry="0.9"/>
					<line class="st42" x1="283.4" y1="192.4" x2="383.8" y2="192.4"/>
					<line class="st43" x1="283.4" y1="196.4" x2="343.7" y2="196.4"/>
					<line class="st44" x1="348.4" y1="196.4" x2="383.8" y2="196.4"/>
					<line class="st44" x1="383.8" y1="200.8" x2="334.2" y2="200.8"/>
					<line class="st45" x1="352.2" y1="179.9" x2="384.1" y2="179.9"/>
					<line class="st46" x1="348.7" y1="183.9" x2="384.1" y2="183.9"/>
					<line class="st46" x1="384.1" y1="188.3" x2="334.4" y2="188.3"/>
					<line class="st43" x1="330.1" y1="200.8" x2="324.2" y2="200.8"/>
					<line class="st43" x1="319.5" y1="200.8" x2="313.6" y2="200.8"/>
					<line class="st43" x1="308.9" y1="200.8" x2="303" y2="200.8"/>
					<line class="st43" x1="298.3" y1="200.8" x2="292.4" y2="200.8"/>
					<line class="st47" x1="383.8" y1="206.1" x2="290.5" y2="206.1"/>
					<line class="st43" x1="285.6" y1="200.8" x2="283.4" y2="200.8"/>
					<line class="st43" x1="285.6" y1="206.1" x2="283.4" y2="206.1"/>
					<line class="st43" x1="285.6" y1="211.4" x2="283.4" y2="211.4"/>
					<line class="st43" x1="285.6" y1="216.7" x2="283.4" y2="216.7"/>
					<line class="st48" x1="292.2" y1="211.4" x2="317.8" y2="211.4"/>
					<line class="st48" x1="292.2" y1="216.8" x2="326.2" y2="216.8"/>
					<line class="st46" x1="292.2" y1="222.2" x2="338.3" y2="222.2"/>
					<line class="st49" x1="320.5" y1="211.4" x2="383.8" y2="211.4"/>
					<line class="st49" x1="328.7" y1="216.8" x2="383.8" y2="216.8"/>
					<line class="st46" x1="341.2" y1="222.2" x2="383.8" y2="222.2"/>
				</g>
			</g>
			<path class="st16" d="M304.7,228.1c0,0-2.6-3.3-4.3-3.8c-1.7-0.5-3.5-0.6-4,0.3c-0.4,0.9-1,4.7-0.6,5.4
				C296.2,230.6,303.3,231.7,304.7,228.1z"/>
			<path class="st16" d="M368.7,173.6c0,0,2.7,3.8,4.6,4.5c1.9,0.7,3.9,0.8,4.5-0.1c0.5-0.9,1.3-5.3,1-6
				C378.4,171.2,370.5,169.6,368.7,173.6z"/>
			<path class="st50" d="M251.7,355.6c0.1,0.3,0.2,0.6,0.2,0.9c0,0.2-0.1,0.3-0.1,0.5c0,0.6,0.7,0.9,1.2,1c1.9,0.4,3.9,0.4,5.8,0.3
				c0.9,0,1.9-0.1,2.7-0.5c0.3-0.2,0.6-0.4,0.7-0.8c0.1-0.3,0-0.8-0.3-1c0.3-0.1,0.3-0.7,0-0.9c-0.3-0.2-0.7-0.2-1.1-0.2
				c-1.8,0.1-3.5,0.3-5.2,0.4c-0.9,0-1.7,0-2.6-0.2C252.7,355,251.5,354.5,251.7,355.6z"/>
			<path class="st50" d="M276.3,354.6c0.1,0.3,0.2,0.6,0.2,0.9c0,0.2-0.1,0.3-0.1,0.5c0,0.6,0.7,0.9,1.2,1c1.9,0.4,3.9,0.4,5.8,0.3
				c0.9,0,1.9-0.1,2.7-0.5c0.3-0.2,0.6-0.4,0.7-0.8c0.1-0.3,0-0.8-0.3-1c0.3-0.1,0.3-0.7,0-0.9c-0.3-0.2-0.7-0.2-1.1-0.2
				c-1.8,0.1-3.5,0.3-5.2,0.4c-0.9,0-1.7,0-2.6-0.2C277.3,354,276.1,353.6,276.3,354.6z"/>
			<path class="st30" d="M275.1,144.6c0,0-4.6,10-9,11.8c0,0-1.3-1.8-2.5-0.8c-1.2,1.1,0.5,4.9,1.7,5.3c1.2,0.4-2.4,5.1-4.4,5.4
				c-2,0.3-9.8-9.5-8.2-17.1c1.6-7.6,5.5-8.5,5.5-8.5s5.6-6,16.8-1L275.1,144.6z"/>
		</g>
	</g>
</g>
</svg>
