<?xml version="1.0" encoding="utf-8"?>
<!-- Generator: Adobe Illustrator 22.0.0, SVG Export Plug-In . SVG Version: 6.00 Build 0)  -->
<svg version="1.1" xmlns="http://www.w3.org/2000/svg" xmlns:xlink="http://www.w3.org/1999/xlink" x="0px" y="0px"
	 viewBox="0 0 500 500" style="enable-background:new 0 0 500 500;" xml:space="preserve">
<style type="text/css">
	.st0{fill:#F5F5F5;}
	.st1{fill:#E0E0E0;}
	.st2{fill:#FAFAFA;}
	.st3{fill-rule:evenodd;clip-rule:evenodd;fill:#E0E0E0;}
	.st4{fill:#EBEBEB;}
	.st5{display:none;}
	.st6{display:inline;fill:#EBEBEB;}
	.st7{fill:#263238;}
	.st8{fill:#E8505B;}
	.st9{opacity:0.3;}
	.st10{fill:none;}
	.st11{fill-rule:evenodd;clip-rule:evenodd;fill:#FAFAFA;}
	.st12{fill:#18283B;}
	.st13{fill:#FFFFFF;}
	.st14{fill:#E83D4B;}
	.st15{fill:#FFBE9D;}
	.st16{fill:#EB996E;}
	.st17{opacity:0.2;}
	.st18{fill:#455A64;}
	.st19{opacity:0.5;}
</style>
<g id="Background_Complete">
	<g>
		<g>
			<g>
				<g>
					<path class="st0" d="M407.5,145.1l-19.4-0.1c-2.6,0-4.7,2.2-4.7,4.9l0,3.5c0,2.7-2.1,4.9-4.7,4.9l-37.7-0.2
						c-2.6,0-4.7-2.2-4.7-4.9l0-3.5c0-2.7-2.1-4.9-4.7-4.9l-6.8,0l-16.9-0.1c-8.4,0-15.3,6.8-15.3,15.2l-1,244.4
						c0,8.4,6.8,15.3,15.2,15.3l99.7,0.5c8.4,0,15.3-6.8,15.3-15.2l1-244.4C422.7,152,415.9,145.1,407.5,145.1z"/>
				</g>
			</g>
			<g>
				<g>
					<g>
						<g>
							<g>
								<path class="st1" d="M394.1,387.4L320,387c-0.8,0-1.4-0.8-1.4-1.9l0.1-19.4c0-1,0.6-1.9,1.4-1.9l74.1,0.3
									c0.8,0,1.4,0.8,1.4,1.9l-0.1,19.4C395.5,386.5,394.9,387.4,394.1,387.4z"/>
							</g>
						</g>
						<g>
							<path class="st2" d="M340.5,377.3l0.2-0.5c0.4,0.4,1.1,0.7,1.8,0.7c1,0,1.5-0.4,1.5-1c0-1.6-3.4-0.6-3.4-2.8
								c0-0.9,0.6-1.6,2.1-1.6c0.6,0,1.3,0.2,1.7,0.5l-0.2,0.5c-0.5-0.3-1-0.5-1.5-0.5c-1,0-1.5,0.5-1.5,1c0,1.6,3.4,0.6,3.4,2.8
								c0,0.9-0.7,1.6-2.1,1.6C341.7,378,340.9,377.7,340.5,377.3z"/>
							<path class="st2" d="M345.9,372.2l0.6,0l0,5.8l-0.6,0L345.9,372.2z"/>
						</g>
					</g>
				</g>
			</g>
		</g>
		<g>
			<g>
				
					<rect x="309" y="216.8" transform="matrix(1 4.615700e-03 -4.615700e-03 1 1.0152 -1.4833)" class="st1" width="25.7" height="4.7"/>
			</g>
		</g>
		<g>
			<g>
				<g>
					<path class="st1" d="M410.1,245.9c0,0,0.2,0,0.6-0.1c0.4-0.1,0.9-0.6,1-1.3c0-1.6,0-3.9,0-6.9c0-1.5,0-3.2,0-5
						c0-0.5,0-0.9,0-1.4c0-0.5,0-0.9-0.3-1.3c-0.3-0.4-0.7-0.6-1.2-0.6c-0.5,0-1,0-1.6,0c-4.3,0-9.1,0-14.4,0
						c-21.4-0.1-51-0.2-83.6-0.3c-0.4,0-0.9,0.2-1.1,0.6c-0.3,0.4-0.3,0.8-0.3,1.3c0,1,0,2,0,3c0,2,0,4,0,6c0,1,0,2,0,3
						c0,0.5,0,1,0,1.4c0.1,0.4,0.4,0.7,0.8,0.9c0.2,0.1,0.4,0.1,0.6,0.1l0.7,0l1.5,0c1,0,1.9,0,2.9,0c7.7,0,15.1,0.1,22.2,0.1
						c14.1,0.1,26.9,0.2,37.6,0.2c10.7,0.1,19.3,0.2,25.3,0.2c3,0,5.3,0.1,6.9,0.1c0.8,0,1.4,0,1.8,0
						C409.9,245.8,410.1,245.9,410.1,245.9s-0.2,0-0.6,0c-0.4,0-1,0-1.8,0c-1.6,0-3.9,0-6.9,0c-6,0-14.7,0-25.4,0
						c-10.7,0-23.5-0.1-37.6-0.1c-7.1,0-14.5-0.1-22.2-0.1c-1,0-1.9,0-2.9,0l-1.5,0l-0.7,0c-0.2,0-0.6,0-0.8-0.1
						c-0.5-0.2-0.9-0.7-1.1-1.2c-0.1-0.3-0.1-0.6-0.1-0.8l0-0.7c0-1,0-2,0-3c0-2,0-4,0-6c0-1,0-2,0-3c0-0.3,0-0.5,0-0.8
						c0-0.3,0.2-0.6,0.3-0.8c0.3-0.5,0.9-0.8,1.5-0.8c32.7,0.2,62.2,0.3,83.6,0.5c5.3,0,10.2,0.1,14.4,0.1c0.5,0,1.1,0,1.6,0
						c0.6,0,1.1,0.3,1.4,0.7c0.3,0.4,0.3,1,0.3,1.5c0,0.5,0,0.9,0,1.4c0,1.8,0,3.5,0,5c0,3-0.1,5.3-0.1,6.9
						c-0.1,0.8-0.7,1.3-1.1,1.4C410.4,245.9,410.1,245.9,410.1,245.9z"/>
				</g>
			</g>
		</g>
		<g>
			<g>
				
					<rect x="315.9" y="235" transform="matrix(1 4.619129e-03 -4.619129e-03 1 1.0995 -1.5653)" class="st1" width="47" height="4.4"/>
			</g>
		</g>
		<g>
			<g>
				
					<rect x="308.8" y="259.9" transform="matrix(1 4.615683e-03 -4.615683e-03 1 1.214 -1.482)" class="st1" width="25.7" height="4.7"/>
			</g>
		</g>
		<g>
			<g>
				<g>
					<path class="st1" d="M409.5,288.9c0,0,0.2,0,0.6-0.1c0.4-0.1,0.9-0.4,1.3-1.1c0.2-0.4,0.2-0.8,0.2-1.3c0-0.5,0-1,0-1.6
						c0-1.2,0-2.5,0-4c0-1.5,0-3.2,0-5c0-0.5,0-0.9,0-1.4c0-0.5,0-0.9-0.3-1.3c-0.2-0.4-0.6-0.7-1.1-0.8c-0.4-0.1-1-0.1-1.5-0.1
						c-4.2,0-9.1,0-14.4,0c-21.3-0.1-50.8-0.2-83.3-0.3c-0.9,0-1.7,0.7-1.8,1.6c0,1,0,2,0,3c0,2,0,4,0,6c0,1,0,2,0,3
						c0,0.5-0.1,1,0.1,1.4c0.1,0.4,0.4,0.8,0.7,1c0.4,0.2,0.8,0.3,1.2,0.3l1.5,0c1,0,1.9,0,2.9,0c7.7,0,15.1,0.1,22.1,0.1
						c14.1,0.1,26.8,0.2,37.5,0.2c10.7,0.1,19.3,0.2,25.3,0.2c3,0,5.3,0.1,6.9,0.1c0.8,0,1.4,0,1.8,0
						C409.3,288.9,409.5,288.9,409.5,288.9s-0.2,0-0.6,0c-0.4,0-1,0-1.8,0c-1.6,0-3.9,0-6.9,0c-6,0-14.6,0-25.3,0
						c-10.7,0-23.4-0.1-37.5-0.1c-7.1,0-14.5-0.1-22.1-0.1c-1,0-1.9,0-2.9,0l-1.5,0c-0.5,0-1.1-0.1-1.5-0.4
						c-0.5-0.3-0.8-0.8-0.9-1.3c-0.1-0.6-0.1-1-0.1-1.5c0-1,0-2,0-3c0-2,0-4,0-6c0-1,0-2,0-3.1c0.1-1.2,1.2-2.1,2.3-2.1
						c32.5,0.2,62,0.3,83.3,0.5c5.3,0,10.2,0.1,14.4,0.1c0.5,0,1.1-0.1,1.6,0.1c0.5,0.2,1,0.5,1.2,1c0.3,0.4,0.3,1,0.3,1.5
						c0,0.5,0,0.9,0,1.4c0,1.8,0,3.5,0,5c0,1.5,0,2.8,0,4c0,0.6,0,1.1,0,1.6c0,0.5,0,0.9-0.2,1.3c-0.4,0.7-1,1-1.3,1.1
						C409.7,289,409.5,288.9,409.5,288.9z"/>
				</g>
			</g>
		</g>
		<g>
			<g>
				
					<rect x="308.6" y="304.8" transform="matrix(1 4.596258e-03 -4.596258e-03 1 1.4153 -1.4744)" class="st1" width="25.7" height="4.7"/>
			</g>
		</g>
		<g>
			<g>
				<g>
					<path class="st1" d="M409.3,333.8c0,0,0.2,0,0.6-0.1c0.4-0.1,0.9-0.4,1.3-1.1c0.2-0.4,0.2-0.8,0.2-1.3c0-0.5,0-1,0-1.6
						c0-1.2,0-2.5,0-4c0-1.5,0-3.2,0-5c0-0.5,0-0.9,0-1.4c0-0.5,0-0.9-0.3-1.3c-0.2-0.4-0.6-0.7-1.1-0.8c-0.4-0.1-1-0.1-1.5-0.1
						c-4.2,0-9.1,0-14.4,0c-21.3-0.1-50.8-0.2-83.3-0.3c-0.9,0-1.7,0.7-1.8,1.6c0,1,0,2,0,3c0,2,0,4,0,6c0,1,0,2,0,3
						c0,0.5-0.1,1,0.1,1.4c0.1,0.4,0.4,0.8,0.7,1c0.4,0.2,0.8,0.3,1.2,0.3l1.5,0c1,0,1.9,0,2.9,0c7.7,0,15.1,0.1,22.1,0.1
						c14.1,0.1,26.8,0.2,37.5,0.2c10.7,0.1,19.3,0.2,25.3,0.2c3,0,5.3,0.1,6.9,0.1c0.8,0,1.4,0,1.8,0
						C409.1,333.8,409.3,333.8,409.3,333.8s-0.2,0-0.6,0c-0.4,0-1,0-1.8,0c-1.6,0-3.9,0-6.9,0c-6,0-14.6,0-25.3,0
						c-10.7,0-23.4-0.1-37.5-0.1c-7.1,0-14.5-0.1-22.1-0.1c-1,0-1.9,0-2.9,0l-1.5,0c-0.5,0-1.1-0.1-1.5-0.4
						c-0.5-0.3-0.8-0.8-0.9-1.3c-0.1-0.6-0.1-1-0.1-1.5c0-1,0-2,0-3c0-2,0-4,0-6c0-1,0-2,0-3.1c0.1-1.2,1.2-2.1,2.3-2.1
						c32.5,0.2,62,0.3,83.3,0.5c5.3,0,10.2,0.1,14.4,0.1c0.5,0,1.1-0.1,1.6,0.1c0.5,0.2,1,0.5,1.2,1c0.3,0.4,0.3,1,0.3,1.5
						c0,0.5,0,0.9,0,1.4c0,1.8,0,3.5,0,5c0,1.5,0,2.8,0,4c0,0.6,0,1.1,0,1.6c0,0.5,0,1-0.2,1.3c-0.4,0.7-1,1-1.3,1.1
						C409.5,333.9,409.3,333.8,409.3,333.8z"/>
				</g>
			</g>
		</g>
		<g>
			<g>
				
					<rect x="315.7" y="278.1" transform="matrix(1 4.619090e-03 -4.619090e-03 1 1.2984 -1.564)" class="st1" width="47" height="4.4"/>
			</g>
		</g>
		<g>
			<g>
				<g>
					<path class="st1" d="M320,325.7c0,1.2-0.9,2.2-2.1,2.2c-1.1,0-2.1-1-2-2.2c0-1.2,0.9-2.2,2.1-2.2
						C319.1,323.5,320,324.5,320,325.7z"/>
				</g>
			</g>
			<g>
				<g>
					<path class="st1" d="M326.4,325.7c0,1.2-0.9,2.2-2.1,2.2c-1.1,0-2.1-1-2-2.2c0-1.2,0.9-2.2,2.1-2.2
						C325.5,323.5,326.4,324.5,326.4,325.7z"/>
				</g>
			</g>
			<g>
				<g>
					<path class="st1" d="M332.8,325.7c0,1.2-0.9,2.2-2.1,2.2c-1.1,0-2.1-1-2-2.2c0-1.2,0.9-2.2,2.1-2.2
						C331.8,323.5,332.8,324.5,332.8,325.7z"/>
				</g>
			</g>
			<g>
				<g>
					<path class="st1" d="M339.1,325.8c0,1.2-0.9,2.2-2.1,2.2c-1.1,0-2.1-1-2-2.2c0-1.2,0.9-2.2,2.1-2.2
						C338.2,323.6,339.1,324.5,339.1,325.8z"/>
				</g>
			</g>
			<g>
				<g>
					<path class="st1" d="M345.5,325.8c0,1.2-0.9,2.2-2.1,2.2c-1.1,0-2.1-1-2-2.2c0-1.2,0.9-2.2,2.1-2.2
						C344.6,323.6,345.5,324.6,345.5,325.8z"/>
				</g>
			</g>
			<g>
				<g>
					<path class="st1" d="M351.9,325.8c0,1.2-0.9,2.2-2.1,2.2c-1.1,0-2.1-1-2-2.2c0-1.2,0.9-2.2,2.1-2.2
						C351,323.6,351.9,324.6,351.9,325.8z"/>
				</g>
			</g>
			<g>
				<g>
					<path class="st1" d="M358.2,325.8c0,1.2-0.9,2.2-2.1,2.2c-1.1,0-2.1-1-2-2.2c0-1.2,0.9-2.2,2.1-2.2
						C357.3,323.6,358.2,324.6,358.2,325.8z"/>
				</g>
			</g>
			<g>
				<g>
					<path class="st1" d="M364.6,325.9c0,1.2-0.9,2.2-2.1,2.2c-1.1,0-2.1-1-2-2.2c0-1.2,0.9-2.2,2.1-2.2
						C363.7,323.7,364.6,324.7,364.6,325.9z"/>
				</g>
			</g>
			<g>
				<g>
					<path class="st1" d="M371,325.9c0,1.2-0.9,2.2-2.1,2.2c-1.1,0-2.1-1-2-2.2c0-1.2,0.9-2.2,2.1-2.2
						C370.1,323.7,371,324.7,371,325.9z"/>
				</g>
			</g>
		</g>
		<g>
			<g>
				<path class="st1" d="M361.9,181.5c1.3-0.6,2.3-2,2.3-3.6c0-2.1-1.6-3.9-3.6-3.9c-2,0-3.6,1.7-3.7,3.9c0,1.7,1,3.1,2.3,3.6
					c-5.6,0.8-5.3,6.9-5.3,6.9l13.2,0.1C367.2,188.5,367.5,182.4,361.9,181.5z"/>
			</g>
		</g>
		<g>
			<g>
				
					<rect x="336.2" y="192.4" transform="matrix(1 4.615101e-03 -4.615101e-03 1 0.9048 -1.6586)" class="st1" width="47.2" height="5.6"/>
			</g>
		</g>
	</g>
	<g>
		<path class="st3" d="M174.9,91.3c2.6,2,4.9,4.2,6.9,6.8l8.8-1.6l5.8,13.6l-7.3,5.3c0.5,3.2,0.5,6.4,0.1,9.7l7.4,5.1l-5.5,13.8
			l-8.8-1.4c-2,2.6-4.2,4.9-6.8,6.9l1.6,8.8l-13.6,5.8l-5.3-7.3c-3.2,0.5-6.4,0.5-9.7,0.1l-5.1,7.4l-13.8-5.5l1.4-8.8
			c-2.6-2-4.9-4.2-6.9-6.8l-8.8,1.6l-5.8-13.6l7.3-5.3c-0.5-3.2-0.5-6.4-0.1-9.7l-7.4-5.1l5.5-13.8l8.8,1.4c2-2.6,4.2-4.9,6.8-6.9
			l-1.6-8.8l13.6-5.8l5.3,7.3c3.2-0.5,6.4-0.5,9.7-0.1l5.1-7.4l13.8,5.5L174.9,91.3L174.9,91.3z M159.6,106.1
			c-8.1-3.3-17.4,0.7-20.7,8.8c-3.3,8.1,0.7,17.4,8.8,20.7c8.2,3.3,17.4-0.7,20.7-8.8C171.7,118.6,167.7,109.4,159.6,106.1z"/>
	</g>
	<g>
		<g>
			<g>
				<g>
					<path class="st2" d="M201.3,137.5l-19.8-0.1c-2.7,0-4.8,2.2-4.8,5l0,3.6c0,2.8-2.2,5-4.8,5l-38.6-0.2c-2.7,0-4.8-2.3-4.8-5
						l0-3.6c0-2.8-2.1-5-4.8-5l-7,0L99.4,137c-8.6,0-15.6,6.9-15.6,15.5l-1.1,249.1c0,8.6,6.9,15.6,15.5,15.6l101.9,0.5
						c8.6,0,15.6-6.9,15.6-15.5l1.1-249.1C216.8,144.5,209.9,137.5,201.3,137.5z"/>
				</g>
			</g>
		</g>
		<g>
			<g>
				<rect x="98.8" y="307" class="st1" width="100.8" height="6.7"/>
			</g>
		</g>
		<g>
			<g>
				<g>
					<path class="st1" d="M196,333.5c0,0.2-21.5,0.4-48.1,0.4c-26.5,0-48.1-0.2-48.1-0.4c0-0.2,21.5-0.4,48.1-0.4
						C174.5,333.1,196,333.3,196,333.5z"/>
				</g>
			</g>
		</g>
		<g>
			<g>
				<g>
					<path class="st1" d="M196,173.6c0,0.2-21.5,0.4-48.1,0.4c-26.5,0-48.1-0.2-48.1-0.4c0-0.2,21.5-0.4,48.1-0.4
						C174.5,173.1,196,173.3,196,173.6z"/>
				</g>
			</g>
		</g>
		<g>
			<g>
				<g>
					<path class="st1" d="M196,345.8c0,0.2-21.5,0.4-48.1,0.4c-26.5,0-48.1-0.2-48.1-0.4c0-0.2,21.5-0.4,48.1-0.4
						C174.5,345.4,196,345.5,196,345.8z"/>
				</g>
			</g>
		</g>
		<g>
			<g>
				<g>
					<path class="st1" d="M196,358.1c0,0.2-21.5,0.4-48.1,0.4c-26.5,0-48.1-0.2-48.1-0.4c0-0.2,21.5-0.4,48.1-0.4
						C174.5,357.6,196,357.8,196,358.1z"/>
				</g>
			</g>
		</g>
		<g>
			<g>
				<g>
					<path class="st1" d="M196,370.3c0,0.2-21.5,0.4-48.1,0.4c-26.5,0-48.1-0.2-48.1-0.4c0-0.2,21.5-0.4,48.1-0.4
						C174.5,369.9,196,370.1,196,370.3z"/>
				</g>
			</g>
		</g>
		<g>
			<g>
				<g>
					<path class="st1" d="M196,382.6c0,0.2-21.5,0.4-48.1,0.4c-26.5,0-48.1-0.2-48.1-0.4c0-0.2,21.5-0.4,48.1-0.4
						C174.5,382.2,196,382.4,196,382.6z"/>
				</g>
			</g>
		</g>
		<g>
			<g>
				<g>
					<path class="st1" d="M197.4,396.5c0,0.2-21.5,0.4-48.1,0.4c-26.5,0-48.1-0.2-48.1-0.4c0-0.2,21.5-0.4,48.1-0.4
						C175.9,396.1,197.4,396.3,197.4,396.5z"/>
				</g>
			</g>
		</g>
		<g>
			<g>
				<g>
					<g>
						<g>
							<rect x="99.9" y="187.6" class="st4" width="101.1" height="97.8"/>
						</g>
					</g>
				</g>
			</g>
			<g>
				<g>
					<g>
						<g>
							<polygon class="st1" points="107.8,277 135.7,226.6 158.6,258.8 172.5,241.7 193.1,277 							"/>
						</g>
					</g>
				</g>
			</g>
			<g>
				<g>
					<g>
						<g>
							<path class="st1" d="M168.3,216.9c0,4-3.3,7.3-7.3,7.3c-4,0-7.3-3.3-7.3-7.3s3.3-7.3,7.3-7.3
								C165.1,209.6,168.3,212.8,168.3,216.9z"/>
						</g>
					</g>
				</g>
			</g>
			<g>
				<g>
					<g>
						<g>
							<g>
								<path class="st1" d="M193.1,277.2c0,0,0-0.1,0-0.4c0-0.3,0-0.7,0-1.1c0-1,0-2.5,0-4.4c0-3.9-0.1-9.5-0.1-16.6
									c-0.1-14.3-0.1-34.6-0.2-59l0.4,0.4c-24.7,0-54,0-85.4,0.1c-0.1,0.1,0.9-0.9,0.5-0.5v0v0v0.1v0.2v0.3v0.7v1.4v2.8
									c0,1.8,0,3.7,0,5.5c0,3.7,0,7.3,0,10.9c0,7.2,0,14.2,0,21.1c0,13.7,0,26.6,0,38.5l-0.4-0.4c25.5,0.1,46.8,0.2,61.7,0.2
									c7.5,0,13.3,0.1,17.4,0.1c2,0,3.5,0,4.6,0c0.5,0,0.9,0,1.2,0C193,277.2,193.1,277.2,193.1,277.2c0,0-0.1,0-0.4,0
									c-0.3,0-0.7,0-1.2,0c-1.1,0-2.6,0-4.5,0c-4,0-9.9,0.1-17.3,0.1c-15,0.1-36.4,0.1-62,0.2l-0.4,0v-0.4c0-11.9,0-24.9,0-38.5
									c0-6.8,0-13.9,0-21.1c0-3.6,0-7.2,0-10.9c0-1.8,0-3.7,0-5.5v-2.8l0-1.4v-0.7V196v-0.2v-0.1v0v0c-0.4,0.4,0.6-0.6,0.5-0.5
									c31.3,0,60.7,0,85.4,0.1l0.4,0l0,0.4c-0.1,24.5-0.2,45-0.2,59.3c0,7.1-0.1,12.7-0.1,16.5c0,1.9,0,3.3,0,4.3
									c0,0.5,0,0.8,0,1.1C193.2,277.1,193.2,277.2,193.1,277.2z"/>
							</g>
						</g>
					</g>
				</g>
			</g>
		</g>
	</g>
	<g>
		<g>
			<path class="st1" d="M419.9,91H309.6c-2.2,0-3.9-1.8-3.9-3.9V64c0-2.2,1.8-3.9,3.9-3.9h110.3c2.2,0,3.9,1.8,3.9,3.9v23
				C423.8,89.2,422.1,91,419.9,91z"/>
		</g>
		<g>
			<g>
				<path class="st2" d="M324.5,76.5c1.3-0.6,2.3-2,2.3-3.6c0-2.1-1.6-3.9-3.6-3.9c-2,0-3.6,1.7-3.7,3.9c0,1.7,1,3.1,2.3,3.6
					c-3.1,0.5-4.4,2.5-4.9,4.2c1.3,1.4,3,2.4,5,2.7l2.2,0c2-0.3,3.8-1.3,5.1-2.7C328.8,78.9,327.5,76.9,324.5,76.5z"/>
			</g>
			<g>
				<g>
					<rect x="339.1" y="68.1" class="st2" width="29.1" height="2.2"/>
				</g>
				<g>
					<rect x="339.1" y="80.5" class="st2" width="51" height="2.2"/>
				</g>
				<g>
					<rect x="339.1" y="74.1" class="st2" width="73.9" height="2.2"/>
				</g>
			</g>
		</g>
	</g>
</g>
<g id="Background_Simple" class="st5">
	<path class="st6" d="M61.7,197.5c7.4,21.2,16,41.6,29,60c20.7,29.3,55.7,44.7,89.8,56c33.8,11.2,68.5,19.8,103.6,25.7
		c25.2,4.2,41.5,5.3,66-2c35.4-10.6,72.2-40,84.7-74.8c8-22.2,15-47.8,7-70.1c-8-22.3-32.4-40.4-56-41.6
		c-20.8-1.1-39.8,10.6-57.7,21.3c-17.9,10.7-38.2,21-58.6,16.9c-22.4-4.5-37.8-24.9-48.2-45.3c-10.4-20.3-18.4-42.8-35.2-58.3
		c-17.8-16.5-48.9-26.6-72.2-19.6c-23.3,7-45,27.9-53.9,57.3C60,123,49.7,163.2,61.7,197.5z"/>
</g>
<g id="Floor">
	<g>
		<g>
			<path class="st7" d="M447.7,428.2c0,0.1-91.4,0.3-204,0.3c-112.7,0-204-0.1-204-0.3c0-0.1,91.3-0.3,204-0.3
				C356.3,427.9,447.7,428.1,447.7,428.2z"/>
		</g>
	</g>
</g>
<g id="Plants">
	<g>
		<g>
			<path class="st8" d="M419.9,409.6c-0.7-2.7,1.1-5.3,3.1-7.2c2-1.9,4.3-3.6,5.3-6.2c1.7-4.1-0.5-9.5,2.3-12.9
				c1.7-2,4.6-2.7,6.1-4.8c0.8-1.1,1-2.5,1.3-3.9c1.6-6.8,5-13.2,9.9-18.3c0.3,6.1-1.1,12.3-3.9,17.6c-1.2,2.2-2.6,4.3-3,6.7
				c-0.6,3.9,1.5,8,0.5,11.9c-1.1,4.4-6.1,7.3-6.4,11.9c-0.2,3.8,3.1,7.2,2.8,11.1c-0.1,1.6-0.9,3.1-1.7,4.5c-3,4.9-7.4,8.3-14,8.2
				l-8.1,0.2L419.9,409.6z"/>
		</g>
		<g class="st9">
			<g>
				<path d="M419.9,409.6c-0.7-2.7,1.1-5.3,3.1-7.2c2-1.9,4.3-3.6,5.3-6.2c1.7-4.1-0.5-9.5,2.3-12.9c1.7-2,4.6-2.7,6.1-4.8
					c0.8-1.1,1-2.5,1.3-3.9c1.6-6.8,5-13.2,9.9-18.3c0.3,6.1-1.1,12.3-3.9,17.6c-1.2,2.2-2.6,4.3-3,6.7c-0.6,3.9,1.5,8,0.5,11.9
					c-1.1,4.4-6.1,7.3-6.4,11.9c-0.2,3.8,3.1,7.2,2.8,11.1c-0.1,1.6-0.9,3.1-1.7,4.5c-3,4.9-7.4,8.3-14,8.2l-8.1,0.2L419.9,409.6z"
					/>
			</g>
		</g>
		<g>
			<g>
				<g>
					<g>
						<path class="st7" d="M412.6,428.5c0,0-0.8,0.2-2.2-0.1c-0.7-0.1-1.6-0.3-2.6-0.7c-1-0.4-2.1-0.9-3.2-1.8c-0.5-0.5-1-1-1.3-1.8
							c-0.3-0.8-0.3-1.6-0.4-2.4c0-0.8,0-1.7-0.2-2.6c-0.1-0.9-0.5-1.8-1-2.6c-0.9-1.7-2.5-3.3-3-5.6c-0.5-2.2-0.1-4.7,0.3-7.1
							c0.4-2.4,0.8-5.1-0.1-7.6c-0.9-2.5-2.6-4.8-3.5-7.7c-0.9-2.9-0.4-6-0.6-9.1c-0.1-1.5-0.4-3.1-1-4.5c-0.6-1.4-1.5-2.8-2.3-4.3
							c-1.4-3.1-1.7-6.5-2-9.9c-0.2-1.7-0.4-3.4-0.6-5.2c-0.2-1.8-0.3-3.5-0.9-5.2c-0.5-1.7-1.2-3.3-1.9-5c-0.3-0.8-0.7-1.7-0.9-2.6
							c-0.2-1-0.2-1.9-0.2-2.8c-0.1-1.9,0-3.7,0.2-5.6c0.2-1.9,0.6-3.7,0.8-5.6c0-0.1,0-0.2,0-0.3l0-0.4l0.3,0.2
							c1.7,0.9,3.2,2.2,4.3,3.7c1.2,1.5,2,3.2,2.7,5c1.3,3.5,1.8,7.1,2.5,10.6c0.6,3.5,1.5,6.9,3.3,9.8c0.9,1.4,1.9,2.8,2.9,4.2
							c0.9,1.4,1.7,2.9,2,4.6c0.5,3.4-1.4,6.4-1.1,9.5c0.1,1.5,0.7,2.9,1.5,4.2c0.7,1.3,1.6,2.5,2.4,3.7c0.8,1.2,1.6,2.4,2.2,3.8
							c0.6,1.3,0.9,2.7,1,4.1c0.2,2.7-0.2,5.3,0,7.8c0.2,2.5,1,4.7,2,6.7c1,2,2,3.8,3,5.6c0.5,0.9,0.9,1.7,1.2,2.6
							c0.4,0.9,0.5,1.7,0.7,2.6c0.3,1.7,0.2,3.2,0,4.6c-0.4,2.8-1.4,4.8-2.4,5.9c-0.2,0.3-0.5,0.5-0.7,0.7c-0.2,0.2-0.4,0.3-0.5,0.4
							C412.7,428.4,412.6,428.5,412.6,428.5c0,0,0.7-0.4,1.6-1.5c0.9-1.1,1.9-3.1,2.2-5.8c0.2-1.4,0.2-2.9-0.1-4.6
							c-0.2-0.8-0.3-1.7-0.7-2.5c-0.3-0.8-0.8-1.7-1.2-2.6c-0.9-1.7-2-3.5-3-5.6c-1-2-1.9-4.3-2-6.8c-0.2-2.5,0.2-5.1,0-7.8
							c-0.1-1.3-0.4-2.7-1-3.9c-0.6-1.3-1.3-2.5-2.1-3.7c-0.8-1.2-1.7-2.4-2.4-3.7c-0.8-1.3-1.4-2.8-1.5-4.4
							c-0.4-3.2,1.5-6.3,1.1-9.4c-0.2-1.6-1-3.1-1.9-4.4c-0.9-1.4-2-2.7-2.9-4.2c-1.8-3-2.7-6.5-3.4-10c-0.7-3.5-1.1-7.1-2.4-10.5
							c-0.7-1.7-1.5-3.4-2.6-4.8c-1.1-1.5-2.5-2.7-4.2-3.6l0.4-0.2c0,0.1,0,0.2,0,0.3c-0.2,1.9-0.6,3.8-0.8,5.6
							c-0.2,1.8-0.3,3.7-0.2,5.5c0,0.9,0.1,1.9,0.2,2.7c0.2,0.9,0.6,1.7,0.9,2.5c0.7,1.7,1.4,3.3,1.9,5.1c0.6,1.7,0.7,3.5,0.9,5.3
							c0.2,1.7,0.4,3.5,0.5,5.2c0.4,3.4,0.6,6.8,2,9.8c0.7,1.5,1.6,2.8,2.2,4.3c0.7,1.5,1,3.1,1.1,4.7c0.2,3.1-0.3,6.2,0.6,9
							c0.8,2.8,2.6,5.1,3.5,7.7c0.9,2.6,0.5,5.4,0.1,7.8c-0.4,2.4-0.8,4.8-0.3,7c0.5,2.2,2,3.8,3,5.5c0.5,0.9,0.9,1.8,1,2.7
							c0.1,0.9,0.1,1.8,0.2,2.7c0,0.8,0.1,1.7,0.3,2.4c0.3,0.7,0.7,1.3,1.2,1.7c1.1,0.9,2.2,1.4,3.2,1.8c1,0.4,1.9,0.6,2.6,0.7
							c0.7,0.1,1.3,0.2,1.6,0.2C412.4,428.5,412.6,428.5,412.6,428.5z"/>
					</g>
				</g>
				<g>
					<g>
						<path class="st7" d="M387.5,332.9c0,0,0,0.1,0.1,0.2c0,0.2,0.1,0.4,0.2,0.7c0.2,0.6,0.3,1.6,0.6,2.8c0.3,1.2,1,2.6,1.7,4.2
							c0.6,1.7,1.3,3.6,1.9,5.8c0.6,2.2,1.1,4.6,1.7,7.1c0.6,2.6,1.2,5.3,2.5,7.9c0.7,1.3,1.4,2.7,2,4.1c0.6,1.5,0.9,3.1,1.1,4.7
							c0.4,3.2,0.9,6.5,1.7,9.8c1.6,6.7,3.1,13,4.5,18.8c1.4,5.7,2.7,10.9,3.8,15.3c1,4.3,1.9,7.8,2.5,10.3c0.3,1.2,0.5,2.1,0.7,2.8
							c0.1,0.3,0.1,0.5,0.2,0.7c0,0.2,0,0.3,0,0.3c0,0,0-0.1-0.1-0.2c-0.1-0.2-0.1-0.4-0.2-0.7c-0.2-0.7-0.4-1.6-0.7-2.8
							c-0.6-2.5-1.5-6-2.6-10.3c-1.1-4.4-2.4-9.5-3.9-15.3c-1.4-5.8-2.9-12.1-4.5-18.8c-0.8-3.3-1.3-6.7-1.7-9.9
							c-0.2-1.6-0.5-3.1-1.1-4.5c-0.6-1.4-1.3-2.8-2-4.1c-1.4-2.7-2-5.5-2.5-8.1c-0.5-2.6-1.1-5-1.6-7.1c-0.6-2.2-1.2-4.1-1.8-5.8
							c-0.6-1.7-1.3-3.1-1.6-4.3c-0.3-1.2-0.4-2.2-0.5-2.8c-0.1-0.3-0.1-0.5-0.1-0.7C387.5,332.9,387.5,332.9,387.5,332.9z"/>
					</g>
				</g>
			</g>
			<g>
				<g>
					<path class="st8" d="M411.1,428.5c-5.3-3.2-6.7-12.7-4.5-18.5c2.2-5.7,6.1-11,6.8-17.1c0.5-4.7-1-9.6,0.1-14.2
						c1.5-6.2,7.6-11,7.6-17.4c0-3.6-2-7-1.9-10.6c0.2-4.4,3.6-7.9,5.7-11.7c3.2-5.9,3.5-12.9,4.6-19.5s3.7-13.7,9.6-17
						c0.8,5.6,2.3,9.5,1.8,17.2c-0.2,2.7-3.4,8-3.9,14c-0.3,3.6-0.5,7.2-0.7,10.8c-0.2,3.5-0.5,7.1-1.8,10.3c-1,2.5-2.5,4.8-3.3,7.4
						c-1.4,4.9,0.4,10.2-0.7,15.1c-0.9,4.2-3.9,7.8-4.5,12c-0.9,6,3,12.2,1,17.8c-1,2.8-3.3,5.1-4,8c-0.5,2.3,0,4.7-0.5,6.9
						c-0.8,3.7-7.8,6.5-11.5,6.2"/>
				</g>
				<g>
					<g>
						<path class="st7" d="M437.7,308.2c0,0,0,0.1,0,0.3c0,0.2-0.1,0.5-0.1,0.9c-0.1,0.8-0.3,2-0.6,3.6c-0.3,1.6-1.1,3.3-1.8,5.4
							c-0.7,2.1-1.4,4.5-2,7.2c-0.6,2.7-1.1,5.7-1.7,8.9c-0.6,3.2-1.1,6.8-2.8,10.1c-0.8,1.7-1.6,3.4-2.2,5.2
							c-0.7,1.8-1,3.7-1.1,5.7c-0.3,4-0.9,8.1-1.6,12.3c-1.7,8.3-3.3,16.3-4.7,23.5c-1.5,7.2-2.9,13.7-4,19.2
							c-1.2,5.4-2.1,9.8-2.8,12.9c-0.3,1.5-0.6,2.7-0.8,3.5c-0.1,0.4-0.2,0.7-0.2,0.9c-0.1,0.2-0.1,0.3-0.1,0.3c0,0,0-0.1,0-0.3
							c0-0.2,0.1-0.5,0.2-0.9c0.2-0.8,0.4-2,0.7-3.5c0.6-3.1,1.5-7.5,2.6-12.9c1.1-5.5,2.5-12,3.9-19.2c1.4-7.2,3-15.2,4.7-23.5
							c0.8-4.2,1.3-8.3,1.6-12.3c0.2-2,0.5-4,1.2-5.8c0.7-1.8,1.5-3.5,2.3-5.2c1.6-3.3,2.2-6.8,2.8-10c0.6-3.2,1.1-6.2,1.8-9
							c0.6-2.7,1.3-5.1,2.1-7.2c0.7-2.1,1.5-3.8,1.8-5.4c0.3-1.5,0.5-2.7,0.6-3.5c0.1-0.4,0.1-0.7,0.2-0.9
							C437.6,308.3,437.7,308.2,437.7,308.2z"/>
					</g>
				</g>
			</g>
		</g>
	</g>
</g>
<g id="Gears">
	<g>
		<g>
			<path class="st10" d="M237.1,74.5c1.5,1.1,2.8,2.4,3.9,3.9l5-0.9l3.3,7.8l-4.1,3c0.3,1.8,0.3,3.7,0.1,5.5l4.2,2.9l-3.2,7.8
				l-5-0.8c-1.1,1.5-2.4,2.8-3.9,3.9l0.9,5l-7.8,3.3l-3-4.1c-1.8,0.3-3.7,0.3-5.5,0.1l-2.9,4.2l-7.9-3.2l0.8-5
				c-1.5-1.1-2.8-2.4-3.9-3.9l-5,0.9l-3.3-7.8l4.1-3c-0.3-1.8-0.3-3.7-0.1-5.5l-4.2-2.9l3.2-7.8l5,0.8c1.1-1.5,2.4-2.8,3.9-3.9
				l-0.9-5l7.8-3.3l3,4.1c1.8-0.3,3.7-0.3,5.5-0.1l2.9-4.2l7.8,3.2L237.1,74.5L237.1,74.5z M228.3,82.9c-4.7-1.9-9.9,0.4-11.8,5
				c-1.9,4.7,0.4,9.9,5,11.8c4.7,1.9,9.9-0.4,11.8-5C235.2,90.1,233,84.8,228.3,82.9z"/>
		</g>
		<g>
			<g>
				<path class="st7" d="M228.3,82.9c0,0,0.8,0.2,2,1c1.2,0.8,2.8,2.4,3.5,5c0.4,1.3,0.5,2.7,0.2,4.3c-0.3,1.5-1,3.1-2.2,4.4
					c-0.6,0.7-1.3,1.2-2,1.7c-0.8,0.5-1.6,0.9-2.6,1.1c-1.8,0.5-3.9,0.4-5.8-0.4c-1.9-0.8-3.5-2.1-4.4-3.7c-0.5-0.8-0.9-1.7-1.1-2.6
					c-0.2-0.9-0.3-1.8-0.3-2.7c0-1.8,0.7-3.4,1.5-4.7c0.8-1.3,2-2.3,3.1-2.9c2.3-1.3,4.6-1.4,6-1.1
					C227.6,82.5,228.3,82.9,228.3,82.9c0,0.1-0.8-0.3-2.2-0.5c-1.4-0.2-3.6-0.1-5.8,1.3c-1.1,0.7-2.1,1.6-2.9,2.9
					c-0.8,1.3-1.3,2.8-1.4,4.5c0,0.8,0.1,1.7,0.3,2.5c0.2,0.8,0.6,1.7,1,2.4c0.9,1.5,2.4,2.8,4.2,3.5c1.8,0.7,3.7,0.8,5.5,0.4
					c0.9-0.2,1.7-0.6,2.4-1c0.7-0.4,1.4-1,2-1.6c1.1-1.2,1.8-2.7,2.1-4.2c0.3-1.5,0.2-2.9-0.1-4.1c-0.7-2.5-2.2-4.1-3.3-4.9
					C229.1,83.3,228.3,83,228.3,82.9z"/>
			</g>
		</g>
		<g>
			<g>
				<path class="st7" d="M237.1,74.5c0,0,0-0.1,0-0.3c0-0.2,0.1-0.6,0.1-1c0.1-0.9,0.3-2.1,0.6-3.8l0.1,0.1c-2-0.8-4.7-1.8-7.9-3.1
					l0.2,0c-0.9,1.3-1.8,2.7-2.9,4.2l-0.1,0.1l-0.1,0c-1.7-0.2-3.6-0.2-5.5,0.1l-0.1,0l-0.1-0.1c-0.9-1.3-2-2.7-3-4.1l0.2,0.1
					c-2.4,1.1-5,2.2-7.8,3.3l0.1-0.2c0.3,1.6,0.6,3.3,0.9,5l0,0.1l-0.1,0.1c-1.3,1-2.7,2.4-3.8,3.9L208,79l-0.1,0
					c-1.6-0.2-3.3-0.5-5-0.8l0.3-0.1c-1,2.5-2.1,5.1-3.1,7.9l-0.1-0.3c1.3,0.9,2.7,1.9,4.2,2.9l0.1,0.1l0,0.1
					c-0.2,1.7-0.2,3.6,0.1,5.4l0,0.2l-0.1,0.1c-1.3,0.9-2.7,2-4.1,3l0.1-0.3c1.1,2.5,2.2,5.1,3.3,7.8l-0.3-0.2
					c1.6-0.3,3.3-0.6,5-0.9l0.2,0l0.1,0.1c1.1,1.4,2.4,2.7,3.9,3.8l0,0l0,0c0,0.1-0.1-0.2,0.1,0.3l0,0l0,0l0,0l0,0l0,0.1l0,0.2
					l-0.1,0.3l-0.1,0.6l-0.2,1.3c-0.1,0.8-0.3,1.7-0.4,2.5l-0.2-0.3c2.7,1.1,5.3,2.1,7.8,3.2l-0.3,0.1c1-1.4,1.9-2.8,2.9-4.2
					l0.1-0.1l0.2,0c1.8,0.2,3.7,0.2,5.4-0.1l0.2,0l0.1,0.1c1,1.4,2,2.8,3,4.1l-0.3-0.1c2.7-1.1,5.3-2.2,7.8-3.3l-0.1,0.3
					c-0.3-1.7-0.6-3.4-0.9-5l0-0.1l0.1-0.1c1.5-1.1,2.8-2.5,3.8-3.9l0.1-0.1l0.1,0c1.7,0.3,3.4,0.6,5,0.8l-0.2,0.1
					c1.1-2.8,2.2-5.4,3.2-7.8l0.1,0.2c-1.5-1-2.9-2-4.2-2.9l-0.1-0.1l0-0.1c0.2-1.9,0.2-3.8,0-5.5l0-0.1l0.1-0.1
					c1.5-1.1,2.9-2.1,4.2-3l-0.1,0.2c-1.3-3-2.4-5.6-3.3-7.8l0.1,0.1c-2,0.4-3.7,0.6-5,0.9l-0.1,0l0,0c-1.1-1.5-2.2-2.4-2.8-3
					c-0.3-0.3-0.6-0.5-0.8-0.7C237.1,74.6,237.1,74.5,237.1,74.5c0,0,0.1,0.1,0.3,0.2c0.2,0.1,0.5,0.3,0.8,0.6
					c0.7,0.6,1.7,1.5,2.9,3l-0.1,0c1.4-0.3,3-0.6,5-1l0.1,0l0,0.1c0.9,2.2,2.1,4.8,3.4,7.8l0,0.1l-0.1,0.1c-1.3,0.9-2.6,1.9-4.1,3
					l0.1-0.2c0.3,1.7,0.3,3.6,0.1,5.6l-0.1-0.2c1.3,0.9,2.7,1.9,4.2,2.9l0.1,0.1l-0.1,0.1c-1,2.5-2,5.1-3.1,7.9l-0.1,0.2l-0.2,0
					c-1.6-0.3-3.3-0.5-5-0.8l0.2-0.1c-1.1,1.5-2.4,2.8-3.9,4l0.1-0.2c0.3,1.6,0.6,3.3,0.9,5l0,0.2l-0.2,0.1
					c-2.5,1.1-5.1,2.2-7.8,3.3l-0.2,0.1l-0.1-0.2c-1-1.4-2-2.7-3-4.1l0.2,0.1c-1.8,0.3-3.7,0.3-5.6,0.1l0.2-0.1
					c-1,1.4-1.9,2.8-2.9,4.2l-0.1,0.2l-0.2-0.1c-2.6-1-5.2-2.1-7.9-3.2l-0.2-0.1l0-0.2c0.1-0.8,0.3-1.7,0.4-2.5l0.2-1.3l0.1-0.6
					l0.1-0.3l0-0.2l0-0.1l0,0l0,0l0,0l0,0c0.2,0.5,0.1,0.1,0.1,0.2l0,0l0,0c-1.5-1.1-2.9-2.5-4-3.9l0.3,0.1c-1.7,0.3-3.4,0.6-5,0.9
					l-0.2,0l-0.1-0.2c-1.1-2.7-2.3-5.3-3.3-7.8l-0.1-0.2l0.2-0.1c1.4-1,2.8-2.1,4.1-3l-0.1,0.2c-0.3-1.9-0.3-3.8-0.1-5.6l0.1,0.2
					c-1.5-1-2.9-2-4.2-2.9l-0.2-0.1l0.1-0.2c1.1-2.7,2.2-5.4,3.2-7.8l0.1-0.2l0.2,0c1.8,0.3,3.5,0.6,5,0.8l-0.2,0.1
					c1.2-1.6,2.5-2.9,3.9-4l-0.1,0.2c-0.3-1.8-0.6-3.5-0.9-5l0-0.2l0.2-0.1c2.7-1.2,5.3-2.3,7.8-3.3l0.1-0.1l0.1,0.1
					c1,1.5,2.1,2.9,3,4.2l-0.2-0.1c1.9-0.3,3.8-0.3,5.6,0l-0.1,0.1c1.1-1.5,2-2.9,2.9-4.2l0.1-0.1l0.1,0c3.2,1.3,5.8,2.4,7.8,3.2
					l0.1,0l0,0.1c-0.3,1.6-0.5,2.9-0.6,3.7c-0.1,0.4-0.1,0.7-0.2,1C237.1,74.4,237.1,74.5,237.1,74.5z"/>
			</g>
		</g>
	</g>
	<g>
		<g>
			<path class="st11" d="M353.5,271.5c1.9,1.4,3.6,3.1,5,4.9l6.4-1.2l4.2,9.8l-5.2,3.8c0.3,2.3,0.4,4.6,0.1,7l5.3,3.7l-4,9.9l-6.4-1
				c-1.4,1.9-3.1,3.6-4.9,5l1.2,6.4l-9.8,4.2l-3.8-5.2c-2.3,0.3-4.6,0.4-7,0.1l-3.7,5.3l-9.9-4l1-6.4c-1.9-1.4-3.6-3.1-5-4.9
				l-6.4,1.2l-4.2-9.8l5.2-3.8c-0.3-2.3-0.4-4.6-0.1-7l-5.3-3.7l4-9.9l6.4,1c1.4-1.9,3.1-3.6,4.9-5l-1.2-6.4l9.8-4.2l3.8,5.2
				c2.3-0.3,4.6-0.4,7-0.1l3.7-5.3l9.9,4L353.5,271.5L353.5,271.5z M342.4,282.1c-5.9-2.4-12.6,0.5-14.9,6.4
				c-2.4,5.9,0.5,12.6,6.4,14.9c5.9,2.4,12.6-0.5,14.9-6.4C351.1,291.2,348.3,284.5,342.4,282.1z"/>
		</g>
		<g>
			<g>
				<path class="st10" d="M353.5,271.5c1.9,1.4,3.6,3.1,5,4.9l6.4-1.2l4.2,9.8l-5.2,3.8c0.3,2.3,0.4,4.6,0.1,7l5.3,3.7l-4,9.9
					l-6.4-1c-1.4,1.9-3.1,3.6-4.9,5l1.2,6.4l-9.8,4.2l-3.8-5.2c-2.3,0.3-4.6,0.4-7,0.1l-3.7,5.3l-9.9-4l1-6.4
					c-1.9-1.4-3.6-3.1-5-4.9l-6.4,1.2l-4.2-9.8l5.2-3.8c-0.3-2.3-0.4-4.6-0.1-7l-5.3-3.7l4-9.9l6.4,1c1.4-1.9,3.1-3.6,4.9-5
					l-1.2-6.4l9.8-4.2l3.8,5.2c2.3-0.3,4.6-0.4,7-0.1l3.7-5.3l9.9,4L353.5,271.5L353.5,271.5z M342.4,282.1
					c-5.9-2.4-12.6,0.5-14.9,6.4c-2.4,5.9,0.5,12.6,6.4,14.9c5.9,2.4,12.6-0.5,14.9-6.4C351.1,291.2,348.3,284.5,342.4,282.1z"/>
			</g>
			<g>
				<g>
					<path class="st7" d="M342.4,282.1c0,0,1,0.3,2.5,1.3c1.5,1,3.5,3,4.4,6.3c0.4,1.6,0.6,3.5,0.2,5.4c-0.4,1.9-1.2,3.9-2.7,5.5
						c-0.7,0.8-1.6,1.6-2.6,2.2c-1,0.6-2.1,1.1-3.2,1.4c-2.3,0.6-4.9,0.5-7.3-0.5c-2.4-1-4.3-2.7-5.6-4.7c-0.6-1-1.1-2.1-1.4-3.2
						c-0.3-1.1-0.4-2.2-0.4-3.3c0.1-2.2,0.8-4.2,1.8-5.9c1-1.7,2.5-2.9,3.9-3.7c2.9-1.7,5.7-1.8,7.5-1.5
						C341.5,281.6,342.4,282.1,342.4,282.1c0,0.1-1-0.4-2.7-0.6c-1.8-0.2-4.5-0.1-7.3,1.6c-1.4,0.8-2.7,2-3.7,3.6
						c-1,1.6-1.7,3.6-1.7,5.7c0,1.1,0.1,2.1,0.4,3.2c0.3,1.1,0.7,2.1,1.3,3.1c1.2,2,3.1,3.6,5.3,4.5c2.3,0.9,4.7,1,7,0.4
						c1.1-0.3,2.2-0.7,3.1-1.3c0.9-0.6,1.8-1.3,2.5-2.1c1.4-1.6,2.3-3.5,2.7-5.3c0.4-1.8,0.2-3.6-0.2-5.2c-0.8-3.1-2.8-5.1-4.2-6.2
						C343.4,282.5,342.4,282.2,342.4,282.1z"/>
				</g>
			</g>
			<g>
				<g>
					<path class="st7" d="M353.5,271.5c0,0,0-0.1,0-0.4c0-0.3,0.1-0.7,0.2-1.2c0.2-1.1,0.4-2.7,0.7-4.8l0.1,0.1
						c-2.5-1-5.9-2.3-9.9-3.9l0.2,0c-1.1,1.6-2.3,3.4-3.7,5.3l-0.1,0.1l-0.1,0c-2.2-0.3-4.5-0.3-6.9,0.1l-0.1,0l-0.1-0.1
						c-1.2-1.6-2.5-3.4-3.8-5.2l0.2,0.1c-3.1,1.3-6.4,2.7-9.8,4.2l0.1-0.2c0.4,2,0.8,4.1,1.2,6.4l0,0.1l-0.1,0.1
						c-1.7,1.3-3.4,3-4.8,4.9l-0.1,0.1l-0.1,0c-2-0.3-4.2-0.7-6.4-1l0.3-0.1c-1.2,3.1-2.6,6.5-4,9.9l-0.1-0.3
						c1.7,1.1,3.5,2.4,5.3,3.7l0.1,0.1l0,0.1c-0.3,2.1-0.3,4.5,0.1,6.9l0,0.2l-0.1,0.1c-1.6,1.2-3.4,2.5-5.2,3.8l0.1-0.3
						c1.3,3.1,2.8,6.5,4.2,9.8l-0.3-0.2c2-0.4,4.2-0.8,6.4-1.2l0.2,0l0.1,0.1c1.3,1.7,3,3.4,4.9,4.8l0,0l0.1,0.1l0,0.2
						c-0.3,2.1-0.7,4.3-1,6.4l-0.2-0.3c3.4,1.3,6.7,2.7,9.9,4l-0.3,0.1c1.2-1.8,2.5-3.6,3.7-5.3l0.1-0.1l0.2,0
						c2.3,0.3,4.6,0.3,6.9-0.1l0.2,0l0.1,0.1c1.3,1.8,2.5,3.5,3.8,5.2l-0.3-0.1c3.4-1.4,6.6-2.8,9.8-4.2l-0.1,0.3
						c-0.4-2.2-0.8-4.3-1.2-6.4l0-0.1l0.1-0.1c1.9-1.5,3.5-3.1,4.8-4.9l0.1-0.1l0.1,0c2.2,0.4,4.3,0.7,6.4,1l-0.2,0.1
						c1.4-3.5,2.7-6.8,4-9.9l0.1,0.2c-1.9-1.3-3.6-2.5-5.3-3.7l-0.1-0.1l0-0.1c0.3-2.5,0.2-4.8-0.1-6.9l0-0.1l0.1-0.1
						c1.9-1.4,3.6-2.6,5.2-3.8l-0.1,0.2c-1.6-3.8-3-7.1-4.2-9.9l0.1,0.1c-2.5,0.5-4.6,0.8-6.4,1.1l-0.1,0l0,0
						c-1.4-1.9-2.7-3.1-3.6-3.8c-0.4-0.4-0.8-0.7-1-0.8C353.6,271.6,353.5,271.5,353.5,271.5s0.1,0.1,0.4,0.2c0.2,0.2,0.6,0.4,1,0.8
						c0.9,0.7,2.2,1.9,3.7,3.8l-0.1,0c1.7-0.3,3.8-0.7,6.4-1.2l0.1,0l0,0.1c1.2,2.8,2.6,6,4.2,9.8l0,0.1l-0.1,0.1
						c-1.6,1.2-3.3,2.4-5.2,3.8l0.1-0.2c0.3,2.2,0.4,4.5,0.1,7l-0.1-0.2c1.7,1.2,3.5,2.4,5.3,3.7l0.1,0.1l-0.1,0.1
						c-1.3,3.1-2.6,6.4-4,9.9l-0.1,0.2l-0.2,0c-2.1-0.3-4.2-0.7-6.4-1l0.2-0.1c-1.4,1.8-3,3.6-4.9,5l0.1-0.2
						c0.4,2.1,0.8,4.2,1.2,6.4l0,0.2l-0.2,0.1c-3.2,1.4-6.5,2.8-9.8,4.2l-0.2,0.1l-0.1-0.2c-1.2-1.7-2.5-3.5-3.8-5.2l0.2,0.1
						c-2.3,0.3-4.7,0.4-7,0.1l0.2-0.1c-1.2,1.8-2.4,3.5-3.7,5.3l-0.1,0.2l-0.2-0.1c-3.3-1.3-6.6-2.6-9.9-4l-0.2-0.1l0-0.2
						c0.3-2.1,0.7-4.2,1-6.4l0.1,0.2l0,0c-1.9-1.4-3.7-3.2-5-4.9l0.3,0.1c-2.2,0.4-4.4,0.8-6.4,1.2l-0.2,0l-0.1-0.2
						c-1.4-3.4-2.9-6.7-4.2-9.8l-0.1-0.2l0.2-0.1c1.8-1.3,3.6-2.6,5.2-3.8l-0.1,0.2c-0.4-2.4-0.3-4.9-0.1-7l0.1,0.2
						c-1.8-1.3-3.7-2.5-5.3-3.7l-0.2-0.1l0.1-0.2c1.4-3.4,2.7-6.8,4-9.9l0.1-0.2l0.2,0c2.2,0.4,4.4,0.7,6.4,1l-0.2,0.1
						c1.5-2,3.2-3.7,4.9-5l-0.1,0.2c-0.4-2.2-0.8-4.4-1.2-6.4l0-0.2l0.2-0.1c3.5-1.5,6.7-2.9,9.8-4.2l0.1-0.1l0.1,0.1
						c1.3,1.8,2.6,3.6,3.8,5.2l-0.2-0.1c2.5-0.4,4.8-0.3,7-0.1l-0.1,0.1c1.3-1.9,2.6-3.7,3.7-5.3l0.1-0.1l0.1,0c4,1.6,7.4,3,9.9,4
						l0.1,0l0,0.1c-0.4,2.1-0.6,3.6-0.8,4.7c-0.1,0.5-0.2,0.9-0.2,1.2C353.5,271.3,353.5,271.5,353.5,271.5z"/>
				</g>
			</g>
		</g>
	</g>
</g>
<g id="Device">
	<g>
		<g>
			<g>
				<g>
					<g>
						<path class="st12" d="M305.4,428.2l-110.9-0.1c-13.3,0-24.2-10.8-24.1-24.2l0.1-278.1c0-13.3,10.8-24.2,24.2-24.2l110.9,0.1
							c13.3,0,24.2,10.8,24.1,24.2L329.6,404C329.6,417.4,318.8,428.2,305.4,428.2z"/>
					</g>
				</g>
				<g>
					<g>
						<path class="st13" d="M305.4,111.6l-21.5,0c-2.9,0-5.2,2.4-5.2,5.5l0,3.9c0,3-2.3,5.5-5.2,5.5l-41.9,0c-2.9,0-5.2-2.4-5.2-5.5
							l0-3.9c0-3-2.3-5.5-5.2-5.5l-7.6,0l-18.8,0c-9.3,0-16.9,7.6-16.9,16.9l-0.1,271.4c0,9.3,7.6,16.9,16.9,16.9l110.7,0.1
							c9.3,0,16.9-7.6,16.9-16.9l0.1-271.4C322.3,119.2,314.7,111.6,305.4,111.6z"/>
					</g>
				</g>
			</g>
		</g>
		<g>
			<g>
				<g>
					<path class="st7" d="M217,177.8c0,0,0.2,0.2,0.7,0.5c0.5,0.4,1.1,0.9,1.9,1.5l0.1,0.1l-0.1,0.1c-1,1.2-2.3,2.7-3.9,4.6l0-0.2
						c2.5,2.5,5.5,5.5,9,9l-0.3,0c1.2-1.3,2.5-2.8,3.8-4.2l0.1-0.1l0.2,0.1c1.2,0.6,2.4,1.4,3.5,2.3c1.1,0.9,2.1,2.1,2.5,3.6
						c0.1,0.4,0.2,0.8,0.1,1.2l0,0.6l-0.2,0.6c-0.1,0.4-0.3,0.7-0.5,1.1c-0.2,0.4-0.4,0.7-0.7,1c-1,1.2-2.4,2.1-4,2.5
						c-1.6,0.3-3.3,0.1-4.7-0.5c-0.7-0.3-1.4-0.7-2-1.2c-0.6-0.5-1.1-1-1.6-1.6c-2.1-2.1-4.1-4.1-6.1-6c-1.9-1.9-3.8-3.7-5.5-5.4
						c-0.4-0.4-0.8-0.8-1.3-1.3c-0.4-0.4-0.8-0.8-1.2-1.3c-0.7-0.9-0.9-2.1-0.7-3.2c0.4-2.1,1.9-3.6,3.3-4.4c1.5-0.8,3-0.8,4.1-0.6
						c1.2,0.2,2,0.6,2.5,0.9c0.3,0.2,0.4,0.3,0.6,0.4C216.9,177.7,217,177.8,217,177.8c0,0.1-1-0.9-3.2-1.3c-1.1-0.2-2.6-0.1-4,0.7
						c-1.4,0.7-2.8,2.2-3.1,4.2c-0.2,1,0.1,2,0.7,2.9c0.3,0.4,0.7,0.8,1.1,1.2c0.4,0.4,0.8,0.8,1.3,1.2c1.7,1.7,3.6,3.5,5.5,5.4
						c1.9,1.9,4,3.9,6.1,6c0.5,0.5,1,1.1,1.6,1.5c0.6,0.5,1.2,0.8,1.9,1.1c1.4,0.6,2.9,0.8,4.4,0.5c1.5-0.3,2.8-1.1,3.7-2.3
						c0.2-0.3,0.5-0.6,0.6-0.9c0.2-0.3,0.4-0.6,0.5-1l0.2-0.5l0-0.5c0.1-0.3-0.1-0.7-0.1-1c-0.3-1.4-1.3-2.5-2.4-3.4
						c-1-0.9-2.2-1.7-3.4-2.2l0.3-0.1c-1.3,1.5-2.6,2.9-3.9,4.2l-0.2,0.2l-0.2-0.2c-3.5-3.5-6.5-6.6-8.9-9.1l-0.1-0.1l0.1-0.1
						c1.6-1.8,3-3.3,4-4.5l0,0.1c-0.8-0.7-1.4-1.2-1.9-1.6C217.2,178,217,177.8,217,177.8z"/>
				</g>
			</g>
			<g>
				<g>
					<path class="st7" d="M237.1,210.2c0,0,0.6,0,1.6-0.3c1-0.3,2.5-1.2,3.3-3.2c0.2-0.5,0.3-1,0.3-1.6c0-0.6,0-1.2,0-1.8
						c0-1.3,0-2.6-0.1-4.1c0-2.9-0.1-6.3-0.1-10c0-3.7-0.1-7.7-0.1-12.1c0-1.1,0-2.2,0-3.3c0-1.1,0.1-2.3-0.4-3.3
						c-0.4-1-1.1-2-2.1-2.6c-1-0.6-2.1-0.8-3.3-0.8c-9.8,0.1-20.5,0.2-31.8,0.3c-1.3,0-2.7,0.6-3.6,1.5c-0.9,0.9-1.5,2.2-1.5,3.5
						c0,2.7,0,5.4,0.1,8.1c0,5.3,0.1,10.4,0.1,15.3c0,2.4,0,4.8,0,7.1c0,1.2-0.1,2.3,0.2,3.3c0.3,1,0.9,1.9,1.7,2.6
						c0.8,0.6,1.8,1,2.8,1.1c1,0,2.1,0,3.1,0c2,0,4,0,5.8,0c7.4,0,13.3,0,17.5-0.1c2,0,3.6,0,4.8,0c0.5,0,0.9,0,1.2,0
						C237,210.2,237.1,210.2,237.1,210.2c0,0-0.1,0-0.4,0c-0.3,0-0.7,0-1.2,0c-1.1,0-2.7,0.1-4.8,0.1c-4.2,0.1-10.1,0.1-17.5,0.2
						c-1.8,0-3.8,0-5.8,0.1c-1,0-2,0-3.1,0c-1.1-0.1-2.2-0.5-3.1-1.2c-0.9-0.7-1.6-1.7-1.9-2.8c-0.2-0.6-0.2-1.2-0.2-1.7
						c0-0.6,0-1.1,0-1.7c0-2.3,0-4.7-0.1-7.1c0-4.9-0.1-10-0.1-15.3c0-2.7,0-5.4-0.1-8.1c0-1.4,0.6-2.9,1.7-3.9c1-1,2.5-1.7,4-1.7
						c11.3-0.1,22-0.2,31.8-0.2c1.2-0.1,2.6,0.2,3.6,0.9c1.1,0.7,1.9,1.7,2.3,2.8c0.2,0.6,0.3,1.2,0.4,1.8c0,0.6,0,1.1,0,1.7
						c0,1.1,0,2.2,0,3.3c0,4.3,0,8.4,0.1,12.1c0,3.7,0,7,0,10c0,1.5,0,2.8,0,4.1c0,0.6,0,1.2,0,1.8c-0.1,0.6-0.2,1.1-0.4,1.6
						c-0.8,2-2.4,2.9-3.4,3.2C237.7,210.3,237.1,210.2,237.1,210.2z"/>
				</g>
			</g>
		</g>
		<g>
			<g>
				<path class="st14" d="M294.7,209.7l-32.4,0.3c-3,0-5.4-2.4-5.4-5.4l-0.3-32.4c0-3,2.4-5.4,5.4-5.4l32.4-0.3c3,0,5.4,2.4,5.4,5.4
					l0.3,32.4C300.1,207.3,297.7,209.7,294.7,209.7z"/>
			</g>
			<g>
				<g>
					<g>
						<path class="st13" d="M293.1,188.2c-0.1,0,0-1.3-0.6-3.5c-0.6-2.2-2-5.3-5.3-7.8c-1.6-1.2-3.7-2.2-6-2.6
							c-2.3-0.4-5-0.3-7.5,0.7c-1.3,0.4-2.5,1.1-3.6,2c-1.1,0.8-2.1,1.9-3,3c-1.7,2.3-2.7,5.3-2.7,8.4c0.1,3.1,1.1,6,2.8,8.4
							c0.9,1.2,1.9,2.2,3,3c1.1,0.8,2.3,1.5,3.6,1.9c2.5,0.9,5.1,1,7.5,0.6c2.3-0.4,4.4-1.5,6-2.7c3.2-2.5,4.7-5.7,5.2-7.9
							C293.1,189.5,293,188.2,293.1,188.2c0,0,0,0.1,0,0.2c0,0.2,0,0.4,0,0.7c0,0.3,0,0.7-0.1,1.1c-0.1,0.4-0.1,1-0.3,1.5
							c-0.2,1.1-0.7,2.5-1.5,3.9c-0.8,1.4-2,2.9-3.6,4.2c-1.6,1.3-3.7,2.4-6.1,2.8c-2.4,0.4-5.1,0.4-7.7-0.5c-1.3-0.4-2.6-1.1-3.7-2
							c-1.2-0.8-2.2-1.9-3.1-3.1c-1.8-2.4-2.9-5.5-2.9-8.7c0-3.2,1-6.3,2.8-8.7c0.9-1.2,1.9-2.3,3.1-3.1c1.1-0.9,2.4-1.6,3.7-2
							c2.6-1,5.3-1.1,7.7-0.7c2.4,0.4,4.5,1.5,6.2,2.7c1.7,1.3,2.9,2.7,3.7,4.1c0.8,1.4,1.3,2.8,1.6,3.9c0.2,0.6,0.2,1.1,0.3,1.5
							c0.1,0.4,0.1,0.8,0.1,1.1c0,0.3,0,0.5,0,0.7C293.1,188.2,293.1,188.2,293.1,188.2z"/>
					</g>
				</g>
				<g>
					<g>
						<path class="st13" d="M293.2,187.3c0,0.1-6.6,0.3-14.7,0.4c-8.1,0.1-14.7,0-14.7-0.1c0-0.1,6.6-0.3,14.7-0.4
							C286.6,187.1,293.2,187.1,293.2,187.3z"/>
					</g>
				</g>
				<g>
					<g>
						<path class="st13" d="M279.3,202.7c0,0,0.1-0.2,0.3-0.6c0.2-0.4,0.5-1,0.8-1.6c0.4-0.7,0.8-1.6,1.2-2.6c0.4-1.1,1-2.2,1.3-3.6
							c0.9-2.7,1.6-6.1,1.1-9.9c-0.3-1.9-0.8-3.8-1.8-5.6c-1-1.8-2.4-3.5-4.1-4.7l0.3,0c-0.2,0.2-0.5,0.4-0.7,0.6
							c-3.2,3.1-5.6,6.8-6.4,10.6c-0.9,3.8,0,7.4,1.4,10c0.3,0.7,0.7,1.2,1,1.8c0.4,0.5,0.7,1.1,1.1,1.5c0.4,0.5,0.7,0.9,1,1.3
							c0.3,0.4,0.6,0.7,0.9,1c0.6,0.6,1,1,1.3,1.4c0.3,0.3,0.5,0.5,0.5,0.5c0,0-0.2-0.1-0.5-0.4c-0.3-0.3-0.8-0.7-1.4-1.3
							c-0.3-0.3-0.6-0.6-1-1c-0.3-0.4-0.7-0.8-1.1-1.3c-0.4-0.5-0.7-1-1.1-1.5c-0.3-0.6-0.8-1.2-1.1-1.8c-1.4-2.6-2.4-6.3-1.5-10.2
							c0.8-3.9,3.2-7.8,6.5-10.9c0.2-0.2,0.5-0.4,0.7-0.6l0.2-0.1l0.1,0.1c1.9,1.3,3.3,3.1,4.3,4.9c1,1.9,1.5,3.9,1.8,5.8
							c0.4,3.8-0.3,7.3-1.3,10c-0.4,1.4-1,2.6-1.4,3.6c-0.4,1.1-0.9,1.9-1.3,2.6c-0.4,0.7-0.7,1.2-0.9,1.6
							C279.4,202.5,279.3,202.7,279.3,202.7z"/>
					</g>
				</g>
			</g>
		</g>
		<g>
			<g>
				<g>
					<path class="st7" d="M238,383.2c0,0,0.6,0,1.6-0.3c1-0.3,2.5-1.2,3.3-3.2c0.2-0.5,0.3-1,0.3-1.6c0-0.6,0-1.2,0-1.8
						c0-1.3,0-2.6-0.1-4.1c0-2.9-0.1-6.3-0.1-10c0-3.7-0.1-7.7-0.1-12.1c0-1.1,0-2.2,0-3.3c0-1.1,0.1-2.3-0.4-3.3
						c-0.4-1-1.1-2-2.1-2.6c-1-0.6-2.1-0.8-3.3-0.8c-9.8,0.1-20.5,0.2-31.8,0.3c-1.3,0-2.7,0.6-3.6,1.5c-0.9,0.9-1.5,2.2-1.5,3.5
						c0,2.7,0,5.4,0.1,8.1c0,5.3,0.1,10.4,0.1,15.3c0,2.4,0,4.8,0,7.1c0,1.2-0.1,2.3,0.2,3.3c0.3,1,0.9,1.9,1.7,2.6
						c0.8,0.6,1.8,1,2.8,1.1c1,0,2.1,0,3.1,0c2,0,4,0,5.8,0c7.4,0,13.3,0,17.5-0.1c2,0,3.6,0,4.8,0c0.5,0,0.9,0,1.2,0
						C237.9,383.2,238,383.2,238,383.2c0,0-0.1,0-0.4,0c-0.3,0-0.7,0-1.2,0c-1.1,0-2.7,0.1-4.8,0.1c-4.2,0.1-10.1,0.1-17.5,0.2
						c-1.8,0-3.8,0-5.8,0.1c-1,0-2,0-3.1,0c-1.1-0.1-2.2-0.5-3.1-1.2c-0.9-0.7-1.6-1.7-1.9-2.8c-0.2-0.6-0.2-1.2-0.2-1.7
						c0-0.6,0-1.1,0-1.7c0-2.3,0-4.7-0.1-7.1c0-4.9-0.1-10-0.1-15.3c0-2.7,0-5.4-0.1-8.1c0-1.4,0.6-2.9,1.7-3.9c1-1,2.5-1.7,4-1.7
						c11.3-0.1,22-0.2,31.8-0.2c1.2-0.1,2.6,0.2,3.6,0.9c1.1,0.7,1.9,1.7,2.3,2.8c0.2,0.6,0.3,1.2,0.4,1.8c0,0.6,0,1.1,0,1.7
						c0,1.1,0,2.2,0,3.3c0,4.3,0,8.4,0.1,12.1c0,3.7,0,7,0,10c0,1.5,0,2.8,0,4.1c0,0.6,0,1.2,0,1.8c-0.1,0.6-0.2,1.1-0.4,1.6
						c-0.8,2-2.4,2.9-3.4,3.2C238.6,383.3,238,383.2,238,383.2z"/>
				</g>
			</g>
			<g>
				<g>
					<g>
						<path class="st7" d="M207.9,351.7c0,0,0.2,0,0.5,0c0.4,0,0.8,0,1.4,0c1.3,0,3.1-0.1,5.4-0.1c4.8-0.1,11.4-0.2,19.3-0.3l0.2,0
							l0,0.2c0.1,5.8,0.1,12.2,0.2,19c0.1-0.1-0.5,0.5-0.3,0.3l0,0l0,0l0,0l-0.1,0l-0.1,0l-0.2,0l-0.5,0l-0.9,0c-0.6,0-1.2,0-1.8,0
							c-1.2,0-2.4,0-3.6,0c-2.4,0-4.7,0-7,0c-4.5,0-8.7,0-12.4,0.1l-0.2,0l0-0.2c0-5.8,0-10.5,0-13.9c0-1.6,0-2.9,0-3.8
							c0-0.4,0-0.7,0-1C207.9,351.8,207.9,351.7,207.9,351.7c0,0,0,0.1,0,0.4c0,0.3,0,0.6,0,1c0,0.9,0,2.2,0.1,3.9
							c0.1,3.3,0.1,8.1,0.2,13.8l-0.2-0.2c3.7,0,7.9-0.1,12.4-0.1c2.2,0,4.6,0,7-0.1c1.2,0,2.4,0,3.6,0c0.6,0,1.2,0,1.8,0l0.9,0
							l0.5,0l0.2,0l0.1,0l0.1,0l0,0l0,0l0,0c0.2-0.2-0.3,0.3-0.3,0.3c0-6.8-0.1-13.3-0.1-19l0.2,0.2c-7.8,0-14.5,0-19.2,0
							c-2.3,0-4.2,0-5.5,0c-0.6,0-1.1,0-1.5,0C208.1,351.7,207.9,351.7,207.9,351.7z"/>
					</g>
				</g>
				<g>
					<g>
						<path class="st7" d="M221.3,363.8c0,0,0.1-0.1,0.2-0.3c0.2-0.2,0.4-0.4,0.7-0.7c0.7-0.6,1.6-1.5,2.7-2.6
							c2.3-2.2,5.6-5.3,9.4-8.9l0.2,0.4c-4,0-8.6,0.1-13.3,0.1c-4.8,0-9.3,0.1-13.3,0.1l0.2-0.4c3.9,3.6,7.2,6.6,9.6,8.7
							c1.1,1.1,2.1,1.9,2.7,2.5c0.3,0.3,0.5,0.5,0.7,0.7C221.2,363.7,221.3,363.8,221.3,363.8c0,0-0.3-0.3-1-0.8
							c-0.7-0.6-1.6-1.4-2.8-2.4c-2.4-2.2-5.8-5.1-9.8-8.7l-0.5-0.4l0.6,0c4,0,8.6-0.1,13.3-0.1c4.8,0,9.3-0.1,13.3-0.1l0.6,0
							l-0.5,0.4c-3.9,3.6-7.3,6.6-9.7,8.8c-1.1,1-2.1,1.8-2.7,2.5C221.6,363.5,221.3,363.8,221.3,363.8z"/>
					</g>
				</g>
				<g>
					<g>
						<path class="st7" d="M217.6,360.4c0.1,0.1-1.9,2.5-4.6,5.3c-2.6,2.9-4.9,5.1-5,5c-0.1-0.1,1.9-2.5,4.6-5.3
							C215.2,362.6,217.5,360.3,217.6,360.4z"/>
					</g>
				</g>
				<g>
					<g>
						<path class="st7" d="M234.7,370.5c-0.1,0.1-2.4-2.1-5-4.9c-2.7-2.8-4.8-5.2-4.7-5.3c0.1-0.1,2.4,2.1,5,4.9
							C232.7,368.1,234.8,370.4,234.7,370.5z"/>
					</g>
				</g>
			</g>
		</g>
		<g>
			<g>
				<path class="st14" d="M237.9,325.9h-32.4c-3,0-5.4-2.4-5.4-5.4v-32.4c0-3,2.4-5.4,5.4-5.4h32.4c3,0,5.4,2.4,5.4,5.4v32.4
					C243.3,323.5,240.9,325.9,237.9,325.9z"/>
			</g>
			<g>
				<g>
					<g>
						<path class="st2" d="M234.3,313.6c0,0,0-0.1,0-0.4c0-0.3,0-0.6,0-1c0-0.9-0.1-2.3-0.1-3.9c-0.1-3.4-0.1-8.2-0.2-13.9l0.2,0.2
							c-7.1,0.1-15.7,0.2-25,0.3c-0.1,0.1,0.5-0.5,0.3-0.3l0,0v0l0,0l0,0l0,0.1l0,0.2l0,0.3l0,0.6l0,1.3c0,0.9,0,1.7,0,2.5
							c0,1.7,0,3.3,0,5c0,3.2,0,6.3,0.1,9.2l-0.2-0.2c7.4,0,13.6,0,18,0c2.2,0,3.9,0,5.1,0c0.6,0,1,0,1.4,0
							C234.1,313.6,234.3,313.6,234.3,313.6c0,0-0.1,0-0.4,0c-0.3,0-0.8,0-1.3,0c-1.2,0-2.9,0.1-5.1,0.1c-4.5,0.1-10.7,0.2-18.1,0.3
							l-0.2,0l0-0.2c0-2.9-0.1-6-0.1-9.2c0-1.6,0-3.3,0-5c0-0.8,0-1.7,0-2.5l0-1.3l0-0.6l0-0.3l0-0.2l0-0.1l0,0l0,0l0,0v0
							c-0.2,0.2,0.3-0.3,0.3-0.3c9.3-0.1,17.9-0.1,25-0.2l0.2,0l0,0.2c0,5.8,0,10.6,0,14.1c0,1.6,0,2.9,0,3.9c0,0.4,0,0.7,0,1
							C234.3,313.5,234.3,313.6,234.3,313.6z"/>
					</g>
				</g>
				<g>
					<g>
						<path class="st2" d="M217.5,290.8c0-0.1,0.8-0.1,2.2-0.2s3.4-0.1,5.7-0.1l0.1,0l0.1,0.1c0.7,1.1,1.4,2.4,2.2,3.7l0.2,0.4
							l-0.5,0c-0.8,0-1.6,0-2.4,0c-3.9,0-7.5,0-10.1,0l-0.3,0l0.2-0.3C216.4,292.1,217.4,290.6,217.5,290.8c0,0-0.2,0.3-0.6,1
							c-0.4,0.8-1,1.7-1.6,2.8l-0.2-0.3c2.6-0.1,6.2-0.1,10.1-0.2c0.8,0,1.6,0,2.4,0l-0.2,0.4c-0.8-1.3-1.5-2.6-2.2-3.7l0.2,0.1
							c-2.4,0-4.3,0-5.7,0C218.3,290.9,217.5,290.8,217.5,290.8z"/>
					</g>
				</g>
				<g>
					<g>
						<path class="st2" d="M226.9,305.8c-0.1,0,0.1-0.5,0.2-1.4c0.1-0.9-0.1-2.2-1-3.6c-0.9-1.3-2.6-2.5-4.7-2.4
							c-2.1,0-4.3,1.4-5.1,3.7c-0.8,2.3,0.1,4.8,1.7,6.1c1.6,1.3,3.7,1.5,5.2,1c1.5-0.5,2.5-1.5,3-2.2
							C226.7,306.3,226.8,305.8,226.9,305.8c0,0,0,0.1-0.1,0.4c-0.1,0.2-0.2,0.6-0.5,1c-0.5,0.8-1.4,1.9-3,2.4
							c-1.6,0.6-3.8,0.5-5.6-1c-0.9-0.7-1.6-1.7-2-2.9c-0.4-1.2-0.4-2.5,0-3.7c0.4-1.2,1.2-2.3,2.3-3c1-0.7,2.2-1.1,3.3-1.1
							c2.3,0,4.1,1.3,5,2.7c0.9,1.4,1,2.9,0.9,3.8c-0.1,0.5-0.1,0.8-0.2,1C226.9,305.7,226.9,305.8,226.9,305.8z"/>
					</g>
				</g>
			</g>
		</g>
		<g>
			<g>
				<path class="st12" d="M295.3,268l-32.4,0.3c-3,0-5.4-2.4-5.4-5.4l-0.3-32.4c0-3,2.4-5.4,5.4-5.4l32.4-0.3c3,0,5.4,2.4,5.4,5.4
					l0.3,32.4C300.7,265.6,298.3,268,295.3,268z"/>
			</g>
			<g>
				<g>
					<g>
						<path class="st13" d="M292.8,245.9c-0.1,0,0-1.3-0.6-3.5c-0.6-2.1-2-5.3-5.3-7.7c-1.6-1.2-3.6-2.2-6-2.6
							c-2.3-0.4-4.9-0.3-7.4,0.7c-1.2,0.4-2.4,1.1-3.5,2c-1.1,0.8-2.1,1.8-2.9,3c-1.7,2.3-2.7,5.3-2.7,8.3c0.1,3.1,1.1,6,2.8,8.3
							c0.8,1.2,1.9,2.2,3,3c1.1,0.8,2.3,1.5,3.6,1.9c2.5,0.9,5.1,1,7.4,0.6c2.3-0.4,4.3-1.5,5.9-2.7c3.2-2.5,4.6-5.7,5.2-7.8
							C292.8,247.1,292.7,245.8,292.8,245.9c0,0,0,0.1,0,0.2c0,0.2,0,0.4,0,0.7c0,0.3,0,0.7-0.1,1.1c-0.1,0.4-0.1,0.9-0.3,1.5
							c-0.2,1.1-0.7,2.5-1.5,3.9c-0.8,1.4-2,2.9-3.6,4.2c-1.6,1.3-3.7,2.3-6.1,2.8c-2.4,0.4-5.1,0.4-7.7-0.5
							c-1.3-0.4-2.6-1.1-3.7-1.9c-1.2-0.8-2.2-1.9-3.1-3.1c-1.8-2.4-2.9-5.4-2.9-8.6c0-3.2,1-6.2,2.8-8.6c0.9-1.2,1.9-2.3,3.1-3.1
							c1.1-0.9,2.4-1.5,3.7-2c2.6-1,5.3-1.1,7.6-0.7c2.4,0.4,4.5,1.5,6.1,2.7c1.6,1.2,2.9,2.7,3.7,4.1c0.8,1.4,1.3,2.7,1.6,3.9
							c0.2,0.6,0.2,1.1,0.3,1.5c0.1,0.4,0.1,0.8,0.1,1.1c0,0.3,0,0.5,0,0.7C292.8,245.8,292.8,245.8,292.8,245.9z"/>
					</g>
				</g>
				<g>
					<g>
						<path class="st13" d="M274.9,239.1c0,0,0.3,0.1,0.8,0.4c0.6,0.3,1.4,0.8,2.4,1.3c2.1,1.1,5,2.7,8.4,4.6l0.4,0.2l-0.4,0.2
							c-1.8,1-3.7,2.1-5.6,3.3c-2,1.2-4,2.3-5.8,3.3l-0.4,0.2l0-0.4c0-3.9,0-7.2,0.1-9.5c0-1.1,0-2,0-2.7
							C274.9,239.4,274.9,239.1,274.9,239.1c0,0,0,0.4,0.1,1c0,0.7,0.1,1.6,0.1,2.7c0.1,2.3,0.2,5.5,0.2,9.3l-0.4-0.2
							c1.8-1,3.7-2.2,5.8-3.4c2-1.2,3.9-2.3,5.7-3.3l0,0.4c-3.3-1.9-6.1-3.5-8.1-4.7c-1-0.6-1.8-1-2.4-1.4
							C275.3,239.3,275,239.1,274.9,239.1z"/>
					</g>
				</g>
			</g>
		</g>
		<g>
			<g>
				<g>
					<g>
						<path class="st1" d="M234.5,268.1c0-0.1,0.7-0.3,1.5-0.3c0.8,0,1.5,0.1,1.5,0.2c0,0.1-0.7,0.3-1.5,0.3
							C235.1,268.3,234.5,268.2,234.5,268.1z"/>
					</g>
				</g>
				<g>
					<g>
						<path class="st1" d="M228.4,268.1c0-0.1,0.7-0.3,1.5-0.3c0.8,0,1.5,0.1,1.5,0.2c0,0.1-0.7,0.3-1.5,0.3
							C229.1,268.4,228.4,268.3,228.4,268.1z"/>
					</g>
				</g>
				<g>
					<g>
						<path class="st1" d="M222.4,268.2c0-0.1,0.7-0.3,1.5-0.3c0.8,0,1.5,0.1,1.5,0.2c0,0.1-0.7,0.3-1.5,0.3
							C223,268.4,222.4,268.3,222.4,268.2z"/>
					</g>
				</g>
				<g>
					<g>
						<path class="st1" d="M216.3,268.2c0-0.1,0.7-0.3,1.5-0.3c0.8,0,1.5,0.1,1.5,0.2c0,0.1-0.7,0.3-1.5,0.3
							C217,268.5,216.3,268.4,216.3,268.2z"/>
					</g>
				</g>
				<g>
					<g>
						<path class="st1" d="M210.3,268.3c0-0.1,0.7-0.3,1.5-0.3c0.8,0,1.5,0.1,1.5,0.2c0,0.1-0.7,0.3-1.5,0.3
							C211,268.5,210.3,268.4,210.3,268.3z"/>
					</g>
				</g>
				<g>
					<g>
						<path class="st1" d="M204.2,268.2c0-0.2,0.7-0.2,1.5-0.2c0.8,0,1.5,0.1,1.5,0.2c0,0.1-0.7,0.3-1.5,0.3
							C204.9,268.6,204.2,268.4,204.2,268.2z"/>
					</g>
				</g>
				<g>
					<g>
						<path class="st1" d="M199.9,264.4c0.1,0,0.4,0.6,0.8,1.2c0.4,0.7,0.9,1.2,0.8,1.3c-0.1,0.1-0.7-0.3-1.2-1
							C199.8,265.2,199.8,264.5,199.9,264.4z"/>
					</g>
				</g>
				<g>
					<g>
						<path class="st1" d="M199.7,258.4c0.1,0,0.3,0.7,0.3,1.5c0,0.8-0.1,1.5-0.2,1.5c-0.1,0-0.3-0.7-0.3-1.5
							C199.4,259.1,199.5,258.4,199.7,258.4z"/>
					</g>
				</g>
				<g>
					<g>
						<path class="st1" d="M199.6,252.4c0.1,0,0.3,0.7,0.3,1.5c0,0.8-0.1,1.5-0.2,1.5c-0.1,0-0.3-0.7-0.3-1.5
							C199.3,253,199.5,252.4,199.6,252.4z"/>
					</g>
				</g>
				<g>
					<g>
						<path class="st1" d="M199.6,246.3c0.1,0,0.3,0.7,0.3,1.5c0,0.8-0.1,1.5-0.2,1.5c-0.1,0-0.3-0.7-0.3-1.5
							C199.3,247,199.4,246.3,199.6,246.3z"/>
					</g>
				</g>
				<g>
					<g>
						<path class="st1" d="M199.5,240.3c0.1,0,0.3,0.7,0.3,1.5c0,0.8-0.1,1.5-0.2,1.5c-0.1,0-0.3-0.7-0.3-1.5
							C199.2,240.9,199.4,240.3,199.5,240.3z"/>
					</g>
				</g>
				<g>
					<g>
						<path class="st1" d="M199.5,234.2c0.1,0,0.3,0.7,0.3,1.5c0,0.8-0.1,1.5-0.2,1.5c-0.1,0-0.3-0.7-0.3-1.5
							C199.2,234.9,199.3,234.2,199.5,234.2z"/>
					</g>
				</g>
				<g>
					<g>
						<path class="st1" d="M199.9,228.2c0.1,0.1-0.1,0.7-0.2,1.5c-0.1,0.8-0.2,1.5-0.3,1.5c-0.1,0-0.3-0.7-0.2-1.6
							C199.4,228.8,199.8,228.2,199.9,228.2z"/>
					</g>
				</g>
				<g>
					<g>
						<path class="st1" d="M204.8,225.1c0,0.1-0.7,0.2-1.4,0.5c-0.8,0.2-1.4,0.5-1.4,0.4c-0.1-0.1,0.4-0.6,1.3-0.9
							C204.1,224.9,204.8,225,204.8,225.1z"/>
					</g>
				</g>
				<g>
					<g>
						<path class="st1" d="M210.8,225.1c0,0.1-0.7,0.3-1.5,0.3c-0.8,0-1.5-0.1-1.5-0.2c0-0.1,0.7-0.3,1.5-0.3
							C210.1,224.8,210.8,225,210.8,225.1z"/>
					</g>
				</g>
				<g>
					<g>
						<path class="st1" d="M216.9,225c0,0.1-0.7,0.3-1.5,0.3c-0.8,0-1.5-0.1-1.5-0.2c0-0.1,0.7-0.3,1.5-0.3
							C216.2,224.8,216.9,224.9,216.9,225z"/>
					</g>
				</g>
				<g>
					<g>
						<path class="st1" d="M222.9,225c0,0.1-0.7,0.3-1.5,0.3c-0.8,0-1.5-0.1-1.5-0.2c0-0.1,0.7-0.3,1.5-0.3
							C222.2,224.7,222.9,224.9,222.9,225z"/>
					</g>
				</g>
				<g>
					<g>
						<path class="st1" d="M229,224.9c0,0.1-0.7,0.3-1.5,0.3c-0.8,0-1.5-0.1-1.5-0.2c0-0.1,0.7-0.3,1.5-0.3
							C228.3,224.7,229,224.8,229,224.9z"/>
					</g>
				</g>
				<g>
					<g>
						<path class="st1" d="M235,224.9c0,0.1-0.7,0.3-1.5,0.3c-0.8,0-1.5-0.1-1.5-0.2c0-0.1,0.7-0.3,1.5-0.3
							C234.3,224.6,235,224.8,235,224.9z"/>
					</g>
				</g>
				<g>
					<g>
						<path class="st1" d="M240.7,226.2c-0.1,0.1-0.7-0.3-1.4-0.6c-0.7-0.3-1.3-0.5-1.3-0.7c0-0.1,0.7-0.2,1.6,0.2
							C240.4,225.5,240.8,226.1,240.7,226.2z"/>
					</g>
				</g>
				<g>
					<g>
						<path class="st1" d="M242.6,231.7c-0.1,0-0.3-0.7-0.3-1.5c0-0.8-0.1-1.4,0-1.5c0.1-0.1,0.5,0.6,0.5,1.5
							C242.9,231.1,242.7,231.7,242.6,231.7z"/>
					</g>
				</g>
				<g>
					<g>
						<path class="st1" d="M242.6,237.8c-0.1,0-0.3-0.7-0.3-1.5c0-0.8,0.1-1.5,0.2-1.5c0.1,0,0.3,0.7,0.3,1.5
							C242.9,237.1,242.8,237.8,242.6,237.8z"/>
					</g>
				</g>
				<g>
					<g>
						<path class="st1" d="M242.7,243.8c-0.1,0-0.3-0.7-0.3-1.5c0-0.8,0.1-1.5,0.2-1.5c0.1,0,0.3,0.7,0.3,1.5
							C243,243.2,242.8,243.8,242.7,243.8z"/>
					</g>
				</g>
				<g>
					<g>
						<path class="st1" d="M242.7,249.9c-0.1,0-0.3-0.7-0.3-1.5c0-0.8,0.1-1.5,0.2-1.5c0.1,0,0.3,0.7,0.3,1.5
							C243,249.2,242.9,249.9,242.7,249.9z"/>
					</g>
				</g>
				<g>
					<g>
						<path class="st1" d="M242.8,255.9c-0.1,0-0.3-0.7-0.3-1.5c0-0.8,0.1-1.5,0.2-1.5c0.1,0,0.3,0.7,0.3,1.5
							C243.1,255.3,242.9,255.9,242.8,255.9z"/>
					</g>
				</g>
				<g>
					<g>
						<path class="st1" d="M242.8,262c-0.1,0-0.3-0.7-0.3-1.5c0-0.8,0.1-1.5,0.2-1.5c0.1,0,0.3,0.7,0.3,1.5
							C243.1,261.3,243,262,242.8,262z"/>
					</g>
				</g>
				<g>
					<g>
						<path class="st1" d="M240.4,267.2c-0.1-0.1,0.4-0.6,0.9-1.2c0.5-0.6,0.9-1.1,1-1.1c0.1,0,0,0.8-0.6,1.4
							C241.1,267,240.4,267.3,240.4,267.2z"/>
					</g>
				</g>
			</g>
		</g>
		<g>
			<g>
				<g>
					<g>
						<path class="st1" d="M291.5,381.2c0-0.1,0.7-0.3,1.5-0.3c0.8,0,1.5,0.1,1.5,0.2c0,0.1-0.7,0.3-1.5,0.3
							C292.1,381.5,291.5,381.3,291.5,381.2z"/>
					</g>
				</g>
				<g>
					<g>
						<path class="st1" d="M285.4,381.2c0-0.1,0.7-0.3,1.5-0.3c0.8,0,1.5,0.1,1.5,0.2s-0.7,0.3-1.5,0.3
							C286.1,381.5,285.4,381.4,285.4,381.2z"/>
					</g>
				</g>
				<g>
					<g>
						<path class="st1" d="M279.4,381.3c0-0.1,0.7-0.3,1.5-0.3c0.8,0,1.5,0.1,1.5,0.2c0,0.1-0.7,0.3-1.5,0.3
							C280,381.6,279.4,381.4,279.4,381.3z"/>
					</g>
				</g>
				<g>
					<g>
						<path class="st1" d="M273.3,381.3c0-0.1,0.7-0.3,1.5-0.3c0.8,0,1.5,0.1,1.5,0.2c0,0.1-0.7,0.3-1.5,0.3
							C274,381.6,273.3,381.5,273.3,381.3z"/>
					</g>
				</g>
				<g>
					<g>
						<path class="st1" d="M267.3,381.4c0-0.1,0.7-0.3,1.5-0.3c0.8,0,1.5,0.1,1.5,0.2c0,0.1-0.7,0.3-1.5,0.3
							C267.9,381.7,267.3,381.5,267.3,381.4z"/>
					</g>
				</g>
				<g>
					<g>
						<path class="st1" d="M261.2,381.4c0-0.2,0.7-0.2,1.5-0.2c0.8,0,1.5,0.1,1.5,0.2c0,0.1-0.7,0.3-1.5,0.3
							C261.9,381.7,261.2,381.5,261.2,381.4z"/>
					</g>
				</g>
				<g>
					<g>
						<path class="st1" d="M256.9,377.6c0.1,0,0.4,0.6,0.8,1.2c0.4,0.7,0.9,1.2,0.8,1.3c-0.1,0.1-0.7-0.3-1.2-1
							C256.8,378.3,256.8,377.6,256.9,377.6z"/>
					</g>
				</g>
				<g>
					<g>
						<path class="st1" d="M256.6,371.5c0.1,0,0.3,0.7,0.3,1.5c0,0.8-0.1,1.5-0.2,1.5c-0.1,0-0.3-0.7-0.3-1.5
							C256.4,372.2,256.5,371.5,256.6,371.5z"/>
					</g>
				</g>
				<g>
					<g>
						<path class="st1" d="M256.6,365.5c0.1,0,0.3,0.7,0.3,1.5c0,0.8-0.1,1.5-0.2,1.5c-0.1,0-0.3-0.7-0.3-1.5
							C256.3,366.2,256.4,365.5,256.6,365.5z"/>
					</g>
				</g>
				<g>
					<g>
						<path class="st1" d="M256.5,359.4c0.1,0,0.3,0.7,0.3,1.5c0,0.8-0.1,1.5-0.2,1.5c-0.1,0-0.3-0.7-0.3-1.5
							C256.3,360.1,256.4,359.5,256.5,359.4z"/>
					</g>
				</g>
				<g>
					<g>
						<path class="st1" d="M256.5,353.4c0.1,0,0.3,0.7,0.3,1.5c0,0.8-0.1,1.5-0.2,1.5s-0.3-0.7-0.3-1.5
							C256.2,354.1,256.3,353.4,256.5,353.4z"/>
					</g>
				</g>
				<g>
					<g>
						<path class="st1" d="M256.4,347.4c0.1,0,0.3,0.7,0.3,1.5c0,0.8-0.1,1.5-0.2,1.5c-0.1,0-0.3-0.7-0.3-1.5
							C256.2,348,256.3,347.4,256.4,347.4z"/>
					</g>
				</g>
				<g>
					<g>
						<path class="st1" d="M256.9,341.4c0.1,0.1-0.1,0.7-0.2,1.5c-0.1,0.8-0.2,1.5-0.3,1.5c-0.1,0-0.3-0.7-0.2-1.6
							C256.4,341.9,256.8,341.3,256.9,341.4z"/>
					</g>
				</g>
				<g>
					<g>
						<path class="st1" d="M261.8,338.3c0,0.1-0.7,0.2-1.4,0.5c-0.8,0.2-1.4,0.5-1.4,0.4c-0.1-0.1,0.4-0.6,1.3-0.9
							C261,338,261.8,338.1,261.8,338.3z"/>
					</g>
				</g>
				<g>
					<g>
						<path class="st1" d="M267.8,338.2c0,0.1-0.7,0.3-1.5,0.3c-0.8,0-1.5-0.1-1.5-0.2c0-0.1,0.7-0.3,1.5-0.3
							C267.1,338,267.8,338.1,267.8,338.2z"/>
					</g>
				</g>
				<g>
					<g>
						<path class="st1" d="M273.9,338.2c0,0.1-0.7,0.3-1.5,0.3c-0.8,0-1.5-0.1-1.5-0.2s0.7-0.3,1.5-0.3
							C273.2,337.9,273.9,338,273.9,338.2z"/>
					</g>
				</g>
				<g>
					<g>
						<path class="st1" d="M279.9,338.1c0,0.1-0.7,0.3-1.5,0.3c-0.8,0-1.5-0.1-1.5-0.2c0-0.1,0.7-0.3,1.5-0.3
							C279.2,337.9,279.9,338,279.9,338.1z"/>
					</g>
				</g>
				<g>
					<g>
						<path class="st1" d="M286,338.1c0,0.1-0.7,0.3-1.5,0.3c-0.8,0-1.5-0.1-1.5-0.2c0-0.1,0.7-0.3,1.5-0.3
							C285.3,337.8,286,337.9,286,338.1z"/>
					</g>
				</g>
				<g>
					<g>
						<path class="st1" d="M292,338c0,0.1-0.7,0.3-1.5,0.3c-0.8,0-1.5-0.1-1.5-0.2s0.7-0.3,1.5-0.3C291.3,337.8,292,337.9,292,338z"
							/>
					</g>
				</g>
				<g>
					<g>
						<path class="st1" d="M297.7,339.3c-0.1,0.1-0.7-0.3-1.4-0.6c-0.7-0.3-1.3-0.5-1.3-0.7c0-0.1,0.7-0.2,1.6,0.2
							C297.4,338.7,297.8,339.3,297.7,339.3z"/>
					</g>
				</g>
				<g>
					<g>
						<path class="st1" d="M299.6,344.9c-0.1,0-0.3-0.7-0.3-1.5c0-0.8-0.1-1.4,0-1.5c0.1-0.1,0.5,0.6,0.5,1.5
							C299.8,344.2,299.7,344.9,299.6,344.9z"/>
					</g>
				</g>
				<g>
					<g>
						<path class="st1" d="M299.6,350.9c-0.1,0-0.3-0.7-0.3-1.5c0-0.8,0.1-1.5,0.2-1.5c0.1,0,0.3,0.7,0.3,1.5
							C299.9,350.2,299.8,350.9,299.6,350.9z"/>
					</g>
				</g>
				<g>
					<g>
						<path class="st1" d="M299.7,357c-0.1,0-0.3-0.7-0.3-1.5c0-0.8,0.1-1.5,0.2-1.5c0.1,0,0.3,0.7,0.3,1.5
							C299.9,356.3,299.8,357,299.7,357z"/>
					</g>
				</g>
				<g>
					<g>
						<path class="st1" d="M299.7,363c-0.1,0-0.3-0.7-0.3-1.5c0-0.8,0.1-1.5,0.2-1.5c0.1,0,0.3,0.7,0.3,1.5
							C300,362.3,299.9,363,299.7,363z"/>
					</g>
				</g>
				<g>
					<g>
						<path class="st1" d="M299.8,369.1c-0.1,0-0.3-0.7-0.3-1.5c0-0.8,0.1-1.5,0.2-1.5c0.1,0,0.3,0.7,0.3,1.5
							C300,368.4,299.9,369.1,299.8,369.1z"/>
					</g>
				</g>
				<g>
					<g>
						<path class="st1" d="M299.8,375.1c-0.1,0-0.3-0.7-0.3-1.5c0-0.8,0.1-1.5,0.2-1.5c0.1,0,0.3,0.7,0.3,1.5
							C300.1,374.4,300,375.1,299.8,375.1z"/>
					</g>
				</g>
				<g>
					<g>
						<path class="st1" d="M297.4,380.3c-0.1-0.1,0.4-0.6,0.9-1.2c0.5-0.6,0.9-1.1,1-1.1c0.1,0,0,0.8-0.6,1.4
							C298.1,380.2,297.4,380.4,297.4,380.3z"/>
					</g>
				</g>
			</g>
		</g>
		<g>
			<g>
				<g>
					<g>
						<path class="st1" d="M291.5,325.9c0-0.1,0.7-0.3,1.5-0.3c0.8,0,1.5,0.1,1.5,0.2c0,0.1-0.7,0.3-1.5,0.3
							C292.1,326.1,291.5,326,291.5,325.9z"/>
					</g>
				</g>
				<g>
					<g>
						<path class="st1" d="M285.4,325.9c0-0.1,0.7-0.3,1.5-0.3c0.8,0,1.5,0.1,1.5,0.2c0,0.1-0.7,0.3-1.5,0.3
							C286.1,326.2,285.4,326.1,285.4,325.9z"/>
					</g>
				</g>
				<g>
					<g>
						<path class="st1" d="M279.4,326c0-0.1,0.7-0.3,1.5-0.3c0.8,0,1.5,0.1,1.5,0.2c0,0.1-0.7,0.3-1.5,0.3
							C280,326.2,279.4,326.1,279.4,326z"/>
					</g>
				</g>
				<g>
					<g>
						<path class="st1" d="M273.3,326c0-0.1,0.7-0.3,1.5-0.3c0.8,0,1.5,0.1,1.5,0.2c0,0.1-0.7,0.3-1.5,0.3
							C274,326.3,273.3,326.2,273.3,326z"/>
					</g>
				</g>
				<g>
					<g>
						<path class="st1" d="M267.3,326.1c0-0.1,0.7-0.3,1.5-0.3c0.8,0,1.5,0.1,1.5,0.2s-0.7,0.3-1.5,0.3
							C267.9,326.3,267.3,326.2,267.3,326.1z"/>
					</g>
				</g>
				<g>
					<g>
						<path class="st1" d="M261.2,326c0-0.2,0.7-0.2,1.5-0.2c0.8,0,1.5,0.1,1.5,0.2c0,0.1-0.7,0.3-1.5,0.3
							C261.9,326.4,261.2,326.2,261.2,326z"/>
					</g>
				</g>
				<g>
					<g>
						<path class="st1" d="M256.9,322.2c0.1,0,0.4,0.6,0.8,1.2c0.4,0.7,0.9,1.2,0.8,1.3c-0.1,0.1-0.7-0.3-1.2-1
							C256.8,323,256.8,322.3,256.9,322.2z"/>
					</g>
				</g>
				<g>
					<g>
						<path class="st1" d="M256.6,316.2c0.1,0,0.3,0.7,0.3,1.5c0,0.8-0.1,1.5-0.2,1.5c-0.1,0-0.3-0.7-0.3-1.5
							C256.4,316.9,256.5,316.2,256.6,316.2z"/>
					</g>
				</g>
				<g>
					<g>
						<path class="st1" d="M256.6,310.2c0.1,0,0.3,0.7,0.3,1.5c0,0.8-0.1,1.5-0.2,1.5c-0.1,0-0.3-0.7-0.3-1.5
							C256.3,310.8,256.4,310.2,256.6,310.2z"/>
					</g>
				</g>
				<g>
					<g>
						<path class="st1" d="M256.5,304.1c0.1,0,0.3,0.7,0.3,1.5c0,0.8-0.1,1.5-0.2,1.5c-0.1,0-0.3-0.7-0.3-1.5
							C256.3,304.8,256.4,304.1,256.5,304.1z"/>
					</g>
				</g>
				<g>
					<g>
						<path class="st1" d="M256.5,298.1c0.1,0,0.3,0.7,0.3,1.5c0,0.8-0.1,1.5-0.2,1.5s-0.3-0.7-0.3-1.5
							C256.2,298.7,256.3,298.1,256.5,298.1z"/>
					</g>
				</g>
				<g>
					<g>
						<path class="st1" d="M256.4,292c0.1,0,0.3,0.7,0.3,1.5c0,0.8-0.1,1.5-0.2,1.5c-0.1,0-0.3-0.7-0.3-1.5
							C256.2,292.7,256.3,292,256.4,292z"/>
					</g>
				</g>
				<g>
					<g>
						<path class="st1" d="M256.9,286c0.1,0.1-0.1,0.7-0.2,1.5c-0.1,0.8-0.2,1.5-0.3,1.5c-0.1,0-0.3-0.7-0.2-1.6
							C256.4,286.6,256.8,286,256.9,286z"/>
					</g>
				</g>
				<g>
					<g>
						<path class="st1" d="M261.8,282.9c0,0.1-0.7,0.2-1.4,0.5c-0.8,0.2-1.4,0.5-1.4,0.4c-0.1-0.1,0.4-0.6,1.3-0.9
							C261,282.7,261.8,282.8,261.8,282.9z"/>
					</g>
				</g>
				<g>
					<g>
						<path class="st1" d="M267.8,282.9c0,0.1-0.7,0.3-1.5,0.3c-0.8,0-1.5-0.1-1.5-0.2c0-0.1,0.7-0.3,1.5-0.3
							C267.1,282.6,267.8,282.8,267.8,282.9z"/>
					</g>
				</g>
				<g>
					<g>
						<path class="st1" d="M273.9,282.8c0,0.1-0.7,0.3-1.5,0.3c-0.8,0-1.5-0.1-1.5-0.2s0.7-0.3,1.5-0.3
							C273.2,282.6,273.9,282.7,273.9,282.8z"/>
					</g>
				</g>
				<g>
					<g>
						<path class="st1" d="M279.9,282.8c0,0.1-0.7,0.3-1.5,0.3c-0.8,0-1.5-0.1-1.5-0.2c0-0.1,0.7-0.3,1.5-0.3
							C279.2,282.5,279.9,282.7,279.9,282.8z"/>
					</g>
				</g>
				<g>
					<g>
						<path class="st1" d="M286,282.7c0,0.1-0.7,0.3-1.5,0.3c-0.8,0-1.5-0.1-1.5-0.2c0-0.1,0.7-0.3,1.5-0.3
							C285.3,282.5,286,282.6,286,282.7z"/>
					</g>
				</g>
				<g>
					<g>
						<path class="st1" d="M292,282.7c0,0.1-0.7,0.3-1.5,0.3c-0.8,0-1.5-0.1-1.5-0.2c0-0.1,0.7-0.3,1.5-0.3
							C291.3,282.4,292,282.6,292,282.7z"/>
					</g>
				</g>
				<g>
					<g>
						<path class="st1" d="M297.7,284c-0.1,0.1-0.7-0.3-1.4-0.6c-0.7-0.3-1.3-0.5-1.3-0.7c0-0.1,0.7-0.2,1.6,0.2
							C297.4,283.3,297.8,283.9,297.7,284z"/>
					</g>
				</g>
				<g>
					<g>
						<path class="st1" d="M299.6,289.5c-0.1,0-0.3-0.7-0.3-1.5c0-0.8-0.1-1.4,0-1.5c0.1-0.1,0.5,0.6,0.5,1.5
							C299.8,288.9,299.7,289.5,299.6,289.5z"/>
					</g>
				</g>
				<g>
					<g>
						<path class="st1" d="M299.6,295.6c-0.1,0-0.3-0.7-0.3-1.5c0-0.8,0.1-1.5,0.2-1.5c0.1,0,0.3,0.7,0.3,1.5
							C299.9,294.9,299.8,295.6,299.6,295.6z"/>
					</g>
				</g>
				<g>
					<g>
						<path class="st1" d="M299.7,301.6c-0.1,0-0.3-0.7-0.3-1.5c0-0.8,0.1-1.5,0.2-1.5c0.1,0,0.3,0.7,0.3,1.5
							C299.9,301,299.8,301.6,299.7,301.6z"/>
					</g>
				</g>
				<g>
					<g>
						<path class="st1" d="M299.7,307.7c-0.1,0-0.3-0.7-0.3-1.5c0-0.8,0.1-1.5,0.2-1.5c0.1,0,0.3,0.7,0.3,1.5
							C300,307,299.9,307.7,299.7,307.7z"/>
					</g>
				</g>
				<g>
					<g>
						<path class="st1" d="M299.8,313.7c-0.1,0-0.3-0.7-0.3-1.5c0-0.8,0.1-1.5,0.2-1.5c0.1,0,0.3,0.7,0.3,1.5
							C300,313.1,299.9,313.7,299.8,313.7z"/>
					</g>
				</g>
				<g>
					<g>
						<path class="st1" d="M299.8,319.8c-0.1,0-0.3-0.7-0.3-1.5c0-0.8,0.1-1.5,0.2-1.5c0.1,0,0.3,0.7,0.3,1.5
							C300.1,319.1,300,319.8,299.8,319.8z"/>
					</g>
				</g>
				<g>
					<g>
						<path class="st1" d="M297.4,325c-0.1-0.1,0.4-0.6,0.9-1.2c0.5-0.6,0.9-1.1,1-1.1c0.1,0,0,0.8-0.6,1.4
							C298.1,324.8,297.4,325.1,297.4,325z"/>
					</g>
				</g>
			</g>
		</g>
		<g>
			<g>
				
					<ellipse transform="matrix(0.9035 -0.4287 0.4287 0.9035 -48.7382 119.0447)" class="st14" cx="239.9" cy="167.7" rx="8.3" ry="8.3"/>
			</g>
			<g>
				<path class="st13" d="M243,169.1c0,1.2-0.9,2.2-2.6,2.2c-1.1,0-2.1-0.3-2.6-0.9l0.4-0.6c0.5,0.5,1.3,0.8,2.3,0.8
					c1.2,0,1.9-0.6,1.9-1.5c0-0.9-0.6-1.4-2-1.4l-0.5,0l0-0.6l2-2.6l-3.7,0l0-0.7l4.7,0l0,0.5l-2,2.6
					C242.2,167.1,243,167.9,243,169.1z"/>
			</g>
		</g>
		<g>
			<g>
				<path class="st7" d="M239.7,396.2c0,1.2-0.9,2.1-2.1,2.1c-1.2,0-2.1-0.9-2.1-2.1c0-1.2,0.9-2.1,2.1-2.1
					C238.7,394,239.7,395,239.7,396.2z"/>
			</g>
			<g>
				<path class="st7" d="M251.6,396.1c0,1.2-0.9,2.1-2.1,2.1s-2.1-0.9-2.1-2.1c0-1.2,0.9-2.1,2.1-2.1
					C250.7,393.9,251.6,394.9,251.6,396.1z"/>
			</g>
			<g>
				<path class="st7" d="M263.5,396c0,1.2-0.9,2.1-2.1,2.1c-1.2,0-2.1-0.9-2.1-2.1c0-1.2,0.9-2.1,2.1-2.1
					C262.6,393.8,263.5,394.8,263.5,396z"/>
			</g>
		</g>
		<g>
			<g>
				<g>
					<path class="st7" d="M306,139c0,0.1-2.8,0.2-6.2,0.2c-3.5,0-6.2,0-6.2-0.1c0-0.1,2.8-0.2,6.2-0.2
						C303.2,138.9,306,138.9,306,139z"/>
				</g>
			</g>
			<g>
				<g>
					<path class="st7" d="M306.1,142.2c0,0.1-2.8,0.2-6.2,0.2c-3.5,0-6.2,0-6.2-0.1s2.8-0.2,6.2-0.2
						C303.3,142.1,306.1,142.1,306.1,142.2z"/>
				</g>
			</g>
			<g>
				<g>
					<path class="st7" d="M306.1,145.4c0,0.1-2.8,0.2-6.2,0.2c-3.5,0-6.2,0-6.2-0.1c0-0.1,2.8-0.2,6.2-0.2
						C303.3,145.3,306.1,145.3,306.1,145.4z"/>
				</g>
			</g>
		</g>
		<g>
			<g>
				<path class="st7" d="M192.4,149.1c0,0,0.1,0,0.3,0c0.2,0,0.4,0,0.7,0c0.7,0,1.6,0,2.7-0.1L196,149c0-0.6,0-1.2,0-1.9
					c0-0.4,0-0.7,0-1.1c0.1-0.4,0.4-0.8,0.9-0.8c0.4,0,0.8,0,1.3,0c0.5,0.1,0.9,0.5,0.9,1.1c0,0.9,0,1.8,0,2.8l-0.1-0.1
					c1.1,0,2.2,0,3.4,0l-0.2,0.2c0-1.4,0-2.8,0-4.2c0-0.4,0-0.7,0-1.1c0-0.3-0.2-0.5-0.5-0.8c-0.5-0.5-1-1-1.5-1.5
					c-0.5-0.5-1-0.9-1.4-1.4c-0.2-0.2-0.5-0.5-0.7-0.7c-0.2-0.2-0.4-0.5-0.7-0.5c-0.3-0.1-0.5,0-0.8,0.1c-0.2,0.2-0.4,0.4-0.6,0.6
					c-0.4,0.4-0.8,0.8-1.2,1.2c-0.8,0.8-1.6,1.5-2.1,2.2c-0.2,0.4-0.2,0.8-0.2,1.2c0,0.4,0,0.8,0,1.2c0,0.7,0,1.4,0,1.9
					c0,0.5,0,0.9,0,1.2C192.4,148.9,192.4,149.1,192.4,149.1c0,0,0-0.1,0-0.4c0-0.3,0-0.7,0-1.2c0-0.6,0-1.2,0-1.9
					c0-0.4,0-0.8,0-1.2c0-0.4-0.1-0.9,0.2-1.4c0.6-0.8,1.4-1.4,2.1-2.3c0.4-0.4,0.8-0.8,1.2-1.2c0.2-0.2,0.4-0.4,0.7-0.6
					c0.3-0.2,0.7-0.3,1-0.2c0.4,0.1,0.6,0.4,0.8,0.6c0.2,0.2,0.5,0.4,0.7,0.7c0.5,0.5,0.9,0.9,1.4,1.4c0.5,0.5,1,1,1.5,1.4
					c0.2,0.2,0.6,0.6,0.6,1c0,0.4,0,0.7,0,1.1c0,1.4,0,2.8,0,4.2l0,0.2l-0.2,0c-1.2,0-2.3,0-3.4,0l-0.1,0l0-0.1c0-1,0-1.9,0-2.8
					c0-0.4-0.3-0.7-0.7-0.8c-0.4,0-0.8,0-1.2,0c-0.4,0-0.6,0.3-0.7,0.6c0,0.3,0,0.7,0,1.1c0,0.7,0,1.3,0,1.9l0,0.1l-0.1,0
					c-1.1,0-2,0-2.7,0c-0.3,0-0.5,0-0.7,0C192.5,149.1,192.4,149.1,192.4,149.1z"/>
			</g>
		</g>
		<g>
			<g>
				<path class="st12" d="M343,384.4l-32.4,0.3c-3,0-5.4-2.4-5.4-5.4l-0.3-32.4c0-3,2.4-5.4,5.4-5.4l32.4-0.3c3,0,5.4,2.4,5.4,5.4
					l0.3,32.4C348.4,381.9,346,384.4,343,384.4z"/>
			</g>
			<g>
				<g>
					<path class="st2" d="M316.1,361.1c0,0,0.2,0.1,0.4,0.4c0.3,0.3,0.7,0.6,1.2,1c1.1,0.9,2.6,2.1,4.4,3.6l0.1,0.1l0,0.1
						c-0.2,2.2-0.5,4.8-0.8,7.8l-0.3-0.2c2-1.3,4.3-2.7,6.7-4.1l0.1-0.1l0.1,0.1c2.3,1,4.7,2.1,7.2,3.2l-0.4,0.3
						c-0.6-2.5-1.2-5-1.9-7.6c0-0.1-0.1,0.2,0.1-0.2l0,0l0,0l0,0l0,0l0,0l0,0l0.1-0.1l0.2-0.2l0.3-0.4l0.7-0.7
						c0.4-0.5,0.9-1,1.3-1.5c0.9-1,1.7-1.9,2.6-2.9l0.2,0.4c-2.7-0.2-5.4-0.4-7.8-0.6l-0.1,0l-0.1-0.1c-1.4-2.4-2.7-4.7-3.9-6.8
						l0.4,0c-1.2,2.8-2.2,5.2-3,7.2l0,0.1l-0.1,0c-2.4,0.5-4.3,0.8-5.6,1.1c-0.6,0.1-1.1,0.2-1.5,0.3
						C316.3,361.1,316.1,361.1,316.1,361.1c0,0,0.1,0,0.5-0.1c0.4-0.1,0.9-0.2,1.5-0.4c1.4-0.3,3.3-0.8,5.7-1.3l-0.1,0.1
						c0.8-2.1,1.8-4.5,2.9-7.3l0.2-0.4l0.2,0.4c1.2,2.1,2.5,4.4,4,6.8l-0.2-0.1c2.5,0.2,5.1,0.4,7.8,0.6l0.5,0l-0.3,0.4
						c-0.8,0.9-1.7,1.9-2.6,2.9c-0.4,0.5-0.9,1-1.3,1.5l-0.7,0.7l-0.3,0.4l-0.2,0.2l-0.1,0.1l0,0l0,0l0,0l0,0l0,0l0,0
						c0.1-0.5,0-0.1,0.1-0.2c0.6,2.6,1.2,5.2,1.8,7.6l0.1,0.5l-0.5-0.2c-2.5-1.1-4.9-2.2-7.2-3.2l0.2,0c-2.4,1.5-4.7,2.9-6.7,4.1
						l-0.4,0.2l0-0.4c0.3-3,0.6-5.6,0.9-7.8l0.1,0.1c-1.9-1.6-3.3-2.9-4.4-3.9c-0.5-0.4-0.8-0.7-1.1-1
						C316.2,361.2,316.1,361.1,316.1,361.1z"/>
				</g>
			</g>
		</g>
	</g>
</g>
<g id="Character">
	<g>
		<g>
			<g>
				<g>
					<g>
						<polygon class="st15" points="139.5,347.5 147.4,422.9 133.7,422.9 120,357.7 						"/>
					</g>
				</g>
			</g>
		</g>
		<g>
			<g>
				<path class="st15" d="M114.1,310.3H90.2l5.1,43.9L59.6,404l7.3,9.3l39.7-41.3l8.3-8.9c1.8-1.9,2.7-4.5,2.5-7L114.1,310.3z"/>
			</g>
			<g>
				<g>
					<path class="st16" d="M115.2,340.3c0,0,0.1,0.2,0.2,0.5c0.1,0.3,0.2,0.8,0.4,1.5c0.3,1.3,0.7,3.1,1.1,5.5
						c0.4,2.3,0.7,5.1,0.6,8.3c-0.1,1.6-0.3,3.2-0.9,4.9c-0.7,1.6-1.8,3-3.1,4.3c-5,5.2-9.5,9.9-12.8,13.2c-1.6,1.6-2.9,3-3.9,4
						c-0.4,0.4-0.8,0.8-1.1,1.1c-0.3,0.2-0.4,0.4-0.4,0.3c0,0,0.1-0.2,0.3-0.4c0.3-0.3,0.6-0.7,1-1.1c0.9-1,2.2-2.4,3.8-4.1
						c3.3-3.5,7.7-8.2,12.7-13.3c1.2-1.3,2.3-2.7,3-4.2c0.6-1.5,0.8-3.1,0.9-4.7c0.1-3.1-0.2-5.9-0.5-8.2c-0.3-2.3-0.7-4.2-1-5.5
						c-0.1-0.6-0.2-1.1-0.3-1.5C115.2,340.5,115.2,340.3,115.2,340.3z"/>
				</g>
			</g>
		</g>
		<g>
			<g>
				<g>
					<path class="st15" d="M161.6,251.3L161.6,251.3l0.4-0.1c3.6-0.6,7.9-1.4,10.1-2c4.1-1.3,4-1.6,3.8-2.1
						c-0.6-1.2-7.3,1.9-6.2,0.4c1.1-1.5,8.6-2.9,7.9-4.2c-0.9-1.6-7.8,1.8-8.4,2.1c-0.6,0.2-1-0.6-0.4-0.8c0.8-0.3,9.2-3.4,8.4-5
						c-0.5-0.9-2,0.1-2,0.1s-7.6,3.5-8,2.8c-0.4-0.8,4-3,5.6-3.7c1.5-0.6,1.9-1.6,1-2.1c-0.6-0.3-5.3,1.6-6.8,2.2
						c-1.5,0.7-5.6,2.6-4.3,0c0,0,0-0.1,0.1-0.1c1.4-2.5,1.6-4.9,1.1-5.7c-0.4-0.7-1.5-0.5-1.8,0.3c-0.1,0.1-0.1,0.3-0.1,0.4
						c0,0.1,0,0.1,0,0.2c-0.2,0.8-0.7,1.9-1.1,2.8c-0.4,0.8-0.9,1.5-1.6,2.1c-0.7,0.7-1.4,1.3-1.9,1.8l-5.7,2.3l5.1,9.7l3.7-0.7"/>
				</g>
			</g>
		</g>
		<g>
			<g>
				<path class="st8" d="M139.4,245.4l19-6.3l4.4,13.8l-25.9,9.1c-4.6,1.6-9.6-0.5-11.7-4.9l-4.4-16.9l13.3-10.1L139.4,245.4z"/>
			</g>
			<g>
				<g>
					<g>
						<g>
							<path class="st14" d="M99.6,208.1c0,0-21.8-2.9-20,19.1c0.6,7.3,3.8,17.8,6.2,23.6c0.8,2,0.9,4.1,0.2,6.2
								c-2.1,6.5-7.3,16.1-8.2,21.5l44.9,3.8l-0.1-37.2l7.7-3.2l6.5-2.6c-8.6-36.3-24.6-31.6-24.6-31.6L99.6,208.1"/>
						</g>
					</g>
				</g>
			</g>
			<g class="st17">
				<path d="M86.4,252.7c0.4,3.3-1,6.3-2.5,9.7c0,0,6.3,14.8,12.2,15.5c5,0.6,16.1,1.6,26.5,2.6l0.3-8.4l-42.5-38.9
					C81.3,238.2,83.7,244.8,86.4,252.7z"/>
			</g>
			<g>
				<path class="st7" d="M143,348.2c-10.7-22.2-19.6-46-20.3-70.7l0.3-41.7l-17.3,2l-7.2,40.2l-21,0.4c-4.2,10-3.4,20.9-0.5,30.9
					c3.4,11.7,10.6,23,8.7,35.1c-0.5,2.9-1.3,6.1,0.5,8.4c1.2,1.5,3.3,2,5.2,2.3c14.9,3,30.6,5.9,45.1,1.2c1-0.3,2-0.8,2.7-1.6
					C141.8,351.6,143.9,349.9,143,348.2z"/>
			</g>
			<g>
				<g>
					<path class="st18" d="M97.9,280.9c0.1,0,0.1,0.8-0.4,2c-0.4,1.2-1.4,2.7-3.1,3.8c-1.7,1.1-3.5,1.3-4.7,1.2
						c-1.3-0.1-2-0.5-2-0.5c0-0.1,0.8,0.1,2,0.1c1.2,0,2.9-0.3,4.4-1.3c1.5-1,2.5-2.4,3-3.5C97.8,281.6,97.9,280.9,97.9,280.9z"/>
				</g>
			</g>
			<g>
				<g>
					<path class="st7" d="M121.8,223.2c0,0,0,0.4-0.2,1c-0.1,0.6-0.4,1.6-0.6,2.7l0-0.1c0.5,0.9,1.2,2.1,1.8,3.3
						c0.6,1.3,1.3,2.7,1.6,4.3c0.1,0.3,0.1,0.6,0.1,0.9c0,0.3,0,0.6,0,0.9c0,0.6-0.1,1.1-0.1,1.7c-0.1,1.1-0.3,2.1-0.5,3
						c-0.4,1.8-0.9,3.3-1.3,4.2l0,0c0,0.9-0.1,1.4-0.1,1.4c0,0-0.1-0.5-0.1-1.4l0,0l0,0c0.3-0.9,0.7-2.4,1.1-4.2
						c0.2-0.9,0.3-1.9,0.4-3c0.1-0.5,0.1-1.1,0.1-1.6c0-0.3,0-0.6,0-0.8c0-0.3,0-0.5-0.1-0.8c-0.3-1.5-1-2.9-1.5-4.2
						c-0.6-1.3-1.2-2.4-1.7-3.4l0-0.1l0-0.1c0.3-1.1,0.6-2.1,0.8-2.7C121.6,223.5,121.7,223.2,121.8,223.2z"/>
				</g>
			</g>
			<g>
				<g>
					<path class="st7" d="M112.8,240.5c0.1,0-0.1,0.5-0.6,1.2c-0.5,0.7-1.4,1.5-2.6,2c-1.2,0.5-2.4,0.7-3.2,0.6
						c-0.8,0-1.3-0.2-1.3-0.3c0-0.2,2.1,0.2,4.3-0.8C111.6,242.2,112.6,240.4,112.8,240.5z"/>
				</g>
			</g>
			<g>
				<path class="st7" d="M86.8,210.3c0,0,12.8,9,19.3,27.5l2.9-0.4c0,0-4.9-18.5-20.1-28.1C88.9,209.3,87.1,209.9,86.8,210.3z"/>
			</g>
			<g>
				<path class="st7" d="M114.2,207.8c0,0,8,13.7,8.3,28.6h-2.7c0,0-3.2-23.1-9-28.9L114.2,207.8z"/>
			</g>
			<g>
				<g>
					<path class="st18" d="M109.4,237.4c0.1,0,0.3,0.4,0.5,1.1c0.1,0.4,0.2,0.9,0.1,1.4c-0.1,0.5-0.5,1.1-1.1,1.4
						c-0.7,0.3-1.4,0-1.8-0.4c-0.4-0.4-0.6-0.9-0.7-1.3c-0.2-0.8-0.1-1.2,0-1.3c0.1,0,0.2,0.5,0.4,1.1c0.1,0.3,0.3,0.7,0.6,1
						c0.3,0.3,0.8,0.5,1.2,0.3c0.4-0.2,0.7-0.6,0.8-1.1c0.1-0.4,0.1-0.9,0-1.2C109.4,237.9,109.3,237.4,109.4,237.4z"/>
				</g>
			</g>
			<g>
				<g>
					<path class="st18" d="M107.8,238.6c0,0.1,0,0.2,0,0.3c0,0.1,0.1,0.1,0.1,0.1c0,0,0,0,0.1,0c0.1,0,0.1-0.1,0.1-0.1
						c0,0,0-0.1,0-0.1C108,238.6,107.9,238.6,107.8,238.6c0-0.1,0.2-0.2,0.4-0.1c0.1,0.1,0.3,0.2,0.3,0.4c0,0.2-0.1,0.5-0.3,0.6
						c-0.2,0.1-0.5,0.1-0.7-0.1c-0.1-0.2-0.1-0.4-0.1-0.5C107.6,238.5,107.8,238.5,107.8,238.6z"/>
				</g>
			</g>
			<g>
				<g>
					<path class="st18" d="M121.3,238.1c0,0.1-0.2,0.1-0.4,0.1c-0.3,0-0.6-0.2-0.9-0.5c-0.3-0.3-0.4-0.7-0.4-1
						c0-0.3,0.1-0.4,0.2-0.4c0.1,0,0.2,0.6,0.6,1C120.7,237.8,121.3,237.9,121.3,238.1z"/>
				</g>
			</g>
			<g>
				<g>
					<path class="st18" d="M118,246.5c0,0.1-1.7,0.5-3.8,0.9c-2.1,0.3-3.9,0.5-3.9,0.3c0-0.1,1.7-0.5,3.8-0.9
						C116.2,246.5,117.9,246.4,118,246.5z"/>
				</g>
			</g>
			<g>
				<g>
					<g>
						<g>
							<g>
								<g>
									<g>
										<path class="st18" d="M112.6,292.2c-0.1,0,0.4,1.2,1.2,3.2c0.8,1.9,1.9,4.6,3.1,7.6c1.2,3,2.2,5.7,2.9,7.7
											c0.7,2,1.2,3.2,1.3,3.2c0,0,0-0.3-0.2-0.9c-0.2-0.6-0.4-1.4-0.7-2.4c-0.6-2-1.6-4.8-2.8-7.7c-1.2-3-2.3-5.7-3.2-7.6
											c-0.4-1-0.8-1.7-1.1-2.3C112.8,292.5,112.7,292.2,112.6,292.2z"/>
									</g>
								</g>
							</g>
						</g>
					</g>
				</g>
			</g>
		</g>
		<g>
			<g>
				<g>
					<g>
						<g>
							<g>
								<g>
									<path class="st8" d="M67.5,414.2l0.9-0.8L60,403.1l-3.8,3.3l0.5,0.6c2.3,2.9,11.7,14.4,13.9,15.8
										C73,424.3,67.5,414.2,67.5,414.2z"/>
								</g>
							</g>
						</g>
						<g class="st19">
							<g>
								<g>
									<path class="st13" d="M59.5,409.9c0.7-0.9,1.1-2,1-3.1c-0.1-1.1-0.5-2.2-1.3-3l-2.8,2.4L59.5,409.9z"/>
								</g>
							</g>
						</g>
					</g>
					<g>
						<g class="st19">
							<g>
								<path class="st13" d="M70,419.3c0,0,1.8,3.7,0.9,3.8c-0.8,0.1-10.8-11.3-14.8-16.7l0.2-0.2L68,419.5
									C68,419.5,69.5,418.7,70,419.3z"/>
							</g>
						</g>
					</g>
					<g>
						<g>
							<g>
								<g>
									<path class="st7" d="M56.3,406c0,0,0,0.1,0.1,0.2c0.1,0.2,0.3,0.3,0.4,0.5c0.4,0.5,0.9,1.1,1.5,1.9c1.3,1.6,3.1,3.7,5.1,6
										c2,2.3,3.9,4.4,5.3,5.9c0.7,0.7,1.2,1.3,1.7,1.7c0.2,0.2,0.3,0.3,0.5,0.5c0.1,0.1,0.2,0.2,0.2,0.2c0,0,0-0.1-0.1-0.2
										c-0.1-0.1-0.3-0.3-0.4-0.5c-0.4-0.5-1-1.1-1.6-1.8c-1.4-1.5-3.3-3.6-5.3-5.9c-2-2.3-3.9-4.5-5.2-6
										c-0.6-0.7-1.1-1.3-1.6-1.8c-0.2-0.2-0.3-0.3-0.4-0.5C56.4,406.1,56.3,406,56.3,406z"/>
								</g>
							</g>
						</g>
					</g>
					<g>
						<g>
							<g>
								<g>
									<path class="st7" d="M67.8,419.7c0,0,0.5-0.3,1.2-0.4c0.7-0.1,1.2,0.1,1.2,0c0,0-0.5-0.3-1.3-0.2
										C68.2,419.2,67.8,419.6,67.8,419.7z"/>
								</g>
							</g>
						</g>
					</g>
					<g>
						<g>
							<g>
								<g>
									<path class="st7" d="M66.7,415.4c0,0,0.3,0,0.7,0c0.4-0.1,0.6-0.1,0.6-0.2c0,0-0.3,0-0.7,0C67,415.3,66.7,415.4,66.7,415.4
										z"/>
								</g>
							</g>
						</g>
					</g>
					<g>
						<g>
							<g>
								<g>
									<path class="st7" d="M66.4,414.2c0,0,0.2,0.1,0.5,0.1c0.3,0,0.6,0,0.6,0c0,0-0.2-0.1-0.5-0.1
										C66.7,414.2,66.5,414.2,66.4,414.2z"/>
								</g>
							</g>
						</g>
					</g>
					<g>
						<g>
							<g>
								<g>
									<path class="st7" d="M66.9,412.9c0,0,0.1,0.3,0.4,0.6c0.2,0.3,0.5,0.5,0.5,0.5c0,0-0.1-0.3-0.4-0.6
										C67.2,413.1,67,412.9,66.9,412.9z"/>
								</g>
							</g>
						</g>
					</g>
					<g>
						<g>
							<g>
								<g>
									<path class="st7" d="M67.4,412.2c0,0,0.1,0.4,0.3,0.7c0.3,0.4,0.6,0.6,0.6,0.5c0,0-0.2-0.3-0.5-0.6
										C67.7,412.4,67.5,412.1,67.4,412.2z"/>
								</g>
							</g>
						</g>
					</g>
					<g>
						<g>
							<g>
								<g>
									<path class="st7" d="M67.9,415c0,0,0.2,0.3,0.6,0.6c0.2,0.2,0.4,0.4,0.7,0.5c0.2,0.1,0.3,0.2,0.5,0.2c0.1,0,0.2,0,0.3,0
										c0.1-0.1,0.2-0.2,0.2-0.3c-0.2-0.9-1.1-1.2-1.6-1.1c-0.3,0-0.5,0.1-0.6,0.2c-0.1,0.1-0.2,0.1-0.2,0.1c0,0,0.3-0.2,0.8-0.2
										c0.3,0,0.6,0.1,0.8,0.2c0.3,0.2,0.6,0.5,0.6,0.8c0,0.2-0.1,0.2-0.3,0.2c-0.2,0-0.3-0.1-0.5-0.2c-0.3-0.2-0.5-0.3-0.7-0.5
										C68.1,415.2,67.9,415,67.9,415z"/>
								</g>
							</g>
						</g>
					</g>
					<g>
						<g>
							<g>
								<g>
									<path class="st7" d="M68,415.2c0,0,0.2,0,0.5-0.3c0.1-0.1,0.2-0.3,0.3-0.6c0-0.2,0.1-0.6-0.1-0.8c-0.1-0.1-0.4-0.1-0.5,0.1
										c-0.1,0.1-0.2,0.2-0.2,0.4c-0.1,0.2-0.1,0.5-0.1,0.6C67.9,414.9,68,415.1,68,415.2c0-0.1,0-0.3,0-0.6
										c0-0.2,0.1-0.4,0.1-0.6c0.1-0.2,0.2-0.5,0.4-0.3c0.2,0.1,0.1,0.4,0.1,0.7c0,0.2-0.1,0.4-0.3,0.5
										C68.2,415.1,68,415.2,68,415.2z"/>
								</g>
							</g>
						</g>
					</g>
					<g>
						<g>
							<g>
								<g>
									<path class="st7" d="M59.2,403.9c0,0,0.3,0.3,0.6,0.8c0.3,0.5,0.7,1.3,0.8,2.2c0,0.9-0.2,1.7-0.5,2.2
										c-0.3,0.5-0.6,0.8-0.5,0.8c0,0,0.1-0.1,0.2-0.2c0.1-0.1,0.3-0.3,0.4-0.6c0.3-0.5,0.6-1.4,0.6-2.3c0-1-0.4-1.8-0.8-2.2
										c-0.2-0.2-0.4-0.4-0.5-0.5C59.3,403.9,59.2,403.9,59.2,403.9z"/>
								</g>
							</g>
						</g>
					</g>
					<g>
						<g>
							<g>
								<g>
									<path class="st7" d="M61.5,410.3c0,0,0.4,0.8,1.1,1.6c0.7,0.8,1.4,1.4,1.4,1.3c0,0-0.6-0.6-1.3-1.4
										C62.1,411,61.6,410.3,61.5,410.3z"/>
								</g>
							</g>
						</g>
					</g>
					<g>
						<g>
							<g>
								<g>
									<path class="st7" d="M59.8,408.4c0,0-0.1,0.2-0.2,0.4c-0.1,0.2-0.2,0.3-0.2,0.4c0,0,0.2-0.1,0.3-0.3
										C59.9,408.6,59.9,408.4,59.8,408.4z"/>
								</g>
							</g>
						</g>
					</g>
					<g>
						<g>
							<g>
								<g>
									<path class="st7" d="M60.1,406.8c0,0-0.1,0.2-0.1,0.3c0,0.2,0,0.4,0.1,0.4c0,0,0.1-0.2,0.1-0.3
										C60.2,407,60.1,406.8,60.1,406.8z"/>
								</g>
							</g>
						</g>
					</g>
					<g>
						<g>
							<g>
								<g>
									<path class="st7" d="M59.6,405.4c0,0,0.1,0.2,0.2,0.4c0.1,0.2,0.1,0.4,0.1,0.4c0,0,0.1-0.2,0-0.4
										C59.8,405.5,59.6,405.4,59.6,405.4z"/>
								</g>
							</g>
						</g>
					</g>
					<g>
						<g>
							<g>
								<g>
									<path class="st7" d="M59.1,404.5c0,0,0,0.1,0,0.2c0,0.1,0.1,0.2,0.1,0.2c0,0,0-0.1,0-0.2C59.2,404.6,59.2,404.5,59.1,404.5
										z"/>
								</g>
							</g>
						</g>
					</g>
				</g>
			</g>
		</g>
		<g>
			<g>
				<g>
					<g>
						<g>
							<g>
								<g>
									<path class="st8" d="M147,423.2l0-1.2l-13.3-0.1l0.2,5l0.8,0c3.7,0.1,18.6,0.1,21-0.7C158.3,425.3,147,423.2,147,423.2z"/>
								</g>
							</g>
						</g>
						<g class="st19">
							<g>
								<g>
									<path class="st13" d="M138.6,426.7c-0.2-1.1-0.9-2.1-1.8-2.8c-0.9-0.7-2-1-3.1-0.8l0.1,3.7L138.6,426.7z"/>
								</g>
							</g>
						</g>
					</g>
					<g>
						<g class="st19">
							<g>
								<path class="st13" d="M152.5,424.4c0,0,4,1,3.5,1.7c-0.5,0.7-15.6,1.2-22.2,0.9l0-0.3l17.6-0.5
									C151.4,426.2,151.7,424.5,152.5,424.4z"/>
							</g>
						</g>
					</g>
					<g>
						<g>
							<g>
								<g>
									<path class="st7" d="M133.6,426.7c0,0,0.1,0,0.2,0c0.2,0,0.4,0,0.7,0c0.7,0,1.5,0,2.4,0c2,0,4.8,0,7.9-0.1
										c3.1-0.1,5.9-0.3,7.9-0.4c0.9-0.1,1.7-0.1,2.4-0.2c0.2,0,0.5,0,0.7-0.1c0.1,0,0.2,0,0.2,0s-0.1,0-0.2,0c-0.2,0-0.4,0-0.7,0
										c-0.7,0-1.5,0.1-2.4,0.1c-2,0.1-4.8,0.3-7.9,0.4c-3.1,0.1-5.9,0.2-7.9,0.2c-0.9,0-1.8,0-2.4,0c-0.2,0-0.5,0-0.7,0
										C133.6,426.6,133.6,426.7,133.6,426.7z"/>
								</g>
							</g>
						</g>
					</g>
					<g>
						<g>
							<g>
								<g>
									<path class="st7" d="M151.4,426.4c0,0,0.1-0.6,0.4-1.2c0.3-0.6,0.8-0.9,0.8-0.9c0,0-0.6,0.2-0.9,0.9
										C151.3,425.8,151.3,426.4,151.4,426.4z"/>
								</g>
							</g>
						</g>
					</g>
					<g>
						<g>
							<g>
								<g>
									<path class="st7" d="M147.4,424.6c0,0,0.2-0.2,0.4-0.5c0.2-0.3,0.3-0.6,0.3-0.6c0,0-0.2,0.2-0.4,0.5
										C147.5,424.3,147.4,424.5,147.4,424.6z"/>
								</g>
							</g>
						</g>
					</g>
					<g>
						<g>
							<g>
								<g>
									<path class="st7" d="M146.3,424c0,0,0.2-0.1,0.5-0.3c0.2-0.2,0.4-0.4,0.3-0.4c0,0-0.2,0.1-0.5,0.3
										C146.4,423.8,146.3,424,146.3,424z"/>
								</g>
							</g>
						</g>
					</g>
					<g>
						<g>
							<g>
								<g>
									<path class="st7" d="M145.6,422.8c0,0,0.3,0.1,0.7,0.1c0.4,0,0.7-0.1,0.7-0.1c0,0-0.3-0.1-0.7-0.1
										C145.9,422.7,145.6,422.8,145.6,422.8z"/>
								</g>
							</g>
						</g>
					</g>
					<g>
						<g>
							<g>
								<g>
									<path class="st7" d="M145.3,421.9c0,0,0.3,0.2,0.8,0.2c0.4,0,0.8-0.1,0.8-0.1c0,0-0.4,0-0.8,0
										C145.7,422,145.4,421.9,145.3,421.9z"/>
								</g>
							</g>
						</g>
					</g>
					<g>
						<g>
							<g>
								<g>
									<path class="st7" d="M147.8,423.4c0,0,0.3,0,0.8,0c0.3,0,0.6-0.1,0.9-0.2c0.2-0.1,0.3-0.1,0.5-0.2c0.1-0.1,0.2-0.1,0.2-0.3
										c0-0.1,0-0.3-0.1-0.3c-0.8-0.4-1.6,0.1-1.9,0.5c-0.2,0.2-0.2,0.4-0.3,0.6c0,0.1,0,0.2,0,0.2c0,0,0-0.3,0.4-0.7
										c0.2-0.2,0.4-0.4,0.7-0.5c0.3-0.1,0.7-0.1,1,0c0.1,0.1,0.1,0.3-0.1,0.4c-0.1,0.1-0.3,0.2-0.5,0.2c-0.3,0.1-0.6,0.2-0.9,0.3
										C148.1,423.3,147.8,423.4,147.8,423.4z"/>
								</g>
							</g>
						</g>
					</g>
					<g>
						<g>
							<g>
								<g>
									<path class="st7" d="M148,423.4c0,0,0.1-0.2,0.1-0.6c0-0.2-0.1-0.4-0.3-0.6c-0.2-0.2-0.4-0.4-0.7-0.4
										c-0.2,0-0.3,0.3-0.2,0.4c0,0.1,0.1,0.3,0.2,0.4c0.1,0.2,0.3,0.4,0.4,0.5C147.8,423.3,148,423.4,148,423.4
										c-0.1,0-0.2-0.2-0.5-0.4c-0.1-0.1-0.3-0.3-0.4-0.5c-0.1-0.2-0.2-0.5,0-0.5c0.2,0,0.4,0.2,0.6,0.3c0.1,0.2,0.2,0.4,0.3,0.5
										C148.1,423.2,148,423.4,148,423.4z"/>
								</g>
							</g>
						</g>
					</g>
					<g>
						<g>
							<g>
								<g>
									<path class="st7" d="M133.7,423c0,0,0.4,0,1,0c0.6,0,1.4,0.3,2.2,0.8c0.7,0.5,1.2,1.3,1.4,1.8c0.2,0.6,0.3,0.9,0.3,0.9
										c0,0,0-0.1,0-0.3c0-0.2-0.1-0.4-0.2-0.7c-0.2-0.6-0.6-1.4-1.4-1.9c-0.8-0.6-1.6-0.8-2.3-0.8c-0.3,0-0.6,0-0.7,0
										C133.8,423,133.7,423,133.7,423z"/>
								</g>
							</g>
						</g>
					</g>
					<g>
						<g>
							<g>
								<g>
									<path class="st7" d="M140.2,425.3c0,0,0.9,0.1,1.9,0.1c1.1,0,1.9-0.2,1.9-0.2c0,0-0.9,0-1.9,0.1
										C141,425.3,140.2,425.3,140.2,425.3z"/>
								</g>
							</g>
						</g>
					</g>
					<g>
						<g>
							<g>
								<g>
									<path class="st7" d="M137.6,425.4c0,0,0.1,0.2,0.2,0.4c0.1,0.2,0.1,0.4,0.2,0.4c0,0,0.1-0.2-0.1-0.4
										C137.8,425.5,137.6,425.4,137.6,425.4z"/>
								</g>
							</g>
						</g>
					</g>
					<g>
						<g>
							<g>
								<g>
									<path class="st7" d="M136.6,424.2c0,0,0.1,0.2,0.2,0.3c0.1,0.1,0.3,0.2,0.3,0.2c0,0-0.1-0.2-0.2-0.3
										C136.7,424.3,136.6,424.2,136.6,424.2z"/>
								</g>
							</g>
						</g>
					</g>
					<g>
						<g>
							<g>
								<g>
									<path class="st7" d="M135.1,423.7c0,0,0.2,0,0.4,0.1c0.2,0.1,0.3,0.2,0.4,0.1c0,0-0.1-0.2-0.3-0.3
										C135.3,423.6,135.1,423.7,135.1,423.7z"/>
								</g>
							</g>
						</g>
					</g>
					<g>
						<g>
							<g>
								<g>
									<path class="st7" d="M134.1,423.5c0,0,0.1,0.1,0.2,0.1c0.1,0,0.2,0,0.2,0c0,0-0.1-0.1-0.2-0.1
										C134.3,423.5,134.2,423.5,134.1,423.5z"/>
								</g>
							</g>
						</g>
					</g>
				</g>
			</g>
		</g>
		<g>
			<g>
				<g>
					<path class="st7" d="M116.4,171l2.6,17.7c1.3-0.3,2.7-0.5,4-0.8c0.7-0.1,1.4-0.3,1.8-0.9c0.6-0.9,0-2-0.7-2.8
						c-0.7-0.7-1.7-1.4-1.9-2.4c-0.3-1,0.3-2.1,0.3-3.2c0-1.1-0.5-2.1-1.1-3c-0.6-0.9-1.3-1.5-1.3-4.3"/>
				</g>
				<g>
					<g>
						<g>
							<g>
								<g>
									<g>
										<path class="st15" d="M112.7,208.2c-0.2-4.4-0.4-9.1-0.4-9.1s5.6-1.2,6.4-8.7c0.8-7.1-1.3-23.4-1.3-23.4l0,0
											c-8.4-2.9-17.9-0.2-23.4,6.7l0,0l2.3,35.8c0.3,4.2,4.1,7.2,8.5,6.9h0C109.4,216.1,112.9,212.4,112.7,208.2z"/>
									</g>
								</g>
							</g>
							<g>
								<g>
									<g>
										<g>
											<path class="st7" d="M117.3,179.8c0,0.5-0.3,1-0.9,1c-0.5,0.1-1-0.3-1-0.8c0-0.5,0.3-1,0.9-1
												C116.8,179,117.3,179.3,117.3,179.8z"/>
										</g>
									</g>
								</g>
								<g>
									<g>
										<g>
											<g>
												<path class="st7" d="M117.6,178.7c-0.1,0.1-0.9-0.4-1.9-0.3c-1,0-1.7,0.6-1.9,0.5c-0.1-0.1,0.1-0.3,0.4-0.5
													c0.3-0.3,0.8-0.5,1.5-0.5c0.6,0,1.2,0.2,1.5,0.4C117.5,178.4,117.6,178.6,117.6,178.7z"/>
											</g>
										</g>
									</g>
								</g>
							</g>
							<g>
								<g>
									<g>
										<g>
											<path class="st7" d="M106.6,180.6c0,0.5-0.3,1-0.9,1c-0.5,0.1-1-0.3-1-0.8c0-0.5,0.3-1,0.9-1
												C106,179.7,106.5,180.1,106.6,180.6z"/>
										</g>
									</g>
								</g>
								<g>
									<g>
										<g>
											<g>
												<path class="st7" d="M106.9,179.6c-0.1,0.1-0.9-0.4-1.9-0.3c-1,0-1.7,0.6-1.9,0.5c-0.1-0.1,0.1-0.3,0.4-0.5
													c0.3-0.3,0.8-0.5,1.5-0.5c0.6,0,1.2,0.2,1.5,0.4C106.8,179.4,107,179.6,106.9,179.6z"/>
											</g>
										</g>
									</g>
								</g>
							</g>
							<g>
								<g>
									<g>
										<g>
											<path class="st7" d="M111,187c0-0.1,0.6-0.2,1.6-0.4c0.3,0,0.5-0.1,0.5-0.3c0.1-0.2-0.1-0.5-0.2-0.8
												c-0.3-0.6-0.6-1.3-0.9-2c-1.2-2.8-2.1-5.1-2-5.1c0.1,0,1.2,2.2,2.4,4.9c0.3,0.7,0.6,1.3,0.8,2c0.1,0.3,0.3,0.6,0.2,1
												c-0.1,0.2-0.2,0.4-0.4,0.4c-0.2,0.1-0.3,0.1-0.4,0.1C111.7,187.1,111,187.1,111,187z"/>
										</g>
									</g>
								</g>
							</g>
							<g>
								<g>
									<g>
										<path class="st16" d="M112.3,199.1c0,0-5,0.6-10.1-2.1c0,0,2.7,5,10.1,3.9L112.3,199.1z"/>
									</g>
								</g>
							</g>
							<g>
								<path class="st16" d="M107.9,189c0.3-0.3,0.7-0.6,1.1-0.7c0.4-0.1,1,0,1.2,0.4c0.1,0.2,0.1,0.4,0.3,0.4
									c0.1,0,0.2-0.1,0.3-0.1c0.2,0,0.3,0.1,0.4,0.3c0,0.2,0,0.3-0.1,0.5c-0.1,0.3-0.3,0.6-0.5,0.8c-0.2,0.3-0.5,0.6-0.9,0.8
									c-0.3,0.1-0.7,0.1-1.1,0c-0.4-0.1-0.8-0.4-1.1-0.8c-0.2-0.4-0.3-0.9-0.1-1.3s0.6-0.7,1.1-0.7"/>
							</g>
							<g>
								<g>
									<g>
										<g>
											<path class="st7" d="M108,187.9c0.2,0,0.2,1.1,1.2,1.8c1,0.7,2.2,0.6,2.2,0.7c0,0.1-0.3,0.2-0.8,0.3
												c-0.5,0-1.2-0.1-1.8-0.5c-0.6-0.5-0.9-1.1-1-1.5C107.8,188.2,108,187.9,108,187.9z"/>
										</g>
									</g>
								</g>
							</g>
						</g>
						<g>
							<g>
								<g>
									<path class="st15" d="M97.2,181.7c-0.8-0.1-1.6,0-2.4,0.3c-0.7,0.3-1.4,0.9-1.7,1.7c-0.3,0.8-0.2,1.6,0.1,2.4
										c0.3,0.7,0.8,1.4,1.5,1.9c0.4,0.4,0.9,0.7,1.5,0.9c0.6,0.1,1.2,0.1,1.6-0.3"/>
								</g>
							</g>
						</g>
						<g>
							<g>
								<g>
									<g>
										<path class="st16" d="M97,186.5c0.1,0-0.2,0.5-1,0.4c-0.4-0.1-0.7-0.4-0.9-0.7c-0.2-0.4-0.4-0.8-0.5-1.3
											c-0.1-0.5,0-1,0.3-1.4c0.2-0.4,0.7-0.6,1-0.7c0.7-0.1,1,0.4,0.9,0.5c-0.1,0.1-0.4-0.2-0.8,0c-0.5,0.1-0.9,0.8-0.7,1.6
											c0.1,0.8,0.5,1.5,0.9,1.7C96.7,186.7,97,186.5,97,186.5z"/>
									</g>
								</g>
							</g>
						</g>
					</g>
				</g>
				<g>
					<g>
						<path class="st7" d="M115.7,165.1c0.8,2.2-0.1,4.9-2.1,6.1c-2,1.3-4.5,1.1-6.8,1.4c-2.3,0.3-5,1.6-5.2,3.9
							c-0.2,1.4,0.6,2.9,0,4.2c-0.7,1.5-2.8,1.9-3.6,3.3c-1.3,2.3,1.7,5.1,1.1,7.7l-15.3-2.8c0,0,0-2.1,2-3.6c0,0-2.5,1.3-3.5,3.2
							l-4.5-1.5c0,0,1.7-4.8,7.1-6.5c2.4-0.8-1-5.2,0.2-7.4c1.3-2.6,6.1-1.3,7.5-3.9c0.5-0.9,0.3-2.1,0.6-3.1
							c0.6-2.3,3.4-3.5,5.8-3.5c2.4,0,4.8,0.7,7.2,0.4c1.3-0.1,2.6-0.5,3.9-0.8c1.3-0.2,2.7-0.2,3.9,0.4c1.2,0.7,1.9,2.1,1.5,3.3"/>
					</g>
				</g>
				<g>
					<g>
						<path class="st7" d="M113.8,170c1,2.6,2.5,6.1,5.1,6.8c1-1.2,1.2-5.1,0.9-6.9c-0.2-1.8-0.9-3.6-2.1-5c-1.3-1.3-3.2-2.1-5-1.7"
							/>
					</g>
				</g>
			</g>
			<g>
				<g>
					<path class="st18" d="M86.8,189.2c0,0-0.1-0.1-0.2-0.4c-0.1-0.3-0.1-0.8,0-1.3c0.1-0.6,0.3-1.3,0.8-2c0.4-0.7,1-1.4,1.5-2.3
						c0.5-0.9,0.6-2,0.5-3.1c-0.1-1.2-0.3-2.5,0.2-3.9c0.2-0.7,0.8-1.3,1.5-1.6c0.7-0.3,1.4-0.4,2.2-0.6c0.7-0.1,1.4-0.3,1.9-0.8
						c0.5-0.5,0.8-1.2,1-1.9c0.2-0.7,0.4-1.5,0.7-2.2c0.3-0.7,0.8-1.4,1.3-1.9c1.1-1.1,2.5-1.8,3.9-1.9c1.4-0.1,2.7,0.2,3.9,0.5
						c1.2,0.3,2.2,0.6,3.2,0.6c1,0,1.9-0.2,2.5-0.6c0.7-0.4,1.1-1,1.3-1.5c0.5-1,0.3-1.7,0.3-1.7c0,0,0.1,0.1,0.1,0.5
						c0,0.3,0,0.8-0.2,1.3c-0.2,0.5-0.7,1.2-1.3,1.6c-0.7,0.5-1.7,0.8-2.7,0.8c-1.1,0-2.2-0.2-3.3-0.5c-1.2-0.3-2.4-0.6-3.7-0.5
						c-1.3,0.1-2.6,0.8-3.6,1.8c-0.5,0.5-0.9,1.1-1.2,1.8c-0.3,0.7-0.5,1.4-0.7,2.2c-0.2,0.8-0.5,1.5-1.2,2.1
						c-0.6,0.6-1.4,0.8-2.2,0.9c-0.7,0.1-1.4,0.2-2,0.5c-0.6,0.3-1,0.8-1.2,1.4c-0.5,1.2-0.3,2.5-0.2,3.7c0,0.6,0,1.2-0.1,1.8
						c-0.1,0.6-0.3,1.1-0.6,1.6c-0.5,0.9-1.1,1.6-1.5,2.3c-0.4,0.7-0.7,1.3-0.8,1.9C86.5,188.6,86.9,189.2,86.8,189.2z"/>
				</g>
			</g>
			<g>
				<g>
					<path class="st18" d="M115.9,165.4c0,0,0,0.1-0.1,0.4c-0.1,0.3-0.3,0.6-0.5,1.1c-0.5,0.9-1.5,2.1-3.2,3c-0.8,0.4-1.9,0.7-3,0.8
						c-1.1,0.1-2.3,0-3.5-0.1c-1.2-0.1-2.5-0.2-3.7,0.2c-1.2,0.3-2.5,1-3,2.2c-0.5,1.2-0.4,2.6-0.7,4c-0.1,0.7-0.4,1.4-1,1.8
						c-0.5,0.5-1.2,0.7-1.7,0.9c-0.6,0.2-1.1,0.4-1.5,0.7c-0.4,0.3-0.7,0.8-0.9,1.2c-0.4,1-0.4,2-0.4,2.9c0,1.8-0.3,3.4-0.9,4.3
						c-0.3,0.4-0.7,0.7-0.9,0.8c-0.3,0.1-0.4,0.1-0.4,0.1c0-0.1,0.6-0.2,1.1-1c0.6-0.8,0.8-2.3,0.7-4.2c0-0.9,0-2,0.4-3
						c0.2-0.5,0.6-1.1,1-1.4c0.5-0.4,1.1-0.6,1.7-0.8c0.6-0.2,1.1-0.4,1.6-0.8c0.4-0.4,0.7-1,0.8-1.6c0.3-1.2,0.1-2.7,0.7-4.1
						c0.6-1.4,2.1-2.2,3.4-2.5c1.3-0.3,2.7-0.3,3.9-0.1c1.2,0.1,2.4,0.2,3.4,0.2c1.1-0.1,2-0.3,2.8-0.7c1.6-0.8,2.7-1.9,3.2-2.7
						C115.7,165.9,115.9,165.4,115.9,165.4z"/>
				</g>
			</g>
			<g>
				<g>
					<path class="st18" d="M121.7,176.3c-0.1,0-0.1-0.7-0.6-1.7c-0.2-0.5-0.6-1.1-1.2-1.5c-0.6-0.4-1.3-0.9-2-1.5
						c-0.7-0.6-1.1-1.5-1.2-2.3c-0.2-0.8-0.2-1.5-0.3-2c-0.1-1.1-0.5-1.7-0.4-1.8c0,0,0.6,0.6,0.8,1.7c0.3,1.1,0.2,2.8,1.5,4
						c0.6,0.6,1.3,1.1,1.9,1.5c0.7,0.5,1,1.2,1.2,1.7C121.9,175.6,121.7,176.3,121.7,176.3z"/>
				</g>
			</g>
			<g>
				<g>
					<path class="st7" d="M106.9,177.3c-0.1,0.3-0.9,0.1-1.9,0.1c-1-0.1-1.8,0-1.9-0.3c-0.1-0.3,0.7-0.8,1.9-0.7
						C106.3,176.4,107.1,177.1,106.9,177.3z"/>
				</g>
			</g>
			<g>
				<g>
					<path class="st7" d="M117.2,176.7c0,0.3-0.7,0.5-1.7,0.5c-0.9,0-1.7-0.3-1.6-0.5c0-0.3,0.7-0.5,1.7-0.5
						C116.5,176.2,117.2,176.4,117.2,176.7z"/>
				</g>
			</g>
		</g>
		<g>
			<g>
				<g>
					<path class="st18" d="M148.4,277.3l-31-10.5c-2.8-1-4.3-4-3.4-6.8l10.5-31c1-2.8,4-4.3,6.8-3.4l31,10.5c2.8,1,4.3,4,3.4,6.8
						l-10.5,31C154.3,276.8,151.2,278.3,148.4,277.3z"/>
				</g>
				<g>
					<g>
						<g>
							<path class="st2" d="M154,255.9c-0.1,0,0.4-1.2,0.6-3.5c0.2-2.2-0.2-5.7-2.5-9.1c-1.2-1.7-2.8-3.3-4.9-4.4
								c-2.1-1.1-4.6-1.9-7.3-1.8c-1.3,0-2.7,0.3-4,0.7c-1.3,0.4-2.6,1.1-3.8,1.9c-2.4,1.6-4.3,4.2-5.3,7.1c-1,2.9-1,6.1-0.1,8.9
								c0.4,1.4,1.1,2.7,1.9,3.8c0.8,1.2,1.7,2.2,2.8,3c2.1,1.7,4.6,2.6,6.9,3c2.4,0.4,4.6,0,6.6-0.6c3.9-1.3,6.3-3.9,7.5-5.8
								C153.6,257.1,153.9,255.9,154,255.9c0,0,0,0.1-0.1,0.2c-0.1,0.2-0.1,0.4-0.2,0.7c-0.1,0.3-0.2,0.6-0.4,1
								c-0.2,0.4-0.4,0.9-0.7,1.3c-0.6,1-1.5,2.1-2.7,3.2c-1.2,1.1-2.9,2.1-4.8,2.8c-2,0.7-4.3,1-6.7,0.7c-2.4-0.4-5-1.3-7.1-3.1
								c-1.1-0.8-2.1-1.9-2.9-3.1c-0.8-1.2-1.5-2.5-2-4c-1-2.9-0.9-6.1,0.1-9.2c1-3,3-5.6,5.5-7.3c1.2-0.9,2.6-1.5,4-2
								c1.4-0.4,2.8-0.7,4.2-0.7c2.8-0.1,5.4,0.7,7.5,1.9c2.2,1.2,3.8,2.9,5,4.6c1.2,1.7,1.8,3.5,2.2,5.2c0.3,1.6,0.4,3.1,0.2,4.2
								c0,0.6-0.1,1.1-0.2,1.5c-0.1,0.4-0.2,0.8-0.3,1.1c-0.1,0.3-0.2,0.5-0.2,0.7C154,255.8,154,255.9,154,255.9z"/>
						</g>
					</g>
					<g>
						<g>
							<path class="st2" d="M154.9,255.6c0,0.1-1.4-0.2-3.1-0.8c-1.7-0.6-3-1.1-2.9-1.3c0-0.1,1.4,0.2,3.1,0.8
								C153.6,254.9,154.9,255.5,154.9,255.6z"/>
						</g>
					</g>
					<g>
						<g>
							<path class="st2" d="M135,264.8c-0.1,0,0.2-1.4,0.8-3.1c0.6-1.7,1.1-3,1.3-2.9c0.1,0-0.2,1.4-0.8,3.1
								C135.7,263.6,135.2,264.9,135,264.8z"/>
						</g>
					</g>
					<g>
						<g>
							<path class="st2" d="M142.3,243.3c-0.1,0,0.2-1.4,0.8-3.1c0.6-1.7,1.1-3,1.3-2.9c0.1,0-0.2,1.4-0.8,3.1
								C143,242.1,142.4,243.4,142.3,243.3z"/>
						</g>
					</g>
					<g>
						<g>
							<path class="st2" d="M132.7,248.2c0,0.1-1.4-0.2-3.1-0.8c-1.7-0.6-3-1.1-2.9-1.3c0-0.1,1.4,0.2,3.1,0.8
								C131.5,247.5,132.8,248.1,132.7,248.2z"/>
						</g>
					</g>
					<g>
						<g>
							<path class="st2" d="M149.1,246.2c0.1,0.1-2.1,1.3-4.7,2.6c-2.7,1.3-4.9,2.3-5,2.2c-0.1-0.1,2.1-1.3,4.7-2.6
								C146.8,247.1,149,246.1,149.1,246.2z"/>
						</g>
					</g>
					<g>
						<g>
							<path class="st2" d="M145.6,252.9c0,0.1-1.4-0.2-3.1-0.8c-1.7-0.6-3-1.1-3-1.3c0-0.1,1.4,0.2,3.1,0.8
								C144.3,252.2,145.6,252.8,145.6,252.9z"/>
						</g>
					</g>
				</g>
			</g>
			<g>
				<g>
					<g>
						<g>
							<g>
								<g>
									<g>
										<path class="st15" d="M139.8,273.5l3.3,1.8c3.2,1.4,4.9,2.3,6.2,2c1.7-0.4,0.8-2.4,0.8-2.4s2.6,0.5,3.1-1
											c0.4-1-0.6-1.7-0.6-1.7s2.3,0.3,3.2-0.3c1.1-0.8,0.1-2.1,0.1-2.1c3.5-0.1,4.2-1.9,3.7-2.4c-0.5-0.5-3.1-0.7-3.1-0.7
											c-2-0.5-7.5-1.7-4.3-3.3c3.2-1.6,5.1-4.1,5.1-5.1c0-1-1.4-1.4-2-0.6c-0.6,0.7-1.9,1.6-2.9,2.2c-0.8,0.5-1.7,0.9-2.7,1.1
											c-1.1,0.2-2.1,0.4-2.9,0.5l-4.5,1.2L139.8,273.5z"/>
									</g>
								</g>
							</g>
						</g>
					</g>
					<g>
						<g>
							<g>
								<g>
									<g>
										<path class="st14" d="M81.2,229.2c1.6,6.6,7,18.6,12.2,28.3c5.2,9.8,13.3,12.1,13.3,12.1c6,1.2,36.3,7.4,36.3,7.4
											l2.8-16.1c0,0-31.5-8.3-34.1-9l-17-33.1"/>
									</g>
								</g>
							</g>
						</g>
					</g>
				</g>
				<g>
					<g>
						<path class="st7" d="M82.5,214.2c0,0,0.2-0.1,0.7-0.3c0.4-0.2,1.1-0.4,2-0.5c0.9-0.1,2-0.1,3.2,0.3c1.2,0.3,2.6,1,3.8,2
							c2.5,2,4.9,5.1,6.7,8.9c1.8,3.8,3.8,7.9,5.9,12.3c2.6,5.4,5,10.5,7.1,14.9l-0.1-0.1c5.3,1.4,9.7,2.7,12.9,3.5
							c1.5,0.4,2.7,0.8,3.6,1c0.4,0.1,0.7,0.2,1,0.3c0.2,0.1,0.3,0.1,0.3,0.1c0,0-0.1,0-0.3-0.1c-0.3-0.1-0.6-0.1-1-0.2
							c-0.9-0.2-2.1-0.5-3.7-0.9c-3.2-0.8-7.7-2-13-3.4l-0.1,0l0-0.1c-2.1-4.4-4.6-9.5-7.2-14.9c-2.1-4.4-4.1-8.5-5.9-12.3
							c-1.8-3.7-4.1-6.8-6.5-8.8c-1.2-1-2.5-1.6-3.7-2c-1.2-0.4-2.3-0.4-3.1-0.3C83.4,213.8,82.5,214.3,82.5,214.2z"/>
					</g>
				</g>
			</g>
		</g>
	</g>
</g>
</svg>
