<?xml version="1.0" encoding="utf-8"?>
<!-- Generator: Adobe Illustrator 22.0.0, SVG Export Plug-In . SVG Version: 6.00 Build 0)  -->
<svg version="1.1" id="_x2014_ÎÓÈ_x5F_1" xmlns="http://www.w3.org/2000/svg" xmlns:xlink="http://www.w3.org/1999/xlink"
	 x="0px" y="0px" viewBox="0 0 476.7 377.3" style="enable-background:new 0 0 476.7 377.3;" xml:space="preserve">
<style type="text/css">
	.st0{opacity:0.5;fill:#173D7A;}
	.st1{fill:#E83D4B;}
	.st2{fill:#891B29;}
	.st3{fill:#FFFFFF;}
	.st4{fill:#BC172B;}
	.st5{fill:#18283B;}
	.st6{fill:#B21628;}
	.st7{fill:#050F19;}
	.st8{fill:#DBDBDB;}
	.st9{fill:#A8A8A8;}
	.st10{fill:#B2B2B2;}
	.st11{fill:#AAAAAA;}
	.st12{fill:#BAB3B3;}
	.st13{fill:#B2182B;}
	.st14{fill:#FCC5CC;}
	.st15{fill:#222731;}
	.st16{fill:#D4ECFF;}
	.st17{fill:#FFC2B0;}
	.st18{fill:#EA9C92;}
	.st19{fill:#22222F;}
	.st20{fill:#961121;}
	.st21{fill:#396CAA;}
	.st22{fill:#5793CE;}
	.st23{fill:#910718;}
	.st24{fill:#B72E3E;}
	.st25{fill:#280307;}
	.st26{fill:#600D17;}
	.st27{fill:#BC283A;}
	.st28{fill:#D3008D;}
	.st29{fill:#BC2034;}
	.st30{fill:#F7A6AF;}
	.st31{fill:#AA1D2F;}
	.st32{display:none;}
	.st33{display:inline;}
	.st34{fill:url(#SVGID_1_);}
	.st35{fill:url(#SVGID_2_);}
	.st36{fill:url(#SVGID_3_);}
	.st37{fill:#173D7A;}
	.st38{opacity:0.3;fill:#06033E;}
	.st39{fill:#FF2C9C;}
	.st40{display:inline;fill:#D4ECFF;}
	.st41{display:inline;fill:#FF2C9C;}
	.st42{display:inline;fill:#FFFFFF;}
	.st43{fill:#D65666;}
	.st44{fill:#9B1C2B;}
</style>
<g>
	<path class="st0" d="M263.8,348.6l-146.1-84.3c-4.1-2.4-3.6-6.6,1.2-9.3l99.5-57.4c4.8-2.8,12-3.1,16.1-0.7l146.1,84.3
		c4.1,2.4,3.6,6.6-1.2,9.3L279.9,348C275.1,350.7,267.9,351,263.8,348.6z"/>
	<path class="st1" d="M429.3,101.9l-157-90.6c-1.8-1.1-3.7-1.2-5.3-0.7l0,0l-0.3,0.1c0,0,0,0-0.1,0l-5.7,2.2l5.1,2.5
		c0,0.1-0.1,0.2-0.1,0.3l-27.7,126.2c-1.3,5.8,1.3,12.6,5.7,15.2l153.2,88.5l-0.5,6.5l6.2-2.4c2.1-1,3.8-3.2,4.4-6.3L435,117.1
		C436.3,111.3,433.7,104.5,429.3,101.9z"/>
	<path class="st2" d="M423.3,119.8l12-5.1c0.2-4.6-1.7-9.4-4.8-12l-18.9,8L423.3,119.8z"/>
	<path class="st1" d="M391.2,251.4l-157-90.6c-4.4-2.6-7-9.4-5.7-15.2l27.7-126.2c1.3-5.8,5.9-8.5,10.4-5.9l157,90.6
		c4.4,2.6,7,9.4,5.7,15.2l-27.7,126.2C400.2,251.3,395.6,254,391.2,251.4z"/>
	<path class="st3" d="M425,103.6L268,12.9c-2.2-1.2-4.3-1.2-6.2-0.3c1.5-0.3,3.1-0.1,4.7,0.8l157,90.6c4.4,2.6,7,9.4,5.7,15.2
		l-27.7,126.2c-0.7,3-2.2,5.1-4.2,6.2c2.7-0.6,4.9-3,5.7-6.7l27.7-126.2C432,113,429.5,106.2,425,103.6z"/>
	<path class="st3" d="M387.7,242.7l-147.7-85.2c-4.1-2.3-6.4-8.6-5.2-13.9l25.6-116.3c1.2-5.3,5.4-7.8,9.5-5.4l147.7,85.2
		c4.1,2.3,6.4,8.6,5.2,13.9l-25.6,116.3C396.1,242.7,391.8,245.1,387.7,242.7z"/>
	<path class="st3" d="M387.7,242.7l-147.7-85.2c-4.1-2.3-6.4-8.6-5.2-13.9l25.6-116.3c1.2-5.3,5.4-7.8,9.5-5.4l147.7,85.2
		c4.1,2.3,6.4,8.6,5.2,13.9l-25.6,116.3C396.1,242.7,391.8,245.1,387.7,242.7z"/>
	<path class="st4" d="M389,242.2L241.4,157c-4.1-2.3-6.4-8.6-5.2-13.9l25.6-116.3c0.6-2.7,2-4.6,3.7-5.6c-2.3,0.6-4.3,2.8-5,6.1
		l-25.6,116.3c-1.2,5.3,1.2,11.6,5.2,13.9l147.7,85.2c2,1.2,4.1,1.1,5.8,0.2C392.1,243.3,390.6,243.1,389,242.2z"/>
	<path class="st5" d="M393.3,255.3l-21.5-2.8l-138.5-80c-4.4-2.6-12.2-2.2-17.3,0.7l-98.2,56.7l-13-1.7v7.4l0,0
		c-0.1,1.7,0.9,3.3,3,4.5l157,90.6c4.4,2.6,12.2,2.2,17.3-0.7l106.9-61.7c2.9-1.7,4.3-3.8,4.2-5.8h0V255.3z"/>
	<path class="st5" d="M289.2,204.8l-9.8-5.7H171.2l-53.3,30.8l-13-1.7v7.4l0,0c-0.1,1.7,0.9,3.3,3,4.5l157,90.6
		c2.3,1.4,5.6,1.9,8.9,1.7L289.2,204.8z"/>
	<path class="st6" d="M110.6,228.9l-5.8-0.8v7.4l0,0c-0.1,1.7,0.9,3.3,3,4.5l2.8,1.6V228.9z"/>
	<path class="st7" d="M266.4,331.5c4.2,1.6,10.2,1.2,14.7-0.9v-16.4h-14.7V331.5z"/>
	<path class="st8" d="M264.8,323.4l-157-90.6c-4.4-2.6-3.9-7,1.2-10L216,161c5.1-3,12.9-3.3,17.3-0.7l157,90.6c4.4,2.6,3.9,7-1.2,10
		l-106.9,61.7C277,325.6,269.3,326,264.8,323.4z"/>
	<path class="st3" d="M389.1,258.3L282.2,320c-5.1,3-12.9,3.3-17.3,0.7l-157-90.6c-1.5-0.8-2.4-1.9-2.8-3c-0.7,2.1,0.2,4.2,2.8,5.7
		l157,90.6c4.4,2.6,12.2,2.2,17.3-0.7L389.1,261c3.4-2,4.8-4.7,4-7C392.6,255.5,391.2,257,389.1,258.3z"/>
	<g>
		<path class="st9" d="M174.6,202.7l-7.1-4.1c-0.6-0.3-0.5-0.9,0.2-1.3l8.4-4.8c0.7-0.4,1.7-0.4,2.2-0.1l7.1,4.1
			c0.6,0.3,0.5,0.9-0.2,1.3l-8.4,4.8C176.2,203,175.2,203.1,174.6,202.7z"/>
		<path class="st9" d="M185.6,209.1l-7.1-4.1c-0.6-0.3-0.5-0.9,0.2-1.3l8.4-4.8c0.7-0.4,1.7-0.4,2.2-0.1l7.1,4.1
			c0.6,0.3,0.5,0.9-0.2,1.3l-8.4,4.8C187.2,209.4,186.2,209.4,185.6,209.1z"/>
		<path class="st9" d="M196.6,215.4l-7.1-4.1c-0.6-0.3-0.5-0.9,0.2-1.3l8.4-4.8c0.7-0.4,1.7-0.4,2.2-0.1l7.1,4.1
			c0.6,0.3,0.5,0.9-0.2,1.3l-8.4,4.8C198.1,215.7,197.1,215.7,196.6,215.4z"/>
		<path class="st9" d="M211.7,210.2l-7.1-4.1c-0.6-0.3-0.5-0.9,0.2-1.3l7-4.1c0.7-0.4,1.7-0.4,2.2-0.1l7.1,4.1
			c0.6,0.3,0.5,0.9-0.2,1.3l-7,4.1C213.3,210.5,212.3,210.5,211.7,210.2z"/>
		<path class="st9" d="M222.7,216.5l-7.1-4.1c-0.6-0.3-0.5-0.9,0.2-1.3l7-4.1c0.7-0.4,1.7-0.4,2.2-0.1l7.1,4.1
			c0.6,0.3,0.5,0.9-0.2,1.3l-7,4.1C224.3,216.8,223.3,216.8,222.7,216.5z"/>
		<path class="st9" d="M233.7,222.8l-7.1-4.1c-0.6-0.3-0.5-0.9,0.2-1.3l7-4.1c0.7-0.4,1.7-0.4,2.2-0.1l7.1,4.1
			c0.6,0.3,0.5,0.9-0.2,1.3l-7,4.1C235.2,223.1,234.2,223.2,233.7,222.8z"/>
		<path class="st9" d="M244.6,229.2l-7.1-4.1c-0.6-0.3-0.5-0.9,0.2-1.3l7-4.1c0.7-0.4,1.7-0.4,2.2-0.1l7.1,4.1
			c0.6,0.3,0.5,0.9-0.2,1.3l-7,4.1C246.2,229.5,245.2,229.5,244.6,229.2z"/>
		<path class="st9" d="M255.6,235.5l-7.1-4.1c-0.6-0.3-0.5-0.9,0.2-1.3l7-4.1c0.7-0.4,1.7-0.4,2.2-0.1l7.1,4.1
			c0.6,0.3,0.5,0.9-0.2,1.3l-7,4.1C257.2,235.8,256.2,235.8,255.6,235.5z"/>
		<path class="st9" d="M266.6,241.8l-7.1-4.1c-0.6-0.3-0.5-0.9,0.2-1.3l7-4.1c0.7-0.4,1.7-0.4,2.2-0.1l7.1,4.1
			c0.6,0.3,0.5,0.9-0.2,1.3l-7,4.1C268.2,242.1,267.2,242.2,266.6,241.8z"/>
		<path class="st9" d="M277.6,248.2l-7.1-4.1c-0.6-0.3-0.5-0.9,0.2-1.3l7-4.1c0.7-0.4,1.7-0.4,2.2-0.1l7.1,4.1
			c0.6,0.3,0.5,0.9-0.2,1.3l-7,4.1C279.1,248.5,278.1,248.5,277.6,248.2z"/>
		<path class="st9" d="M288.5,254.5l-7.1-4.1c-0.6-0.3-0.5-0.9,0.2-1.3l7-4.1c0.7-0.4,1.7-0.4,2.2-0.1l7.1,4.1
			c0.6,0.3,0.5,0.9-0.2,1.3l-7,4.1C290.1,254.8,289.1,254.8,288.5,254.5z"/>
		<path class="st9" d="M299.5,260.8l-7.1-4.1c-0.6-0.3-0.5-0.9,0.2-1.3l7-4.1c0.7-0.4,1.7-0.4,2.2-0.1l7.1,4.1
			c0.6,0.3,0.5,0.9-0.2,1.3l-7,4.1C301.1,261.1,300.1,261.2,299.5,260.8z"/>
		<path class="st9" d="M310.5,267.2l-7.1-4.1c-0.6-0.3-0.5-0.9,0.2-1.3l7-4.1c0.7-0.4,1.7-0.4,2.2-0.1l7.1,4.1
			c0.6,0.3,0.5,0.9-0.2,1.3l-7,4.1C312,267.5,311,267.5,310.5,267.2z"/>
		<path class="st9" d="M227.9,207.2l-7.1-4.1c-0.6-0.3-0.5-0.9,0.2-1.3l7-4.1c0.7-0.4,1.7-0.4,2.2-0.1l7.1,4.1
			c0.6,0.3,0.5,0.9-0.2,1.3l-7,4.1C229.5,207.5,228.5,207.5,227.9,207.2z"/>
		<path class="st9" d="M216.8,200.7l-7.1-4.1c-0.6-0.3-0.5-0.9,0.2-1.3l7-4.1c0.7-0.4,1.7-0.4,2.2-0.1l7.1,4.1
			c0.6,0.3,0.5,0.9-0.2,1.3l-7,4.1C218.3,201,217.3,201.1,216.8,200.7z"/>
		<path class="st9" d="M205.6,194.3l-15.3-8.8c-0.6-0.3-0.5-0.9,0.2-1.3l7-4.1c0.7-0.4,1.7-0.4,2.2-0.1l15.3,8.8
			c0.6,0.3,0.5,0.9-0.2,1.3l-7,4.1C207.2,194.6,206.2,194.6,205.6,194.3z"/>
		<path class="st9" d="M213.4,186.5l-12.4-7.2c-0.6-0.3-0.5-0.9,0.2-1.3l7-4.1c0.7-0.4,1.7-0.4,2.2-0.1l12.4,7.2
			c0.6,0.3,0.5,0.9-0.2,1.3l-7,4.1C215,186.8,214,186.8,213.4,186.5z"/>
		<path class="st9" d="M238.9,213.5l-7.1-4.1c-0.6-0.3-0.5-0.9,0.2-1.3l7-4.1c0.7-0.4,1.7-0.4,2.2-0.1l7.1,4.1
			c0.6,0.3,0.5,0.9-0.2,1.3l-7,4.1C240.4,213.8,239.4,213.8,238.9,213.5z"/>
		<path class="st9" d="M249.8,219.8l-7.1-4.1c-0.6-0.3-0.5-0.9,0.2-1.3l7-4.1c0.7-0.4,1.7-0.4,2.2-0.1l7.1,4.1
			c0.6,0.3,0.5,0.9-0.2,1.3l-7,4.1C251.4,220.1,250.4,220.2,249.8,219.8z"/>
		<path class="st9" d="M260.8,226.2l-7.1-4.1c-0.6-0.3-0.5-0.9,0.2-1.3l7-4.1c0.7-0.4,1.7-0.4,2.2-0.1l7.1,4.1
			c0.6,0.3,0.5,0.9-0.2,1.3l-7,4.1C262.4,226.5,261.4,226.5,260.8,226.2z"/>
		<path class="st9" d="M271.8,232.5l-7.1-4.1c-0.6-0.3-0.5-0.9,0.2-1.3l7-4.1c0.7-0.4,1.7-0.4,2.2-0.1l7.1,4.1
			c0.6,0.3,0.5,0.9-0.2,1.3l-7,4.1C273.3,232.8,272.4,232.8,271.8,232.5z"/>
		<path class="st9" d="M282.8,238.8l-7.1-4.1c-0.6-0.3-0.5-0.9,0.2-1.3l7-4.1c0.7-0.4,1.7-0.4,2.2-0.1l7.1,4.1
			c0.6,0.3,0.5,0.9-0.2,1.3l-7,4.1C284.3,239.1,283.3,239.2,282.8,238.8z"/>
		<path class="st9" d="M293.7,245.2l-7.1-4.1c-0.6-0.3-0.5-0.9,0.2-1.3l7-4.1c0.7-0.4,1.7-0.4,2.2-0.1l7.1,4.1
			c0.6,0.3,0.5,0.9-0.2,1.3l-7,4.1C295.3,245.5,294.3,245.5,293.7,245.2z"/>
		<path class="st9" d="M304.7,251.5l-7.1-4.1c-0.6-0.3-0.5-0.9,0.2-1.3l7-4.1c0.7-0.4,1.7-0.4,2.2-0.1l7.1,4.1
			c0.6,0.3,0.5,0.9-0.2,1.3l-7,4.1C306.3,251.8,305.3,251.8,304.7,251.5z"/>
		<path class="st9" d="M315.7,257.8l-7.1-4.1c-0.6-0.3-0.5-0.9,0.2-1.3l7-4.1c0.7-0.4,1.7-0.4,2.2-0.1l7.1,4.1
			c0.6,0.3,0.5,0.9-0.2,1.3l-7,4.1C317.2,258.1,316.2,258.2,315.7,257.8z"/>
		<path class="st9" d="M326.6,264.2l-7.1-4.1c-0.6-0.3-0.5-0.9,0.2-1.3l7-4.1c0.7-0.4,1.7-0.4,2.2-0.1l7.1,4.1
			c0.6,0.3,0.5,0.9-0.2,1.3l-7,4.1C328.2,264.5,327.2,264.5,326.6,264.2z"/>
		<path class="st9" d="M346.1,275.4l-15.5-8.9c-0.6-0.3-0.5-0.9,0.2-1.3l7-4.1c0.7-0.4,1.7-0.4,2.2-0.1l15.5,8.9
			c0.6,0.3,0.5,0.9-0.2,1.3l-7,4.1C347.7,275.7,346.7,275.8,346.1,275.4z"/>
		<path class="st9" d="M367.5,263.1l-13.1-7.6c-0.6-0.3-0.5-0.9,0.2-1.3l7-4.1c0.7-0.4,1.7-0.4,2.2-0.1l13.1,7.6
			c0.6,0.3,0.5,0.9-0.2,1.3l-7,4.1C369.1,263.4,368.1,263.4,367.5,263.1z"/>
		<path class="st9" d="M258.1,212.3l-7.1-4.1c-0.6-0.3-0.5-0.9,0.2-1.3l7-4.1c0.7-0.4,1.7-0.4,2.2-0.1l7.1,4.1
			c0.6,0.3,0.5,0.9-0.2,1.3l-7,4.1C259.6,212.6,258.7,212.6,258.1,212.3z"/>
		<path class="st9" d="M246.8,205.8l-7.1-4.1c-0.6-0.3-0.5-0.9,0.2-1.3l7-4.1c0.7-0.4,1.7-0.4,2.2-0.1l7.1,4.1
			c0.6,0.3,0.5,0.9-0.2,1.3l-7,4.1C248.4,206.1,247.4,206.1,246.8,205.8z"/>
		<path class="st9" d="M235.6,199.3l-7.1-4.1c-0.6-0.3-0.5-0.9,0.2-1.3l7-4.1c0.7-0.4,1.7-0.4,2.2-0.1l7.1,4.1
			c0.6,0.3,0.5,0.9-0.2,1.3l-7,4.1C237.2,199.6,236.2,199.6,235.6,199.3z"/>
		<path class="st9" d="M224.4,192.8l-7.1-4.1c-0.6-0.3-0.5-0.9,0.2-1.3l7-4.1c0.7-0.4,1.7-0.4,2.2-0.1l7.1,4.1
			c0.6,0.3,0.5,0.9-0.2,1.3l-7,4.1C225.9,193.1,224.9,193.1,224.4,192.8z"/>
		<path class="st9" d="M269.1,218.6l-7.1-4.1c-0.6-0.3-0.5-0.9,0.2-1.3l7-4.1c0.7-0.4,1.7-0.4,2.2-0.1l7.1,4.1
			c0.6,0.3,0.5,0.9-0.2,1.3l-7,4.1C270.6,218.9,269.6,218.9,269.1,218.6z"/>
		<path class="st9" d="M280,224.9l-7.1-4.1c-0.6-0.3-0.5-0.9,0.2-1.3l7-4.1c0.7-0.4,1.7-0.4,2.2-0.1l7.1,4.1
			c0.6,0.3,0.5,0.9-0.2,1.3l-7,4.1C281.6,225.2,280.6,225.3,280,224.9z"/>
		<path class="st9" d="M291,231.3l-7.1-4.1c-0.6-0.3-0.5-0.9,0.2-1.3l7-4.1c0.7-0.4,1.7-0.4,2.2-0.1l7.1,4.1
			c0.6,0.3,0.5,0.9-0.2,1.3l-7,4.1C292.6,231.6,291.6,231.6,291,231.3z"/>
		<path class="st9" d="M302,237.6l-7.1-4.1c-0.6-0.3-0.5-0.9,0.2-1.3l7-4.1c0.7-0.4,1.7-0.4,2.2-0.1l7.1,4.1
			c0.6,0.3,0.5,0.9-0.2,1.3l-7,4.1C303.5,237.9,302.5,237.9,302,237.6z"/>
		<path class="st9" d="M312.9,243.9l-7.1-4.1c-0.6-0.3-0.5-0.9,0.2-1.3l7-4.1c0.7-0.4,1.7-0.4,2.2-0.1l7.1,4.1
			c0.6,0.3,0.5,0.9-0.2,1.3l-7,4.1C314.5,244.2,313.5,244.3,312.9,243.9z"/>
		<path class="st9" d="M323.9,250.3l-7.1-4.1c-0.6-0.3-0.5-0.9,0.2-1.3l7-4.1c0.7-0.4,1.7-0.4,2.2-0.1l7.1,4.1
			c0.6,0.3,0.5,0.9-0.2,1.3l-7,4.1C325.5,250.6,324.5,250.6,323.9,250.3z"/>
		<path class="st9" d="M334.9,256.6l-7.1-4.1c-0.6-0.3-0.5-0.9,0.2-1.3l7-4.1c0.7-0.4,1.7-0.4,2.2-0.1l7.1,4.1
			c0.6,0.3,0.5,0.9-0.2,1.3l-7,4.1C336.4,256.9,335.4,256.9,334.9,256.6z"/>
		<path class="st9" d="M345.8,262.9l-7.1-4.1c-0.6-0.3-0.5-0.9,0.2-1.3l7-4.1c0.7-0.4,1.7-0.4,2.2-0.1l7.1,4.1
			c0.6,0.3,0.5,0.9-0.2,1.3l-7,4.1C347.4,263.2,346.4,263.3,345.8,262.9z"/>
		<path class="st9" d="M356.8,269.3l-7.1-4.1c-0.6-0.3-0.5-0.9,0.2-1.3l7-4.1c0.7-0.4,1.7-0.4,2.2-0.1l7.1,4.1
			c0.6,0.3,0.5,0.9-0.2,1.3l-7,4.1C358.4,269.6,357.4,269.6,356.8,269.3z"/>
		<path class="st9" d="M252.3,196.6l-7.1-4.1c-0.6-0.3-0.5-0.9,0.2-1.3l7-4.1c0.7-0.4,1.7-0.4,2.2-0.1l7.1,4.1
			c0.6,0.3,0.5,0.9-0.2,1.3l-7,4.1C253.9,196.9,252.9,196.9,252.3,196.6z"/>
		<path class="st9" d="M241.4,190.3l-7.1-4.1c-0.6-0.3-0.5-0.9,0.2-1.3l7-4.1c0.7-0.4,1.7-0.4,2.2-0.1l7.1,4.1
			c0.6,0.3,0.5,0.9-0.2,1.3l-7,4.1C243,190.6,242,190.6,241.4,190.3z"/>
		<path class="st9" d="M230.5,184l-7.1-4.1c-0.6-0.3-0.5-0.9,0.2-1.3l7-4.1c0.7-0.4,1.7-0.4,2.2-0.1l7.1,4.1
			c0.6,0.3,0.5,0.9-0.2,1.3l-7,4.1C232,184.3,231,184.3,230.5,184z"/>
		<path class="st9" d="M219.6,177.7l-7.1-4.1c-0.6-0.3-0.5-0.9,0.2-1.3l7-4.1c0.7-0.4,1.7-0.4,2.2-0.1l7.1,4.1
			c0.6,0.3,0.5,0.9-0.2,1.3l-7,4.1C221.1,178,220.1,178,219.6,177.7z"/>
		<path class="st9" d="M230.8,171.2l-7.1-4.1c-0.6-0.3-0.5-0.9,0.2-1.3l2.3-1.3c0.7-0.4,1.7-0.4,2.2-0.1l7.1,4.1
			c0.6,0.3,0.5,0.9-0.2,1.3l-2.3,1.3C232.3,171.5,231.4,171.5,230.8,171.2z"/>
		<path class="st9" d="M245,179.4l-7.1-4.1c-0.6-0.3-0.5-0.9,0.2-1.3l2.3-1.3c0.7-0.4,1.7-0.4,2.2-0.1l7.1,4.1
			c0.6,0.3,0.5,0.9-0.2,1.3l-2.3,1.3C246.6,179.7,245.6,179.8,245,179.4z"/>
		<path class="st9" d="M255.9,185.7l-7.1-4.1c-0.6-0.3-0.5-0.9,0.2-1.3l2.3-1.3c0.7-0.4,1.7-0.4,2.2-0.1l7.1,4.1
			c0.6,0.3,0.5,0.9-0.2,1.3l-2.3,1.3C257.5,186,256.5,186,255.9,185.7z"/>
		<path class="st9" d="M266.8,192l-7.1-4.1c-0.6-0.3-0.5-0.9,0.2-1.3l2.3-1.3c0.7-0.4,1.7-0.4,2.2-0.1l7.1,4.1
			c0.6,0.3,0.5,0.9-0.2,1.3l-2.3,1.3C268.3,192.3,267.3,192.3,266.8,192z"/>
		<path class="st9" d="M277.6,198.3l-7.1-4.1c-0.6-0.3-0.5-0.9,0.2-1.3l2.3-1.3c0.7-0.4,1.7-0.4,2.2-0.1l7.1,4.1
			c0.6,0.3,0.5,0.9-0.2,1.3l-2.3,1.3C279.2,198.6,278.2,198.6,277.6,198.3z"/>
		<path class="st9" d="M338.3,233.3l-7.1-4.1c-0.6-0.3-0.5-0.9,0.2-1.3l2.3-1.3c0.7-0.4,1.7-0.4,2.2-0.1l7.1,4.1
			c0.6,0.3,0.5,0.9-0.2,1.3l-2.3,1.3C339.9,233.6,338.9,233.6,338.3,233.3z"/>
		<path class="st9" d="M349.2,239.6l-7.1-4.1c-0.6-0.3-0.5-0.9,0.2-1.3l2.3-1.3c0.7-0.4,1.7-0.4,2.2-0.1l7.1,4.1
			c0.6,0.3,0.5,0.9-0.2,1.3l-2.3,1.3C350.8,239.9,349.8,239.9,349.2,239.6z"/>
		<path class="st9" d="M360.1,245.9l-7.1-4.1c-0.6-0.3-0.5-0.9,0.2-1.3l2.3-1.3c0.7-0.4,1.7-0.4,2.2-0.1l7.1,4.1
			c0.6,0.3,0.5,0.9-0.2,1.3l-2.3,1.3C361.6,246.1,360.6,246.2,360.1,245.9z"/>
		<path class="st9" d="M370.9,252.1l-7.1-4.1c-0.6-0.3-0.5-0.9,0.2-1.3l2.3-1.3c0.7-0.4,1.7-0.4,2.2-0.1l7.1,4.1
			c0.6,0.3,0.5,0.9-0.2,1.3l-2.3,1.3C372.5,252.4,371.5,252.5,370.9,252.1z"/>
		<path class="st9" d="M263.3,202.9l-7.1-4.1c-0.6-0.3-0.5-0.9,0.2-1.3l7-4.1c0.7-0.4,1.7-0.4,2.2-0.1l7.1,4.1
			c0.6,0.3,0.5,0.9-0.2,1.3l-7,4.1C264.8,203.2,263.8,203.3,263.3,202.9z"/>
		<path class="st9" d="M274.2,209.3l-7.1-4.1c-0.6-0.3-0.5-0.9,0.2-1.3l7-4.1c0.7-0.4,1.7-0.4,2.2-0.1l7.1,4.1
			c0.6,0.3,0.5,0.9-0.2,1.3l-7,4.1C275.8,209.6,274.8,209.6,274.2,209.3z"/>
		<path class="st9" d="M285.2,215.6l-7.1-4.1c-0.6-0.3-0.5-0.9,0.2-1.3l7-4.1c0.7-0.4,1.7-0.4,2.2-0.1l7.1,4.1
			c0.6,0.3,0.5,0.9-0.2,1.3l-7,4.1C286.8,215.9,285.8,215.9,285.2,215.6z"/>
		<path class="st9" d="M296.2,221.9l-7.1-4.1c-0.6-0.3-0.5-0.9,0.2-1.3l7-4.1c0.7-0.4,1.7-0.4,2.2-0.1l7.1,4.1
			c0.6,0.3,0.5,0.9-0.2,1.3l-7,4.1C297.8,222.2,296.8,222.3,296.2,221.9z"/>
		<path class="st9" d="M307.2,228.3l-7.1-4.1c-0.6-0.3-0.5-0.9,0.2-1.3l7-4.1c0.7-0.4,1.7-0.4,2.2-0.1l7.1,4.1
			c0.6,0.3,0.5,0.9-0.2,1.3l-7,4.1C308.7,228.6,307.7,228.6,307.2,228.3z"/>
		<path class="st9" d="M318.1,234.6l-7.1-4.1c-0.6-0.3-0.5-0.9,0.2-1.3l7-4.1c0.7-0.4,1.7-0.4,2.2-0.1l7.1,4.1
			c0.6,0.3,0.5,0.9-0.2,1.3l-7,4.1C319.7,234.9,318.7,234.9,318.1,234.6z"/>
		<path class="st9" d="M329.1,240.9l-7.1-4.1c-0.6-0.3-0.5-0.9,0.2-1.3l7-4.1c0.7-0.4,1.7-0.4,2.2-0.1l7.1,4.1
			c0.6,0.3,0.5,0.9-0.2,1.3l-7,4.1C330.7,241.2,329.7,241.3,329.1,240.9z"/>
		<path class="st9" d="M340.1,247.3l-7.1-4.1c-0.6-0.3-0.5-0.9,0.2-1.3l7-4.1c0.7-0.4,1.7-0.4,2.2-0.1l7.1,4.1
			c0.6,0.3,0.5,0.9-0.2,1.3l-7,4.1C341.6,247.6,340.6,247.6,340.1,247.3z"/>
		<path class="st9" d="M351,253.6l-7.1-4.1c-0.6-0.3-0.5-0.9,0.2-1.3l7-4.1c0.7-0.4,1.7-0.4,2.2-0.1l7.1,4.1
			c0.6,0.3,0.5,0.9-0.2,1.3l-7,4.1C352.6,253.9,351.6,253.9,351,253.6z"/>
		<path class="st9" d="M200.6,203.7l-20.9-12.1c-0.6-0.3-0.5-0.9,0.2-1.3l7-4.1c0.7-0.4,1.7-0.4,2.2-0.1l20.9,12.1
			c0.6,0.3,0.5,0.9-0.2,1.3l-7,4.1C202.1,204,201.1,204,200.6,203.7z"/>
		<path class="st9" d="M335.3,281.5l-20.9-12.1c-0.6-0.3-0.5-0.9,0.2-1.3l7-4.1c0.7-0.4,1.7-0.4,2.2-0.1l20.9,12.1
			c0.6,0.3,0.5,0.9-0.2,1.3l-7,4.1C336.9,281.8,335.9,281.9,335.3,281.5z"/>
		<path class="st9" d="M291.5,270.2l-7.1-4.1c-0.6-0.3-0.5-0.9,0.2-1.3l8.4-4.8c0.7-0.4,1.7-0.4,2.2-0.1l7.1,4.1
			c0.6,0.3,0.5,0.9-0.2,1.3l-8.4,4.8C293,270.5,292,270.5,291.5,270.2z"/>
		<path class="st9" d="M211.8,224.2l-11.4-6.6c-0.6-0.3-0.5-0.9,0.2-1.3l8.4-4.8c0.7-0.4,1.7-0.4,2.2-0.1l11.4,6.6
			c0.6,0.3,0.5,0.9-0.2,1.3l-8.4,4.8C213.4,224.5,212.4,224.5,211.8,224.2z"/>
		<path class="st9" d="M280.9,264.1l-11.4-6.6c-0.6-0.3-0.5-0.9,0.2-1.3l8.4-4.8c0.7-0.4,1.7-0.4,2.2-0.1l11.4,6.6
			c0.6,0.3,0.5,0.9-0.2,1.3l-8.4,4.8C282.5,264.4,281.5,264.4,280.9,264.1z"/>
		<path class="st9" d="M227.6,233.3l-11.4-6.6c-0.6-0.3-0.5-0.9,0.2-1.3l8.4-4.8c0.7-0.4,1.7-0.4,2.2-0.1l11.4,6.6
			c0.6,0.3,0.5,0.9-0.2,1.3l-8.4,4.8C229.2,233.6,228.2,233.7,227.6,233.3z"/>
		<path class="st9" d="M227.1,220.6l49.4,28.5c0.6,0.4,0.6,0.9,0,1.3l-8.6,4.9c-0.6,0.4-1.6,0.4-2.2,0l-49.4-28.5L227.1,220.6z"/>
		<path class="st9" d="M322.1,281.7l7.9,4.6c0.5,0.3,0.4,0.7-0.1,1.1l-3.4,2c-0.5,0.3-1.4,0.3-1.8,0.1l-7.9-4.6
			c-0.5-0.3-0.4-0.7,0.1-1.1l3.4-2C320.8,281.4,321.6,281.4,322.1,281.7z"/>
		<path class="st9" d="M311.1,275.3l7.9,4.6c0.5,0.3,0.4,0.7-0.1,1.1l-3.4,2c-0.5,0.3-1.4,0.3-1.8,0.1l-7.9-4.6
			c-0.5-0.3-0.4-0.7,0.1-1.1l3.4-2C309.8,275.1,310.6,275,311.1,275.3z"/>
		<path class="st9" d="M300.1,269l7.9,4.6c0.5,0.3,0.4,0.7-0.1,1.1l-3.4,2c-0.5,0.3-1.4,0.3-1.8,0.1l-7.9-4.6
			c-0.5-0.3-0.4-0.7,0.1-1.1l3.4-2C298.8,268.7,299.6,268.7,300.1,269z"/>
		<path class="st9" d="M317.1,271.8l7.9,4.6c0.5,0.3,0.4,0.7-0.1,1.1l-3.4,2c-0.5,0.3-1.4,0.3-1.8,0.1l-7.9-4.6
			c-0.5-0.3-0.4-0.7,0.1-1.1l3.4-2C315.8,271.6,316.6,271.5,317.1,271.8z"/>
	</g>
	<g>
		<polygon class="st10" points="360.4,148.2 301.4,114.1 302.1,110.2 361.2,144.4 		"/>
		<polygon class="st10" points="339.3,154.7 298,130.9 298.8,127 340,150.8 		"/>
		<polygon class="st10" points="335.4,143.1 299.7,122.5 300.5,118.6 336.1,139.2 		"/>
		<polygon class="st10" points="358.8,156.6 340.9,146.3 341.7,142.5 359.5,152.8 		"/>
		<polygon class="st10" points="295.1,80.6 277.2,70.3 278,66.4 295.8,76.7 		"/>
		<polygon class="st10" points="293.1,89.5 275.3,79.2 276,75.4 293.9,85.7 		"/>
		<polygon class="st11" points="380.7,213.3 362.9,203 363.6,199.2 381.5,209.5 		"/>
		<polygon class="st10" points="289.3,107.4 271.4,97.1 272.2,93.2 290,103.5 		"/>
	</g>
	<g>
		<path class="st12" d="M327.8,110.1c-0.6,1.2-2,1.7-3.2,1c-1.2-0.7-1.7-2.3-1.1-3.5c0.6-1.2,2-1.7,3.2-1
			C327.9,107.3,328.4,108.9,327.8,110.1z"/>
		<path class="st12" d="M335.5,114.6c-0.6,1.2-2,1.7-3.2,1s-1.7-2.3-1.1-3.5c0.6-1.2,2-1.7,3.2-1
			C335.5,111.7,336.1,113.3,335.5,114.6z"/>
		<path class="st12" d="M343.2,119c-0.6,1.2-2,1.7-3.2,1c-1.2-0.7-1.7-2.3-1.1-3.5c0.6-1.2,2-1.7,3.2-1
			C343.2,116.2,343.7,117.8,343.2,119z"/>
		<path class="st12" d="M350.9,123.4c-0.6,1.2-2,1.7-3.2,1c-1.2-0.7-1.7-2.3-1.1-3.5c0.6-1.2,2-1.7,3.2-1
			C350.9,120.6,351.4,122.2,350.9,123.4z"/>
	</g>
</g>
<g>
	<g>
		<path class="st13" d="M221,103.4l-38.5-22.2c-0.8-0.4-1.5-0.5-2.2-0.2c0,0,0,0,0,0l-4.6,2.2c0,0,1.7,0.6,2.7,1l-5.6,28
			c-0.5,2.3,0.6,4.9,2.3,5.9l36.8,21.2l-0.7,3.3l4.6-2.2l0,0c0.8-0.4,1.4-1.2,1.7-2.5l5.7-28.6C223.7,107.1,222.7,104.4,221,103.4z"
			/>
		<path class="st1" d="M209,142.5l-38.5-22.2c-1.7-1-2.7-3.6-2.3-5.9l5.7-28.6c0.5-2.3,2.2-3.3,3.9-2.3l38.5,22.2
			c1.7,1,2.7,3.6,2.3,5.9l-5.7,28.6C212.5,142.4,210.8,143.5,209,142.5z"/>
		<path class="st3" d="M217.2,105.3l-38.5-22.2c-0.9-0.5-1.8-0.5-2.5,0c0.5-0.1,1.1,0,1.7,0.3l38.5,22.2c1.7,1,2.7,3.6,2.3,5.9
			l-5.7,28.6c-0.2,1.1-0.7,1.9-1.4,2.3c1.1-0.2,2-1.1,2.3-2.7l5.7-28.6C220,108.9,218.9,106.3,217.2,105.3z"/>
	</g>
	<g>
		<path class="st3" d="M186.9,110.4c-0.3,1.7-1.8,2.3-3.2,1.5c-1.4-0.8-2.3-2.8-2-4.5c0.3-1.7,1.8-2.3,3.2-1.5
			C186.4,106.8,187.3,108.8,186.9,110.4z"/>
		<path class="st3" d="M194.8,115c-0.3,1.7-1.8,2.3-3.2,1.5c-1.4-0.8-2.3-2.8-2-4.5c0.3-1.7,1.8-2.3,3.2-1.5
			C194.2,111.3,195.1,113.3,194.8,115z"/>
		<path class="st3" d="M202.7,119.5c-0.3,1.7-1.8,2.3-3.2,1.5c-1.4-0.8-2.3-2.8-2-4.5c0.3-1.7,1.8-2.3,3.2-1.5
			C202.1,115.8,203,117.9,202.7,119.5z"/>
	</g>
</g>
<g>
	<g>
		<path class="st1" d="M203.7,67.5l-38.5-22.2c-0.8-0.4-1.5-0.5-2.2-0.2c0,0,0,0,0,0l-4.6,2.2c0,0,1.7,0.6,2.7,1l-5.6,28
			c-0.5,2.3,0.6,4.9,2.3,5.9l36.8,21.2l-0.7,3.3l4.6-2.2l0,0c0.8-0.4,1.4-1.2,1.7-2.5l5.7-28.6C206.5,71.1,205.5,68.5,203.7,67.5z"
			/>
		<path class="st14" d="M191.8,106.5l-38.5-22.2c-1.7-1-2.7-3.6-2.3-5.9l5.7-28.6c0.5-2.3,2.2-3.3,3.9-2.3l38.5,22.2
			c1.7,1,2.7,3.6,2.3,5.9l-5.7,28.6C195.2,106.5,193.5,107.5,191.8,106.5z"/>
		<path class="st3" d="M199.9,69.3l-38.5-22.2c-0.9-0.5-1.8-0.5-2.5,0c0.5-0.1,1.1,0,1.7,0.3l38.5,22.2c1.7,1,2.7,3.6,2.3,5.9
			l-5.7,28.6c-0.2,1.1-0.7,1.9-1.4,2.3c1.1-0.2,2-1.1,2.3-2.7l5.7-28.6C202.7,73,201.7,70.3,199.9,69.3z"/>
	</g>
	<g>
		<path class="st3" d="M169.7,74.5c-0.3,1.7-1.8,2.3-3.2,1.5c-1.4-0.8-2.3-2.8-2-4.5c0.3-1.7,1.8-2.3,3.2-1.5
			C169.1,70.8,170,72.8,169.7,74.5z"/>
		<path class="st3" d="M177.5,79c-0.3,1.7-1.8,2.3-3.2,1.5c-1.4-0.8-2.3-2.8-2-4.5c0.3-1.7,1.8-2.3,3.2-1.5
			C177,75.3,177.9,77.3,177.5,79z"/>
		<path class="st3" d="M185.4,83.5c-0.3,1.7-1.8,2.3-3.2,1.5c-1.4-0.8-2.3-2.8-2-4.5c0.3-1.7,1.8-2.3,3.2-1.5
			C184.8,79.9,185.7,81.9,185.4,83.5z"/>
	</g>
</g>
<g>
	<g>
		<g>
			<path class="st15" d="M153.8,294.3c0,0-3.7-1.9-6.1,0.9c-2.3,2.8-5.6,9.5-5.7,14c-0.1,4.5,3.6,4.2,5.7,3.1
				c2.2-1.1,8.5-10.3,8.9-12.1c0.4-1.8-0.5-4.2-1.1-4.7C155,295,153.8,294.3,153.8,294.3z"/>
			<path class="st16" d="M154.6,293.4l0.2,3.9c0,0.8-0.4,1.6-1.1,2c-0.7,0.4-1.6,0.7-2.9,0.4c-2.8-0.5-3.1-1.3-3.3-5.1
				C147.4,290.7,154.6,293.4,154.6,293.4z"/>
			<g>
				<path class="st15" d="M140.1,286.8c0,0-3.7-1.9-6.1,0.9s-5.6,9.5-5.7,14c-0.1,4.5,3.6,4.2,5.7,3.1c2.2-1.1,8.5-10.3,8.9-12.1
					s-0.5-4.2-1.1-4.7C141.3,287.6,140.1,286.8,140.1,286.8z"/>
				<path class="st16" d="M140.9,285.9l0.2,3.9c0,0.8-0.4,1.6-1.1,2c-0.7,0.4-1.6,0.7-2.9,0.4c-2.8-0.5-3.1-1.3-3.3-5.1
					C133.6,283.3,140.9,285.9,140.9,285.9z"/>
				<path d="M174.4,214.6c-1.1-18.1-19.6,2.7-19.6,2.7l-12.6,12.4l-11.4,12.5c-2.2,2.4-3.3,5.7-2.8,9l4.6,35c0.2,1.7,1.7,3,3.5,3
					c0.5,0,1.1,0,1.7-0.1c4.1-0.6,3.8-4.5,3.8-4.5l-0.8-32.8l23.9-14.4C164.6,237.3,175.5,232.7,174.4,214.6z"/>
			</g>
			<path d="M188.1,221.5c-1.1-18.1-19.6,2.7-19.6,2.7l-12.6,12.4L144.6,249c-2.2,2.4-3.3,5.7-2.8,9l4.6,35c0.2,1.7,1.7,3,3.5,3
				c0.5,0,1.1,0,1.7-0.1c4.1-0.6,3.8-4.5,3.8-4.5l-0.8-31.8l23.8-15.3C178.3,244.2,189.2,239.5,188.1,221.5z"/>
			<path class="st1" d="M177.2,163.5c14,5.8,13.7,14.1,13.7,14.1s-2.7,30.3-1.8,50.5c0.4,8.5-45,9.1-38.2-13.5
				c8-26.6,5-48.2,8.7-51.4C163.4,160,173.6,162,177.2,163.5z"/>
			<path class="st17" d="M181.7,170.9c-0.7,2.8-4.5,4.3-8.3,3.3c-3.9-1-6.4-4.1-5.7-6.9c0.7-2.8,4.5-4.3,8.3-3.3
				C179.9,164.9,182.4,168,181.7,170.9z"/>
			<path class="st3" d="M175.8,175.2c-0.8,0-1.7-0.1-2.6-0.3c-2-0.5-3.7-1.6-4.9-3c-1.2-1.5-1.6-3.2-1.2-4.8
				c0.4-1.6,1.6-2.8,3.4-3.6c1.7-0.7,3.7-0.8,5.7-0.3c2,0.5,3.7,1.6,4.9,3c1.2,1.5,1.6,3.2,1.2,4.8c-0.4,1.6-1.6,2.8-3.4,3.6
				C178,175,176.9,175.2,175.8,175.2z M173.6,164.3c-1,0-1.9,0.2-2.7,0.5c-1.4,0.5-2.3,1.5-2.6,2.7c-0.3,1.2,0,2.4,1,3.6
				c1,1.2,2.5,2.1,4.2,2.6c1.7,0.4,3.5,0.4,4.9-0.2c1.4-0.5,2.3-1.5,2.6-2.7l0,0c0.3-1.2,0-2.4-1-3.6c-1-1.2-2.5-2.1-4.2-2.6
				C175.1,164.4,174.4,164.3,173.6,164.3z"/>
			<path class="st17" d="M171.6,162.9c0,0,0.1,0.6-0.1,5c-0.1,1.4,4.8,2.7,6.1,1.4c1.3-1.3,0.8-2.6,1.1-7.3
				C178.9,157.3,171.6,162.9,171.6,162.9z"/>
			<path class="st18" d="M178.6,162c0,0-1.2,4.4-7.1,6.1l0.1-4L178.6,162z"/>
			<path class="st17" d="M182.3,150.8c1.5,5.8-2,11.6-7.7,13.1c-5.8,1.5-11.6-2-13.1-7.7c-1.5-5.8,2-11.6,7.7-13.1
				C175,141.6,180.8,145.1,182.3,150.8z"/>
			<path class="st18" d="M174.4,153.9c0,0-5.9,2.5-10,2.6c-4.1,0-3.2-3.4-3.2-3.4l12.2-1.8L174.4,153.9z"/>
			<path class="st19" d="M163.1,154.6c0,0,5.2-2.2,9.7-1.3c1.1,0.2,2.1,0.8,2.7,1.6c0.2,0.3,0.5,0.5,0.8,0.6
				c0.8,0.2,2.1-3.2,3.7-3.2c1.6-0.1,2.6,1,1.3,3.1c-1.3,2-0.8,4.3-0.3,4.7c0.6,0.3,7.9-4.8,2.4-15.7c-5.5-10.9-20.6-4.7-22.7-2.5
				c0,0-2.3,2-4.2,0.2C156.6,142.1,154.5,157.8,163.1,154.6z"/>
			<path class="st17" d="M183.1,199.7v8.2c0,0.9-0.4,1.8-1.1,2.5l-16.8,15.3l1.9,2.9l23.2-15.2c1-0.8,1.7-1.9,1.8-3.2l1.6-15.2
				L183.1,199.7z"/>
			<path class="st1" d="M189.7,173.5c0,0,5.1,7.7,7,27.9c0,0-8.7,2.8-13.7,1.2C178.1,201,189.7,173.5,189.7,173.5z"/>
			<path class="st20" d="M182.1,183.2c0,0-2,10.7-2.1,15.7c0,1.4,0.8,2.6,2.1,3.1l0,0V183.2z"/>
		</g>
		<g>
			<path class="st5" d="M177.8,236.4l-3.7-0.5L150,222c-0.8-0.4-2.1-0.4-3,0.1l-17,9.8l-2.2-0.3v2.2l0,0c0,0.3,0.2,0.6,0.5,0.8
				l27.2,15.7c0.8,0.4,2.1,0.4,3-0.1l18.5-10.7c0.5-0.3,0.7-0.7,0.7-1l0,0V236.4z"/>
			<path class="st21" d="M159.7,227.6l-1.7-1h-18.7L130,232l-2.2-0.3v2.2l0,0c0,0.3,0.2,0.6,0.5,0.8l27.2,15.7
				c0.4,0.2,1,0.3,1.5,0.3L159.7,227.6z"/>
			<path class="st22" d="M128.8,231.8l-1-0.1v2.2l0,0c0,0.3,0.2,0.6,0.5,0.8l0.5,0.3V231.8z"/>
			<path class="st22" d="M155.8,250.5c0.7,0.3,1.8,0.2,2.6-0.2v-3.8h-2.6V250.5z"/>
			<path class="st3" d="M155.5,248.2l-27.2-15.7c-0.8-0.4-0.7-1.2,0.2-1.7L147,220c0.9-0.5,2.2-0.6,3-0.1l27.2,15.7
				c0.8,0.4,0.7,1.2-0.2,1.7L158.5,248C157.6,248.5,156.3,248.6,155.5,248.2z"/>
			<path class="st14" d="M155,245.8l-22.6-13.1c-0.6-0.4-0.6-1,0.2-1.4l9.9-5.6c0.7-0.4,1.9-0.5,2.5-0.1l22.6,13.1
				c0.6,0.4,0.6,1-0.2,1.4l-9.9,5.6C156.8,246.1,155.7,246.1,155,245.8z"/>
		</g>
		<path class="st17" d="M148.1,219.5l-0.3,1.9c-0.2,1.6-0.2,3.2,0.1,4.8l0.3,1.7c0.2,0.9,0.9,1.7,1.9,1.8l0,0
			c0.7,0.1,1.4-0.4,1.5-1.1l0.4-4c0,0,1,1.3,1.5,1.3c0.5,0-0.6-4-1.7-6.3C150.8,217.3,148.1,219.5,148.1,219.5z"/>
		<path class="st17" d="M157.3,189.7l-2.9,5.8c-0.7,1.4-1.1,2.9-1.2,4.4l-1.3,19.8l-3.8-0.1l-1.7-22.2c-0.1-0.7,0-1.4,0.1-2.1
			l2-11.3L157.3,189.7z"/>
		<g>
			<path class="st23" d="M154.6,249.7l-2.3-3l-24-13.9c-0.8-0.4-1.4-1.6-1.4-2.7l0-19.6l-1.4-1.8l1.3-0.8l0,0
				c0.2-0.2,0.6-0.2,0.9,0.1l27.2,15.7c0.8,0.4,1.4,1.6,1.4,2.7l0,21.4c0,0.6-0.2,1-0.5,1.1l0,0L154.6,249.7z"/>
			<path class="st24" d="M138,238.4l-1.7-1l-9.4-16.2l0-10.7l-1.4-1.8l1.3-0.8l0,0c0.2-0.2,0.6-0.2,0.9,0.1l27.2,15.7
				c0.4,0.2,0.8,0.7,1,1.2L138,238.4z"/>
			<path class="st22" d="M126.2,209.5l-0.6-0.8l1.3-0.8l0,0c0.2-0.2,0.6-0.2,0.9,0.1l0.5,0.3L126.2,209.5z"/>
			<path class="st25" d="M155.2,223.9c0.6,0.5,1.1,1.4,1.1,2.3l-2.7,1.5l-1.3-2.2L155.2,223.9z"/>
			<path class="st1" d="M153.7,224.5l-27.2-15.7c-0.8-0.4-1.4,0-1.4,1.1l0,21.4c0,1,0.6,2.2,1.4,2.7l27.2,15.7
				c0.8,0.4,1.4,0,1.4-1.1l0-21.4C155.1,226.1,154.5,224.9,153.7,224.5z"/>
		</g>
		<path class="st17" d="M167.1,228.6l-0.4,0.9c-0.5,1-1.3,1.9-2.3,2.5l-2.7,1.7c-0.8,0.5-1.9,0.6-2.8,0.1c0,0-0.1,0-0.1-0.1
			c-0.9-0.5-0.9-1.8-0.2-2.5l2.8-2.9c0,0-1.6,1.2-2,0.7c-0.3-0.4,1.5-2.1,3-2.2c1.4-0.1,2.8-1.2,2.8-1.2L167.1,228.6z"/>
		<path class="st1" d="M159.9,163.2c0,0-10.3,11.3-14.5,21.6c0,0,3.5,6.4,12.2,8.9C166.2,196.2,159.9,163.2,159.9,163.2z"/>
		<path class="st20" d="M155.6,193l1.7-16.2l-4,15.2C154.1,192.3,154.8,192.7,155.6,193z"/>
		<path class="st3" d="M167.6,160.9l-2.8-0.8c0,0,1.3,2.1,3.3,2.6c1.9,0.5,2.2-1.1,2.2-1.1L167.6,160.9z"/>
	</g>
	<path class="st3" d="M182.5,156.5c0,0.9-0.7,1.5-1.5,1.5c-0.9,0-1.5-0.7-1.5-1.5c0-0.9,0.7-1.5,1.5-1.5
		C181.8,154.9,182.5,155.6,182.5,156.5z"/>
</g>
<path class="st3" d="M224.1,284.5l-46.3-26.8c-1.3-0.8-1.2-2.1,0.4-3l28-16.1c1.6-0.9,3.9-1,5.3-0.2l46.3,26.8
	c1.3,0.8,1.2,2.1-0.4,3l-28,16.1C227.8,285.2,225.5,285.3,224.1,284.5z"/>
<g>
	<g>
		
			<ellipse transform="matrix(0.9939 -0.1101 0.1101 0.9939 -34.4689 9.5996)" class="st0" cx="69.7" cy="316.9" rx="20.4" ry="11.8"/>
		<path class="st1" d="M91.6,304.3l-0.7-6.5l-1.2,0.1c-1.3-1.8-3.3-3.3-6.1-4.6c-9.6-4.2-24.2-2.6-32.6,3.6c-2.4,1.8-4.1,3.8-5,5.8
			l-1.2,0.1l0.7,6.4l0,0c0.4,3.4,3,6.6,7.8,8.7c9.6,4.2,24.2,2.6,32.6-3.6C90.1,311.4,92,307.7,91.6,304.3z"/>
		
			<ellipse transform="matrix(0.9939 -0.1101 0.1101 0.9939 -32.6657 9.2984)" class="st1" cx="67.8" cy="300.4" rx="23.2" ry="13.4"/>
		<path class="st3" d="M85.2,308c-8.4,6.2-23,7.8-32.6,3.6c-4.6-2-7.2-5-7.7-8.2c0.2,3.6,2.8,6.9,7.8,9.1c9.6,4.2,24.2,2.6,32.6-3.6
			c4.4-3.2,6.2-7.1,5.6-10.6C91.1,301.5,89.2,305,85.2,308z"/>
	</g>
	<g>
		<path class="st3" d="M57.2,306c-0.4-0.2-0.7-0.5-0.7-0.8l-0.9-8.7c-0.1-0.7,0.8-1.3,1.9-1.4c1.1-0.1,2.1,0.3,2.2,1l0.8,7.2
			l20.6-4.9c1.1-0.3,2.3,0,2.6,0.7c0.3,0.6-0.3,1.3-1.4,1.6l-23.1,5.5c-0.6,0.1-1.3,0.1-1.8,0C57.3,306.1,57.3,306,57.2,306z"/>
	</g>
</g>
<g>
	<g>
		<polygon class="st0" points="172.3,364.2 156.9,355.3 172.3,346.5 187.6,355.3 		"/>
		<polygon class="st26" points="187.6,344.1 172.3,352.9 172.3,335.2 187.6,326.4 		"/>
		<polygon class="st14" points="172.3,335.2 156.9,326.4 172.3,317.5 187.6,326.4 		"/>
		<polygon class="st1" points="172.3,352.9 156.9,344.1 156.9,326.4 172.3,335.2 		"/>
	</g>
	<polygon class="st3" points="166.7,343.4 162.5,340.9 162.5,335.9 166.7,338.4 	"/>
</g>
<path class="st0" d="M274.8,307.2L208,268.6c-1.5-0.9-1.5-3,0-3.9l63.6-36.7l71.1,41.1c1.5,0.9,1.5,3,0,3.9l-59.3,34.2
	C280.7,308.7,277.5,308.7,274.8,307.2z"/>
<g>
	<g>
		<path class="st27" d="M272.9,201.2c0-4.2-3-6-6.7-3.9l-62.5,36c-1,0.6-1.8,2-1.8,3.2c0,1.2,0.8,1.6,1.8,1.1l62.5-36
			c1.7-1,3-0.2,3,1.7l0,7c1.2-0.1,2.4-0.1,3.7-0.1L272.9,201.2z"/>
		<path class="st28" d="M203.7,250.2l62.5-22.8c3.7-2.1,6.7-7.3,6.7-11.5l0-5.6c-1.2,0-2.4,0-3.7,0.1l0,7.6c0,1.9-1.4,4.2-3,5.2
			l-62.5,22.8c-1,0.6-1.8,2-1.8,3.2C201.9,250.3,202.7,250.8,203.7,250.2z"/>
	</g>
	<polygon class="st29" points="202.3,250.3 278.4,294.3 342.8,255.9 347.9,248.2 347.4,250.9 346,243.9 226.5,248.4 205.4,247.1 	
		"/>
	<polygon class="st30" points="204.9,237 204.8,246.3 278.3,288.9 280.3,279.9 	"/>
	<polygon class="st1" points="346.9,240.9 271,196.9 202.5,236.7 202.4,237.7 278.5,281.7 	"/>
	<g>
		<path class="st3" d="M322.7,263.4l17.9-10.6c1.5-1.1,2.7-3.2,2.7-5l0-1.4c0-1.1-0.5-1.9-1.2-2.1l-35.1,19.6l-28.6,15.5l0,9.5
			L322.7,263.4z"/>
	</g>
	<path class="st29" d="M280.9,280.3l-75.5-43.7l-1.6-0.9l-1.5-0.8c-0.3,0.5-0.5,1.2-0.5,1.7c0,0.6,0.2,1,0.5,1.2l0,0l0,0l0,0l76,44
		L280.9,280.3z"/>
	<polygon class="st3" points="277.4,293.7 278.4,294.3 278.6,294 278,293.5 	"/>
	<polygon class="st3" points="277.5,281.1 278.4,281.7 278.2,281.2 	"/>
	<g>
		<path class="st31" d="M279.8,277.4l62.5-36c3.7-2.1,6.7-0.4,6.7,3.9l0,1.4c0,4.2-3,9.4-6.7,11.5l-62.5,36c-1,0.6-1.8,0.1-1.8-1.1
			c0-1.2,0.8-2.6,1.8-3.2l62.5-36c1.7-1,3-3.3,3-5.2l0-1.4c0-1.9-1.3-2.7-3-1.7l-62.5,36c-1,0.6-1.8,0.1-1.8-1.1
			C277.9,279.4,278.8,278,279.8,277.4z"/>
	</g>
	<g>
		<path class="st3" d="M277.9,293.1c0-1.2,0.8-2.6,1.8-3.2l62.5-36c1.7-1,3-3.3,3-5.2l0-1.4c0-1.3-0.6-2-1.4-2.1
			c0.3,0.4,0.4,0.9,0.4,1.5l0,1.4c0,1.9-1.4,4.2-3,5.2l-62.5,36c-1,0.6-1.8,2-1.8,3.2c0,0.9,0.5,1.4,1.1,1.3
			C278,293.6,277.9,293.4,277.9,293.1z"/>
		<path class="st3" d="M277.9,280.5c0-1.2,0.8-2.6,1.8-3.2l62.5-36c1.6-0.9,3-1.1,4.2-0.7c-1.2-1-3.1-1.1-5.2,0.1l-62.5,36
			c-1,0.6-1.8,2-1.8,3.2c0,0.9,0.5,1.4,1.1,1.3C278,281.1,277.9,280.8,277.9,280.5z"/>
	</g>
	<polygon class="st3" points="249,241.7 283.5,221.9 313.4,239.2 278.9,259 	"/>
</g>
<g class="st32">
	<g class="st33">
		<g>
			<g>
				<path class="st0" d="M373,388.1l-46.6-26.9c-1.7-1-1.5-2.7,0.5-3.8l49.4-28.6c2-1.1,5-1.3,6.7-0.3l46.6,26.9
					c1.7,1,1.5,2.7-0.5,3.8l-49.4,28.6C377.7,389,374.7,389.1,373,388.1z"/>
				<g>
					
						<linearGradient id="SVGID_1_" gradientUnits="userSpaceOnUse" x1="137.7892" y1="1348.6256" x2="137.7892" y2="1237.1926" gradientTransform="matrix(0.866 0.5 0 1.1547 286.4127 -1303.0626)">
						<stop  offset="0" style="stop-color:#2D0979"/>
						<stop  offset="1" style="stop-color:#5B04F7"/>
					</linearGradient>
					<path class="st34" d="M430.7,337.5l-49.9-28.8c-1.9-1.1-3.5-4.1-3.5-6.7V182.7c0-2.6,1.6-3.8,3.5-2.7l49.9,28.8
						c1.9,1.1,3.5,4.1,3.5,6.7v119.3C434.2,337.4,432.6,338.6,430.7,337.5z"/>
					<path class="st21" d="M430.7,208.8L380.8,180c-0.9-0.5-1.7-0.5-2.3-0.2l0,0l-56.9,32.8l2.7,9.9l51.9,147.8l56.7-32.7
						c0,0,0,0,0,0l0.1-0.1l0,0c0.7-0.4,1.2-1.4,1.2-2.8V215.5C434.2,212.9,432.6,209.9,430.7,208.8z"/>
					<path class="st16" d="M430.7,208.8L380.8,180c-0.9-0.5-1.7-0.5-2.3-0.2l0,0l-56.9,32.8l2.7,9.9l14.3,40.6l2.7,1.6l91.9-53.1
						C432.6,210.5,431.7,209.4,430.7,208.8z"/>
					<path class="st22" d="M373.8,370.3l-49.9-28.8c-1.9-1.1-3.5-4.1-3.5-6.7V215.5c0-2.6,1.6-3.8,3.5-2.7l49.9,28.8
						c1.9,1.1,3.5,4.1,3.5,6.7v119.3C377.3,370.2,375.7,371.4,373.8,370.3z"/>
					
						<linearGradient id="SVGID_2_" gradientUnits="userSpaceOnUse" x1="41.1828" y1="1356.313" x2="97.1788" y2="1343.6243" gradientTransform="matrix(0.866 0.5 0 1.1547 286.4127 -1303.0626)">
						<stop  offset="0" style="stop-color:#3919BB"/>
						<stop  offset="1" style="stop-color:#6507FA"/>
					</linearGradient>
					<path class="st35" d="M370.7,363.1l-43.6-25.2c-1.7-1-3.1-3.6-3.1-5.9V221.3c0-2.3,1.4-3.3,3.1-2.3l43.6,25.2
						c1.7,1,3.1,3.6,3.1,5.9v110.8C373.7,363.1,372.3,364.1,370.7,363.1z"/>
					
						<linearGradient id="SVGID_3_" gradientUnits="userSpaceOnUse" x1="41.1828" y1="1356.313" x2="97.1788" y2="1343.6243" gradientTransform="matrix(0.866 0.5 0 1.1547 286.4127 -1303.0626)">
						<stop  offset="0" style="stop-color:#3919BB"/>
						<stop  offset="1" style="stop-color:#6507FA"/>
					</linearGradient>
					<path class="st36" d="M370.7,363.1l-43.6-25.2c-1.7-1-3.1-3.6-3.1-5.9V221.3c0-2.3,1.4-3.3,3.1-2.3l43.6,25.2
						c1.7,1,3.1,3.6,3.1,5.9v110.8C373.7,363.1,372.3,364.1,370.7,363.1z"/>
					<path class="st37" d="M370.7,363.1l-43.6-25.2c-1.7-1-3.1-3.6-3.1-5.9V221.3c0-2.3,1.4-3.3,3.1-2.3l43.6,25.2
						c1.7,1,3.1,3.6,3.1,5.9v110.8C373.7,363.1,372.3,364.1,370.7,363.1z"/>
					<path class="st21" d="M372.1,362.3l-43.6-25.2c-1.7-1-3.1-3.6-3.1-5.9V220.4c0-0.8,0.2-1.4,0.4-1.8c-1.1,0-1.9,1-1.9,2.7v110.8
						c0,2.3,1.4,4.9,3.1,5.9l43.6,25.2c1.1,0.6,2.1,0.4,2.6-0.5C372.9,362.6,372.5,362.5,372.1,362.3z"/>
				</g>
			</g>
		</g>
		<g>
			<g>
				<path class="st37" d="M370.7,312.2l-16.2-9.4l-25.8,14.9l45.1,26v-25.7C373.7,315.8,372.3,313.2,370.7,312.2z"/>
				<path class="st37" d="M370.7,289.5l-16.2-9.4l-25.8,14.9l45.1,26v-25.7C373.7,293.1,372.3,290.5,370.7,289.5z"/>
				<path class="st37" d="M370.7,266.8l-16.2-9.4l-25.8,14.9l45.1,26v-25.7C373.7,270.4,372.3,267.8,370.7,266.8z"/>
				<path class="st37" d="M370.7,244.1l-16.2-9.4l-25.8,14.9l45.1,26V250C373.7,247.7,372.3,245.1,370.7,244.1z"/>
				<path class="st37" d="M370.7,244.1l-35.9-20.7l-6.2,3.6l45.1,26v-3C373.7,247.7,372.3,245.1,370.7,244.1z"/>
			</g>
			<polygon class="st22" points="373.7,253 328.6,227 328.6,241.3 373.7,267.4 			"/>
			<polygon class="st22" points="373.7,275.7 328.6,249.7 328.6,264 373.7,290.1 			"/>
			<polygon class="st22" points="373.7,298.4 328.6,272.4 328.6,286.7 373.7,312.8 			"/>
			<polygon class="st22" points="373.7,321.1 328.6,295.1 328.6,309.4 373.7,335.5 			"/>
			<polygon class="st22" points="373.7,343.8 328.6,317.8 328.6,332.2 373.7,358.2 			"/>
		</g>
		<g>
			<path class="st37" d="M369.7,262.3l-34-19.6c-1-0.6-1.7-2-1.7-3.3v-3.8c0-1.3,0.8-1.9,1.7-1.3l34,19.6c1,0.6,1.7,2,1.7,3.3v3.8
				C371.5,262.2,370.7,262.8,369.7,262.3z"/>
			<path class="st38" d="M337.5,241.9c-1-0.6-1.7-2-1.7-3.3v-3.8c0-0.2,0-0.4,0.1-0.6l0,0c-1-0.6-1.7,0-1.7,1.3v3.8
				c0,1.3,0.8,2.8,1.7,3.3l34,19.6c0.8,0.5,1.5,0.1,1.7-0.8L337.5,241.9z"/>
			<path class="st3" d="M359.1,251.7l-20.4-11.8c-0.3-0.2-0.6-0.7-0.6-1.2l0,0c0-0.4,0.3-0.7,0.6-0.5l20.4,11.8
				c0.3,0.2,0.6,0.7,0.6,1.2l0,0C359.7,251.7,359.4,251.9,359.1,251.7z"/>
		</g>
		<g>
			<path class="st37" d="M369.7,284.8l-34-19.6c-1-0.6-1.7-2-1.7-3.3V258c0-1.3,0.8-1.9,1.7-1.3l34,19.6c1,0.6,1.7,2,1.7,3.3v3.8
				C371.5,284.8,370.7,285.4,369.7,284.8z"/>
			<path class="st38" d="M337.5,264.5c-1-0.6-1.7-2-1.7-3.3v-3.8c0-0.2,0-0.4,0.1-0.6l0,0c-1-0.6-1.7,0-1.7,1.3v3.8
				c0,1.3,0.8,2.8,1.7,3.3l34,19.6c0.8,0.5,1.5,0.1,1.7-0.8L337.5,264.5z"/>
			<path class="st3" d="M359.1,274.3l-20.4-11.8c-0.3-0.2-0.6-0.7-0.6-1.2v0c0-0.4,0.3-0.7,0.6-0.5l20.4,11.8
				c0.3,0.2,0.6,0.7,0.6,1.2l0,0C359.7,274.3,359.4,274.5,359.1,274.3z"/>
		</g>
		<g>
			<path class="st37" d="M369.7,307.6l-34-19.6c-1-0.6-1.7-2-1.7-3.3v-3.8c0-1.3,0.8-1.9,1.7-1.3l34,19.6c1,0.6,1.7,2,1.7,3.3v3.8
				C371.5,307.6,370.7,308.2,369.7,307.6z"/>
			<path class="st38" d="M337.5,287.2c-1-0.6-1.7-2-1.7-3.3v-3.8c0-0.2,0-0.4,0.1-0.6l0,0c-1-0.6-1.7,0-1.7,1.3v3.8
				c0,1.3,0.8,2.8,1.7,3.3l34,19.6c0.8,0.5,1.5,0.1,1.7-0.8L337.5,287.2z"/>
			<path class="st16" d="M359.1,297.1l-20.4-11.8c-0.3-0.2-0.6-0.7-0.6-1.2l0,0c0-0.4,0.3-0.7,0.6-0.5l20.4,11.8
				c0.3,0.2,0.6,0.7,0.6,1.2l0,0C359.7,297.1,359.4,297.3,359.1,297.1z"/>
		</g>
		<g>
			<path class="st37" d="M369.7,330.6l-34-19.6c-1-0.6-1.7-2-1.7-3.3v-3.8c0-1.3,0.8-1.9,1.7-1.3l34,19.6c1,0.6,1.7,2,1.7,3.3v3.8
				C371.5,330.6,370.7,331.1,369.7,330.6z"/>
			<path class="st38" d="M337.5,310.2c-1-0.6-1.7-2-1.7-3.3v-3.8c0-0.2,0-0.4,0.1-0.6l0,0c-1-0.6-1.7,0-1.7,1.3v3.8
				c0,1.3,0.8,2.8,1.7,3.3l34,19.6c0.8,0.5,1.5,0.1,1.7-0.8L337.5,310.2z"/>
			<path class="st39" d="M359.1,320.1l-20.4-11.8c-0.3-0.2-0.6-0.7-0.6-1.2l0,0c0-0.4,0.3-0.7,0.6-0.5l20.4,11.8
				c0.3,0.2,0.6,0.7,0.6,1.2l0,0C359.7,320,359.4,320.2,359.1,320.1z"/>
		</g>
		<g>
			<path class="st37" d="M369.7,353.1l-34-19.6c-1-0.6-1.7-2-1.7-3.3v-3.8c0-1.3,0.8-1.9,1.7-1.3l34,19.6c1,0.6,1.7,2,1.7,3.3v3.8
				C371.5,353.1,370.7,353.7,369.7,353.1z"/>
			<path class="st38" d="M337.5,332.8c-1-0.6-1.7-2-1.7-3.3v-3.8c0-0.2,0-0.4,0.1-0.6l0,0c-1-0.6-1.7,0-1.7,1.3v3.8
				c0,1.3,0.8,2.8,1.7,3.3l34,19.6c0.8,0.5,1.5,0.1,1.7-0.8L337.5,332.8z"/>
			<path class="st16" d="M359.1,342.6l-20.4-11.8c-0.3-0.2-0.6-0.7-0.6-1.2l0,0c0-0.4,0.3-0.7,0.6-0.5l20.4,11.8
				c0.3,0.2,0.6,0.7,0.6,1.2l0,0C359.7,342.6,359.4,342.8,359.1,342.6z"/>
		</g>
		<polygon class="st0" points="328.6,227 332.2,229 332.2,243.4 328.6,241.3 		"/>
		<polygon class="st0" points="328.6,249.7 332.2,251.7 332.2,266.1 328.6,264 		"/>
		<polygon class="st0" points="328.6,272.4 332.2,274.4 332.2,288.8 328.6,286.7 		"/>
		<polygon class="st0" points="328.6,295.1 332.2,297.1 332.2,311.5 328.6,309.4 		"/>
		<polygon class="st0" points="328.6,317.8 332.2,319.9 332.2,334.2 328.6,332.2 		"/>
	</g>
	<path class="st40" d="M363.1,253.1c0,0.5-0.3,0.6-0.7,0.4c-0.4-0.2-0.7-0.8-0.7-1.2s0.3-0.6,0.7-0.4
		C362.8,252.1,363.1,252.7,363.1,253.1z"/>
	<path class="st41" d="M366.2,254.9c0,0.5-0.3,0.6-0.7,0.4c-0.4-0.2-0.7-0.8-0.7-1.2c0-0.5,0.3-0.6,0.7-0.4
		C365.8,253.9,366.2,254.4,366.2,254.9z"/>
	<path class="st40" d="M369.2,256.7c0,0.5-0.3,0.6-0.7,0.4c-0.4-0.2-0.7-0.8-0.7-1.2c0-0.5,0.3-0.6,0.7-0.4
		C368.9,255.6,369.2,256.2,369.2,256.7z"/>
	<path class="st41" d="M363.1,275.8c0,0.5-0.3,0.6-0.7,0.4c-0.4-0.2-0.7-0.8-0.7-1.2c0-0.5,0.3-0.6,0.7-0.4
		C362.8,274.8,363.1,275.4,363.1,275.8z"/>
	<path class="st40" d="M366.2,277.6c0,0.5-0.3,0.6-0.7,0.4c-0.4-0.2-0.7-0.8-0.7-1.2c0-0.5,0.3-0.6,0.7-0.4
		C365.8,276.6,366.2,277.1,366.2,277.6z"/>
	<path class="st42" d="M369.2,279.4c0,0.5-0.3,0.6-0.7,0.4c-0.4-0.2-0.7-0.8-0.7-1.2c0-0.5,0.3-0.6,0.7-0.4
		C368.9,278.3,369.2,278.9,369.2,279.4z"/>
	<path class="st42" d="M363.1,298.7c0,0.5-0.3,0.6-0.7,0.4c-0.4-0.2-0.7-0.8-0.7-1.2c0-0.5,0.3-0.6,0.7-0.4
		C362.8,297.7,363.1,298.2,363.1,298.7z"/>
	<path class="st41" d="M366.2,300.5c0,0.5-0.3,0.6-0.7,0.4c-0.4-0.2-0.7-0.8-0.7-1.2c0-0.5,0.3-0.6,0.7-0.4
		C365.8,299.4,366.2,300,366.2,300.5z"/>
	<path class="st42" d="M369.2,302.2c0,0.5-0.3,0.6-0.7,0.4c-0.4-0.2-0.7-0.8-0.7-1.2c0-0.5,0.3-0.6,0.7-0.4
		C368.9,301.2,369.2,301.8,369.2,302.2z"/>
	<path class="st42" d="M363.1,321.2c0,0.5-0.3,0.6-0.7,0.4c-0.4-0.2-0.7-0.8-0.7-1.2c0-0.5,0.3-0.6,0.7-0.4
		C362.8,320.2,363.1,320.8,363.1,321.2z"/>
	<path class="st40" d="M366.2,323c0,0.5-0.3,0.6-0.7,0.4c-0.4-0.2-0.7-0.8-0.7-1.2c0-0.5,0.3-0.6,0.7-0.4
		C365.8,322,366.2,322.5,366.2,323z"/>
	<path class="st40" d="M369.2,324.8c0,0.5-0.3,0.6-0.7,0.4c-0.4-0.2-0.7-0.8-0.7-1.2s0.3-0.6,0.7-0.4
		C368.9,323.7,369.2,324.3,369.2,324.8z"/>
	<path class="st42" d="M363.1,344.1c0,0.5-0.3,0.6-0.7,0.4c-0.4-0.2-0.7-0.8-0.7-1.2c0-0.5,0.3-0.6,0.7-0.4
		C362.8,343.1,363.1,343.6,363.1,344.1z"/>
	<path class="st41" d="M366.2,345.8c0,0.5-0.3,0.6-0.7,0.4c-0.4-0.2-0.7-0.8-0.7-1.2c0-0.5,0.3-0.6,0.7-0.4
		C365.8,344.8,366.2,345.4,366.2,345.8z"/>
	<path class="st40" d="M369.2,347.6c0,0.5-0.3,0.6-0.7,0.4c-0.4-0.2-0.7-0.8-0.7-1.2c0-0.5,0.3-0.6,0.7-0.4
		C368.9,346.6,369.2,347.1,369.2,347.6z"/>
	<g class="st33">
		<path class="st37" d="M384.8,354.2V252.6l0.2-0.1l42.5-24.5v101.6l-0.2,0.1L384.8,354.2z M385.6,253.1v99.7l41-23.7v-99.7
			L385.6,253.1z"/>
	</g>
	<g class="st33">
		<path class="st37" d="M416.4,273.6l-19,11c-1.3,0.7-2.3,0-2.3-1.8v-10.6c0-1.7,1-3.7,2.3-4.4l19-11c1.3-0.7,2.3,0,2.3,1.8v10.6
			C418.8,270.9,417.7,272.9,416.4,273.6z"/>
		<path class="st22" d="M416.9,256.7c0.1,0.3,0.2,0.6,0.2,1.1v10.6c0,1.7-1,3.7-2.3,4.4l-19,11c-0.2,0.1-0.3,0.2-0.5,0.2
			c0.3,0.9,1.2,1.3,2.1,0.7l19-11c1.3-0.7,2.3-2.7,2.3-4.4v-10.6C418.8,257.2,418,256.4,416.9,256.7z"/>
		<g>
			<g>
				<path class="st3" d="M413,267.3c0.4-0.2,0.6,0,0.6,0.4v2.4c0,0.4-0.3,0.9-0.6,1.1c-0.4,0.2-0.6,0-0.6-0.4v-2.4
					C412.3,268,412.6,267.5,413,267.3z"/>
				<path class="st16" d="M410.2,269.2c0.4-0.2,0.6,0,0.6,0.4v2.1c0,0.4-0.3,0.9-0.6,1.1c-0.4,0.2-0.6,0-0.6-0.4v-2.1
					C409.6,269.9,409.9,269.4,410.2,269.2z"/>
				<path class="st39" d="M407.5,268.4c0.4-0.2,0.6,0,0.6,0.4v4.5c0,0.4-0.3,0.9-0.6,1.1c-0.4,0.2-0.6,0-0.6-0.4v-4.5
					C406.9,269.1,407.2,268.6,407.5,268.4z"/>
				<path class="st16" d="M404.8,267.4c0.4-0.2,0.6,0,0.6,0.4v7c0,0.4-0.3,0.9-0.6,1.1c-0.4,0.2-0.6,0-0.6-0.4v-7
					C404.1,268.1,404.4,267.6,404.8,267.4z"/>
				<path class="st16" d="M402,269.7c0.4-0.2,0.6,0,0.6,0.4v6.3c0,0.4-0.3,0.9-0.6,1.1c-0.4,0.2-0.6,0-0.6-0.4v-6.3
					C401.4,270.4,401.7,269.9,402,269.7z"/>
				<path class="st3" d="M399.3,274.2c0.4-0.2,0.6,0,0.6,0.4v3.4c0,0.4-0.3,0.9-0.6,1.1c-0.4,0.2-0.6,0-0.6-0.4v-3.4
					C398.7,274.9,399,274.4,399.3,274.2z"/>
			</g>
			<path class="st39" d="M412.3,266.1c0,0.4,0.3,0.6,0.6,0.4c0.3-0.2,0.6-0.7,0.6-1.1c0-0.4-0.3-0.6-0.6-0.4
				C412.6,265.2,412.3,265.7,412.3,266.1z"/>
			<path class="st3" d="M412.3,263.8c0,0.4,0.3,0.6,0.6,0.4c0.3-0.2,0.6-0.7,0.6-1.1c0-0.4-0.3-0.6-0.6-0.4
				C412.6,262.9,412.3,263.4,412.3,263.8z"/>
		</g>
	</g>
</g>
<g>
	<path class="st0" d="M80.4,235.9l-27.3-15.8c-1.7-1-1.5-2.7,0.5-3.8l26.4-15.2c1.9-1.1,4.9-1.2,6.5-0.3l27.3,15.8
		c1.7,1,1.5,2.7-0.5,3.8l-26.4,15.2C85,236.8,82,236.9,80.4,235.9z"/>
	<path class="st1" d="M114.9,201.5L114.9,201.5v-9.4l-21.1,0l-7.3-4.2c-1.7-1-4.6-0.8-6.5,0.3l-6.8,3.9l-21.1,0v9.7
		c0,0.7,0.3,1.3,1.1,1.8l27.3,15.8c1.7,1,4.6,0.8,6.5-0.3l26.4-15.2C114.4,203.2,114.9,202.3,114.9,201.5z"/>
	<path class="st1" d="M83.4,187.2c-1.2,0-2.5,0.3-3.5,0.9l-6.8,3.9l-21.1,0v9.7c0,0.7,0.3,1.3,1.1,1.8l27.3,15.8
		c0.8,0.5,1.9,0.7,3,0.6V187.2z"/>
	<path class="st43" d="M54.3,192.1l-2.4,0v9.7c0,0.7,0.3,1.3,1.1,1.8l1.3,0.7V192.1z"/>
	<path class="st43" d="M80.8,219.5c1.4,0.6,3.5,0.6,5.2-0.1v-11h-5.2V219.5z"/>
	<path class="st14" d="M80.4,209.6l-27.3-15.8c-1.7-1-1.5-2.7,0.5-3.8l26.4-15.2c1.9-1.1,4.9-1.2,6.5-0.3l27.3,15.8
		c1.7,1,1.5,2.7-0.5,3.8l-26.4,15.2C85,210.5,82,210.6,80.4,209.6z"/>
	<path class="st3" d="M113.3,192.3l-26.4,15.2c-1.9,1.1-4.9,1.2-6.5,0.3L53.1,192c-0.4-0.2-0.6-0.5-0.8-0.7
		c-0.6,0.9-0.3,1.9,0.8,2.6l27.3,15.8c1.7,1,4.6,0.8,6.5-0.3l26.4-15.2c1.5-0.9,2-2.1,1.3-3C114.3,191.5,113.9,191.9,113.3,192.3z"
		/>
	<g>
		<path class="st16" d="M104.8,204c0,0.7-0.5,1.6-1.1,1.9c-0.6,0.4-1.1,0.1-1.1-0.6c0-0.7,0.5-1.6,1.1-1.9
			C104.3,203,104.8,203.3,104.8,204z"/>
		<path class="st16" d="M108.4,202c0,0.7-0.5,1.6-1.1,1.9c-0.6,0.4-1.1,0.1-1.1-0.6c0-0.7,0.5-1.6,1.1-1.9
			C107.9,201,108.4,201.3,108.4,202z"/>
		<path class="st16" d="M111.9,199.9c0,0.7-0.5,1.6-1.1,1.9s-1.1,0.1-1.1-0.6c0-0.7,0.5-1.6,1.1-1.9S111.9,199.2,111.9,199.9z"/>
	</g>
	<g>
		<path class="st1" d="M82,199.9l-12.8-7.4c-0.8-0.5-0.7-1.2,0.2-1.8l12.3-7.1c0.9-0.5,2.3-0.6,3.1-0.1l12.8,7.4
			c0.8,0.5,0.7,1.2-0.2,1.8L85,199.7C84.1,200.3,82.8,200.3,82,199.9z"/>
		<path class="st16" d="M83.2,193.7l-1.8-1c-0.1-0.1-0.1-0.2,0-0.2l1.7-1c0.1-0.1,0.3-0.1,0.4,0l1.8,1c0.1,0.1,0.1,0.2,0,0.2l-1.7,1
			C83.5,193.7,83.3,193.8,83.2,193.7z"/>
		<path class="st44" d="M69.2,192.5L69.2,192.5c0.1,0,0.2-0.1,0.2-0.1l12.3-7.1c0.9-0.5,2.3-0.6,3.1-0.1l12.7,7.4
			c0.7-0.5,0.8-1.2,0-1.6l-12.8-7.4c-0.8-0.5-2.2-0.4-3.1,0.1l-12.3,7.1C68.5,191.2,68.4,192,69.2,192.5z"/>
	</g>
</g>
</svg>
